# Blender 5.2.0 LTS
# www.blender.org
mtllib bodyaug.mtl
o Body
v 1.345126 0.210406 0.067616
v 1.453642 0.042414 -0.169040
v 1.345126 0.210406 -0.067616
v 1.453642 0.042414 0.169040
v 1.453642 0.042414 -0.169040
v 1.345126 0.210406 0.067616
v 1.453642 0.042414 -0.169040
v 1.453642 0.042414 0.169040
v 1.453642 -0.036444 0.135232
v 1.453642 -0.036444 0.135232
v 1.453642 -0.036444 -0.135232
v 1.453642 0.042414 -0.169040
v 1.453642 -0.036444 0.135232
v 1.372105 -0.643347 0.135232
v 1.453642 -0.036444 -0.135232
v 1.372105 -0.643347 -0.135231
v 1.453642 -0.036444 -0.135232
v 1.372105 -0.643347 0.135232
v 1.372105 -0.643347 -0.135231
v 1.372105 -0.643347 0.135232
v 1.369543 -0.703177 0.135232
v 1.369543 -0.703177 0.135232
v 1.369543 -0.703177 -0.135231
v 1.372105 -0.643347 -0.135231
v 1.369543 -0.703177 -0.135231
v 1.369543 -0.703177 0.135232
v 1.361800 -0.761974 0.135232
v 1.361800 -0.761974 0.135232
v 1.361800 -0.761974 -0.135231
v 1.369543 -0.703177 -0.135231
v 1.015785 -0.761974 -0.135231
v 1.361800 -0.761974 -0.135231
v 1.361800 -0.761974 0.135232
v 1.015785 -0.761974 -0.135231
v 1.361800 -0.761974 0.135232
v 1.015785 -0.761974 0.135232
v 0.658444 -0.458740 0.135232
v 0.658444 -0.458740 -0.135231
v 0.682938 -0.363362 -0.135231
v 0.682938 -0.363362 -0.135231
v 0.682938 -0.363362 0.135232
v 0.658444 -0.458740 0.135232
v -0.362044 0.210406 0.067616
v 1.345126 0.210406 0.067616
v -0.362044 0.210406 -0.067616
v 1.345126 0.210406 -0.067616
v -0.362044 0.210406 -0.067616
v 1.345126 0.210406 0.067616
v -1.120623 -0.036444 0.135232
v -0.362044 -0.036444 0.135232
v -1.120623 -0.036444 -0.135232
v -0.362044 -0.036444 -0.135232
v -1.120623 -0.036444 -0.135232
v -0.362044 -0.036444 0.135232
v -0.362044 -0.036444 -0.135232
v -0.362044 -0.036444 0.135232
v -0.362044 0.210406 -0.067616
v -0.362044 -0.036444 -0.135232
v -0.362044 0.210406 -0.067616
v -0.362044 0.042414 -0.169040
v -0.362044 -0.036444 0.135232
v -0.362044 0.210406 0.067616
v -0.362044 0.210406 -0.067616
v -0.362044 0.210406 0.067616
v -0.362044 -0.036444 0.135232
v -0.362044 0.042414 0.169040
v -1.333804 -0.886723 -0.069636
v -1.170906 -0.886723 0.070358
v -1.333804 -0.886723 0.070358
v -1.333804 -0.886723 -0.069636
v -1.333804 -0.886723 0.070358
v -1.375171 -0.886723 0.026278
v -1.333804 -0.886723 -0.069636
v -1.375171 -0.886723 0.026278
v -1.375171 -0.886723 -0.025556
v -1.170906 -0.886723 -0.069636
v -1.170906 -0.886723 0.070358
v -1.333804 -0.886723 -0.069636
v -1.170906 -0.886723 0.070358
v -1.170906 -0.886723 -0.069636
v -1.130051 -0.886723 0.026278
v -1.130051 -0.886723 0.026278
v -1.170906 -0.886723 -0.069636
v -1.130051 -0.886723 -0.025556
v -1.160799 -0.242755 -0.069636
v -1.196766 -0.480744 -0.069636
v -1.295325 -0.242755 -0.069636
v -1.196766 -0.480744 -0.069636
v -1.160799 -0.242755 -0.069636
v -1.133645 -0.275891 -0.025556
v -1.295325 -0.242755 -0.069636
v -1.196766 -0.480744 -0.069636
v -1.295304 -0.480744 -0.069636
v -1.295325 -0.242755 -0.069636
v -1.295304 -0.480744 -0.069636
v -1.336468 -0.480744 -0.025556
v -1.336468 -0.480744 -0.025556
v -1.336468 -0.242755 -0.025556
v -1.295325 -0.242755 -0.069636
v -1.196766 -0.480744 -0.069636
v -1.308149 -0.620736 -0.069636
v -1.295304 -0.480744 -0.069636
v -1.308149 -0.620736 -0.069636
v -1.336468 -0.480744 -0.025556
v -1.295304 -0.480744 -0.069636
v -1.336468 -0.242755 -0.025556
v -1.336468 -0.480744 -0.025556
v -1.336468 -0.242755 0.026278
v -1.336468 -0.480744 0.026278
v -1.336468 -0.242755 0.026278
v -1.336468 -0.480744 -0.025556
v -1.336468 -0.480744 0.026278
v -1.295325 -0.242755 0.070358
v -1.336468 -0.242755 0.026278
v -1.295325 -0.242755 0.070358
v -1.336468 -0.480744 0.026278
v -1.295304 -0.480744 0.070358
v -1.196766 -0.480744 0.070358
v -1.295325 -0.242755 0.070358
v -1.295304 -0.480744 0.070358
v -1.295325 -0.242755 0.070358
v -1.196766 -0.480744 0.070358
v -1.160799 -0.242755 0.070358
v -1.336468 -0.480744 0.026278
v -1.308149 -0.620736 0.070358
v -1.295304 -0.480744 0.070358
v -1.308149 -0.620736 0.070358
v -1.196766 -0.480744 0.070358
v -1.295304 -0.480744 0.070358
v -1.196766 -0.480744 0.070358
v -1.133645 -0.275891 0.026278
v -1.160799 -0.242755 0.070358
v -1.133645 -0.275891 0.026278
v -1.196766 -0.480744 0.070358
v -1.155853 -0.480744 0.026278
v -1.155853 -0.480744 0.026278
v -1.133645 -0.275891 -0.025556
v -1.133645 -0.275891 0.026278
v -1.336468 -0.480744 -0.025556
v -1.349369 -0.620736 0.026278
v -1.336468 -0.480744 0.026278
v -1.308149 -0.620736 0.070358
v -1.336468 -0.480744 0.026278
v -1.349369 -0.620736 0.026278
v -1.336468 -0.480744 -0.025556
v -1.349369 -0.620736 -0.025556
v -1.349369 -0.620736 0.026278
v -1.336468 -0.480744 -0.025556
v -1.308149 -0.620736 -0.069636
v -1.349369 -0.620736 -0.025556
v -1.336468 -0.760729 0.026278
v -1.308149 -0.620736 0.070358
v -1.349369 -0.620736 0.026278
v -1.349369 -0.620736 -0.025556
v -1.336468 -0.760729 0.026278
v -1.349369 -0.620736 0.026278
v -1.196766 -0.480744 0.070358
v -1.308149 -0.620736 0.070358
v -1.170945 -0.620736 0.070358
v -1.170945 -0.620736 0.070358
v -1.155853 -0.480744 0.026278
v -1.196766 -0.480744 0.070358
v -1.295160 -0.760729 0.070358
v -1.170945 -0.620736 0.070358
v -1.308149 -0.620736 0.070358
v -1.308149 -0.620736 0.070358
v -1.336468 -0.760729 0.026278
v -1.295160 -0.760729 0.070358
v -1.155853 -0.480744 0.026278
v -1.170945 -0.620736 0.070358
v -1.130051 -0.620736 0.026278
v -1.336468 -0.760729 -0.025556
v -1.349369 -0.620736 -0.025556
v -1.308149 -0.620736 -0.069636
v -1.349369 -0.620736 -0.025556
v -1.336468 -0.760729 -0.025556
v -1.336468 -0.760729 0.026278
v -1.333804 -0.886723 0.070358
v -1.295160 -0.760729 0.070358
v -1.336468 -0.760729 0.026278
v -1.336468 -0.760729 0.026278
v -1.375171 -0.886723 0.026278
v -1.333804 -0.886723 0.070358
v -1.336468 -0.760729 0.026278
v -1.375171 -0.886723 -0.025556
v -1.375171 -0.886723 0.026278
v -1.375171 -0.886723 -0.025556
v -1.336468 -0.760729 0.026278
v -1.336468 -0.760729 -0.025556
v -1.170906 -0.886723 0.070358
v -1.295160 -0.760729 0.070358
v -1.333804 -0.886723 0.070358
v -1.336468 -0.760729 -0.025556
v -1.333804 -0.886723 -0.069636
v -1.375171 -0.886723 -0.025556
v -1.295160 -0.760729 0.070358
v -1.170906 -0.886723 0.070358
v -1.170915 -0.760729 0.070358
v -1.170945 -0.620736 0.070358
v -1.295160 -0.760729 0.070358
v -1.170915 -0.760729 0.070358
v -1.170915 -0.760729 0.070358
v -1.130051 -0.620736 0.026278
v -1.170945 -0.620736 0.070358
v -1.170906 -0.886723 0.070358
v -1.130051 -0.760729 0.026278
v -1.170915 -0.760729 0.070358
v -1.130051 -0.620736 0.026278
v -1.170915 -0.760729 0.070358
v -1.130051 -0.760729 0.026278
v -1.130051 -0.760729 0.026278
v -1.170906 -0.886723 0.070358
v -1.130051 -0.886723 0.026278
v -1.333804 -0.886723 -0.069636
v -1.336468 -0.760729 -0.025556
v -1.295160 -0.760729 -0.069636
v -1.308149 -0.620736 -0.069636
v -1.295160 -0.760729 -0.069636
v -1.336468 -0.760729 -0.025556
v -1.295160 -0.760729 -0.069636
v -1.170906 -0.886723 -0.069636
v -1.333804 -0.886723 -0.069636
v -1.130051 -0.760729 0.026278
v -1.130051 -0.886723 0.026278
v -1.130051 -0.760729 -0.025556
v -1.130051 -0.760729 -0.025556
v -1.130051 -0.620736 0.026278
v -1.130051 -0.760729 0.026278
v -1.130051 -0.886723 -0.025556
v -1.130051 -0.760729 -0.025556
v -1.130051 -0.886723 0.026278
v -1.130051 -0.760729 -0.025556
v -1.130051 -0.886723 -0.025556
v -1.170906 -0.886723 -0.069636
v -1.130051 -0.760729 -0.025556
v -1.130051 -0.620736 -0.025556
v -1.130051 -0.620736 0.026278
v -1.170906 -0.886723 -0.069636
v -1.170915 -0.760729 -0.069636
v -1.130051 -0.760729 -0.025556
v -1.170915 -0.760729 -0.069636
v -1.170906 -0.886723 -0.069636
v -1.295160 -0.760729 -0.069636
v -1.170915 -0.760729 -0.069636
v -1.130051 -0.620736 -0.025556
v -1.130051 -0.760729 -0.025556
v -1.130051 -0.620736 -0.025556
v -1.155853 -0.480744 0.026278
v -1.130051 -0.620736 0.026278
v -1.295160 -0.760729 -0.069636
v -1.170945 -0.620736 -0.069636
v -1.170915 -0.760729 -0.069636
v -1.130051 -0.620736 -0.025556
v -1.170915 -0.760729 -0.069636
v -1.170945 -0.620736 -0.069636
v -1.170945 -0.620736 -0.069636
v -1.295160 -0.760729 -0.069636
v -1.308149 -0.620736 -0.069636
v -1.308149 -0.620736 -0.069636
v -1.196766 -0.480744 -0.069636
v -1.170945 -0.620736 -0.069636
v -1.170945 -0.620736 -0.069636
v -1.155853 -0.480744 -0.025556
v -1.130051 -0.620736 -0.025556
v -1.155853 -0.480744 0.026278
v -1.130051 -0.620736 -0.025556
v -1.155853 -0.480744 -0.025556
v -1.155853 -0.480744 -0.025556
v -1.170945 -0.620736 -0.069636
v -1.196766 -0.480744 -0.069636
v -1.133645 -0.275891 -0.025556
v -1.155853 -0.480744 0.026278
v -1.155853 -0.480744 -0.025556
v -1.196766 -0.480744 -0.069636
v -1.133645 -0.275891 -0.025556
v -1.155853 -0.480744 -0.025556
v -0.697032 -0.637540 -0.135231
v -0.697032 -0.637540 0.135232
v -0.894238 -0.308989 -0.135231
v -0.697032 -0.637540 0.135232
v -0.697032 -0.637540 -0.135231
v -0.579665 -0.699565 -0.135231
v -0.894238 -0.308989 -0.135231
v -0.697032 -0.637540 0.135232
v -0.911495 -0.280991 0.135232
v -0.579665 -0.699565 -0.135231
v -0.579665 -0.699565 0.135232
v -0.697032 -0.637540 0.135232
v -0.579665 -0.699565 -0.135231
v -0.195984 -0.699565 -0.135231
v -0.579665 -0.699565 0.135232
v -0.195984 -0.699565 -0.135231
v -0.195984 -0.699565 0.135232
v -0.579665 -0.699565 0.135232
v -0.911495 -0.280991 0.135232
v -0.911495 -0.280991 -0.135231
v -0.894238 -0.308989 -0.135231
v -1.027996 -0.149803 0.135232
v -0.911495 -0.280991 -0.135231
v -0.911495 -0.280991 0.135232
v -0.911495 -0.280991 -0.135231
v -1.027996 -0.149803 0.135232
v -1.027996 -0.149803 -0.135231
v -0.362044 -0.036444 0.135232
v -0.318181 -0.220568 0.135232
v -0.193874 -0.150571 0.135232
v 0.210761 -0.220568 0.135232
v -0.362044 -0.036444 0.135232
v -0.193874 -0.150571 0.135232
v -0.318181 -0.220568 0.135232
v -0.362044 -0.036444 0.135232
v -0.533848 -0.146505 0.135232
v -0.533848 -0.278583 0.135232
v -0.318181 -0.220568 0.135232
v -0.533848 -0.146505 0.135232
v -0.318181 -0.220568 0.135232
v -0.533848 -0.278583 0.135232
v -0.309636 -0.278583 0.135232
v -0.533848 -0.278583 0.135232
v -0.415923 -0.572529 0.135232
v -0.309636 -0.278583 0.135232
v -0.195984 -0.623528 0.135232
v -0.309636 -0.278583 0.135232
v -0.415923 -0.572529 0.135232
v -0.415923 -0.572529 0.135232
v -0.195984 -0.699565 0.135232
v -0.195984 -0.623528 0.135232
v -0.195984 -0.699565 0.135232
v -0.415923 -0.572529 0.135232
v -0.467195 -0.633729 0.135232
v -0.579665 -0.699565 0.135232
v -0.195984 -0.699565 0.135232
v -0.467195 -0.633729 0.135232
v -0.467195 -0.633729 0.135232
v -0.602807 -0.635286 0.135232
v -0.579665 -0.699565 0.135232
v -0.697032 -0.637540 0.135232
v -0.579665 -0.699565 0.135232
v -0.602807 -0.635286 0.135232
v -0.602807 -0.635286 0.135232
v -0.823767 -0.279342 0.135232
v -0.697032 -0.637540 0.135232
v -0.911495 -0.280991 0.135232
v -0.697032 -0.637540 0.135232
v -0.823767 -0.279342 0.135232
v -0.823767 -0.209345 0.135232
v -0.911495 -0.280991 0.135232
v -0.823767 -0.279342 0.135232
v -0.911495 -0.280991 0.135232
v -0.823767 -0.209345 0.135232
v -1.027996 -0.149803 0.135232
v -0.823767 -0.209345 0.135232
v -0.770324 -0.148155 0.135232
v -1.027996 -0.149803 0.135232
v -0.770324 -0.148155 0.135232
v -1.120623 -0.036444 0.135232
v -1.027996 -0.149803 0.135232
v -1.120623 -0.150571 0.135232
v -1.027996 -0.149803 0.135232
v -1.120623 -0.036444 0.135232
v -1.120623 -0.036444 0.135232
v -0.770324 -0.148155 0.135232
v -0.362044 -0.036444 0.135232
v -0.362044 -0.036444 0.135232
v -0.770324 -0.148155 0.135232
v -0.533848 -0.146505 0.135232
v -0.362044 -0.036444 0.135232
v 1.453642 0.042414 0.169040
v -0.362044 0.042414 0.169040
v -0.362044 0.042414 0.169040
v 1.453642 0.042414 0.169040
v 1.345126 0.210406 0.067616
v -0.362044 0.042414 0.169040
v 1.345126 0.210406 0.067616
v -0.362044 0.210406 0.067616
v -0.362044 -0.036444 0.135232
v 1.453642 -0.036444 0.135232
v 1.453642 0.042414 0.169040
v -0.362044 -0.036444 0.135232
v 0.210761 -0.220568 0.135232
v 1.453642 -0.036444 0.135232
v 1.453642 -0.036444 0.135232
v 0.210761 -0.220568 0.135232
v 0.682938 -0.363362 0.135232
v 0.248190 -0.341146 0.135232
v 0.682938 -0.363362 0.135232
v 0.210761 -0.220568 0.135232
v 0.682938 -0.363362 0.135232
v 0.248190 -0.341146 0.135232
v 0.658444 -0.458740 0.135232
v 1.069969 -0.643347 0.135232
v 1.453642 -0.036444 0.135232
v 0.682938 -0.363362 0.135232
v 1.453642 -0.036444 0.135232
v 1.069969 -0.643347 0.135232
v 1.372105 -0.643347 0.135232
v 1.069969 -0.643347 0.135232
v 1.369543 -0.703177 0.135232
v 1.372105 -0.643347 0.135232
v 1.369543 -0.703177 0.135232
v 1.069969 -0.643347 0.135232
v 1.361800 -0.761974 0.135232
v 1.361800 -0.761974 0.135232
v 1.069969 -0.643347 0.135232
v 1.015785 -0.761974 0.135232
v 1.015785 -0.761974 0.135232
v 1.069969 -0.643347 0.135232
v 1.015785 -0.703177 0.135232
v 1.345126 0.210406 -0.067616
v -0.362044 0.042414 -0.169040
v -0.362044 0.210406 -0.067616
v -0.362044 0.042414 -0.169040
v 1.345126 0.210406 -0.067616
v 1.453642 0.042414 -0.169040
v -0.362044 0.042414 -0.169040
v 1.453642 0.042414 -0.169040
v -0.362044 -0.036444 -0.135232
v 1.453642 -0.036444 -0.135232
v -0.362044 -0.036444 -0.135232
v 1.453642 0.042414 -0.169040
v -0.362044 -0.036444 -0.135232
v 1.453642 -0.036444 -0.135232
v 0.210761 -0.220568 -0.135231
v 0.210761 -0.220568 -0.135231
v 1.453642 -0.036444 -0.135232
v 0.682938 -0.363362 -0.135231
v 0.682938 -0.363362 -0.135231
v 0.248190 -0.341146 -0.135231
v 0.210761 -0.220568 -0.135231
v 0.248190 -0.341146 -0.135231
v 0.682938 -0.363362 -0.135231
v 0.658444 -0.458740 -0.135231
v -0.362044 -0.036444 -0.135232
v 0.210761 -0.220568 -0.135231
v -0.193874 -0.150572 -0.135231
v 1.453642 -0.036444 -0.135232
v 1.069969 -0.643347 -0.135231
v 0.682938 -0.363362 -0.135231
v -0.318181 -0.220568 -0.135231
v -0.362044 -0.036444 -0.135232
v -0.193874 -0.150572 -0.135231
v 1.453642 -0.036444 -0.135232
v 1.372105 -0.643347 -0.135231
v 1.069969 -0.643347 -0.135231
v 1.369543 -0.703177 -0.135231
v 1.069969 -0.643347 -0.135231
v 1.372105 -0.643347 -0.135231
v 1.361800 -0.761974 -0.135231
v 1.069969 -0.643347 -0.135231
v 1.369543 -0.703177 -0.135231
v 1.015785 -0.761974 -0.135231
v 1.069969 -0.643347 -0.135231
v 1.361800 -0.761974 -0.135231
v 1.069969 -0.643347 -0.135231
v 1.015785 -0.761974 -0.135231
v 1.015785 -0.703177 -0.135231
v -0.362044 -0.036444 -0.135232
v -0.318181 -0.220568 -0.135231
v -0.533848 -0.146506 -0.135231
v -0.533848 -0.278583 -0.135231
v -0.533848 -0.146506 -0.135231
v -0.318181 -0.220568 -0.135231
v -0.770324 -0.148155 -0.135231
v -0.362044 -0.036444 -0.135232
v -0.533848 -0.146506 -0.135231
v -0.533848 -0.278583 -0.135231
v -0.318181 -0.220568 -0.135231
v -0.309636 -0.278583 -0.135231
v -0.362044 -0.036444 -0.135232
v -0.770324 -0.148155 -0.135231
v -1.120623 -0.036444 -0.135232
v -0.415923 -0.572529 -0.135231
v -0.533848 -0.278583 -0.135231
v -0.309636 -0.278583 -0.135231
v -0.309636 -0.278583 -0.135231
v -0.195984 -0.623528 -0.135231
v -0.415923 -0.572529 -0.135231
v -0.195984 -0.699565 -0.135231
v -0.415923 -0.572529 -0.135231
v -0.195984 -0.623528 -0.135231
v -0.415923 -0.572529 -0.135231
v -0.195984 -0.699565 -0.135231
v -0.467195 -0.633729 -0.135231
v -0.467195 -0.633729 -0.135231
v -0.195984 -0.699565 -0.135231
v -0.579665 -0.699565 -0.135231
v -0.579665 -0.699565 -0.135231
v -0.602807 -0.635286 -0.135231
v -0.467195 -0.633729 -0.135231
v -0.579665 -0.699565 -0.135231
v -0.697032 -0.637540 -0.135231
v -0.602807 -0.635286 -0.135231
v -0.823767 -0.279342 -0.135231
v -0.602807 -0.635286 -0.135231
v -0.697032 -0.637540 -0.135231
v -0.697032 -0.637540 -0.135231
v -0.894238 -0.308989 -0.135231
v -0.823767 -0.279342 -0.135231
v -0.823767 -0.279342 -0.135231
v -0.894238 -0.308989 -0.135231
v -0.911495 -0.280991 -0.135231
v -0.911495 -0.280991 -0.135231
v -0.823767 -0.209345 -0.135231
v -0.823767 -0.279342 -0.135231
v -1.027996 -0.149803 -0.135231
v -0.823767 -0.209345 -0.135231
v -0.911495 -0.280991 -0.135231
v -0.823767 -0.209345 -0.135231
v -1.027996 -0.149803 -0.135231
v -0.770324 -0.148155 -0.135231
v -1.120623 -0.036444 -0.135232
v -0.770324 -0.148155 -0.135231
v -1.027996 -0.149803 -0.135231
v -1.120623 -0.036444 -0.135232
v -1.027996 -0.149803 -0.135231
v -1.120623 -0.150572 -0.135231
v -0.318181 -0.220568 0.135232
v -0.318181 -0.220568 -0.135231
v -0.193874 -0.150572 -0.135231
v -0.318181 -0.220568 -0.135231
v -0.318181 -0.220568 0.135232
v -0.309636 -0.278583 0.135232
v -0.193874 -0.150572 -0.135231
v -0.193874 -0.150571 0.135232
v -0.318181 -0.220568 0.135232
v -0.193874 -0.150572 -0.135231
v 0.210761 -0.220568 -0.135231
v -0.193874 -0.150571 0.135232
v 0.210761 -0.220568 -0.135231
v 0.210761 -0.220568 0.135232
v -0.193874 -0.150571 0.135232
v -0.309636 -0.278583 0.135232
v -0.309636 -0.278583 -0.135231
v -0.318181 -0.220568 -0.135231
v -0.309636 -0.278583 -0.135231
v -0.309636 -0.278583 0.135232
v -0.195984 -0.623528 0.135232
v -0.195984 -0.623528 -0.135231
v -0.309636 -0.278583 -0.135231
v -0.195984 -0.623528 0.135232
v -0.195984 -0.623528 -0.135231
v -0.195984 -0.623528 0.135232
v -0.195984 -0.699565 0.135232
v -0.195984 -0.699565 0.135232
v -0.195984 -0.699565 -0.135231
v -0.195984 -0.623528 -0.135231
v -0.823767 -0.209345 0.135232
v -0.823767 -0.209345 -0.135231
v -0.770324 -0.148155 -0.135231
v -0.823767 -0.209345 -0.135231
v -0.823767 -0.209345 0.135232
v -0.823767 -0.279342 0.135232
v -0.770324 -0.148155 -0.135231
v -0.770324 -0.148155 0.135232
v -0.823767 -0.209345 0.135232
v -0.770324 -0.148155 -0.135231
v -0.533848 -0.146506 -0.135231
v -0.770324 -0.148155 0.135232
v -0.533848 -0.146506 -0.135231
v -0.533848 -0.146505 0.135232
v -0.770324 -0.148155 0.135232
v -0.823767 -0.279342 0.135232
v -0.823767 -0.279342 -0.135231
v -0.823767 -0.209345 -0.135231
v -0.823767 -0.279342 -0.135231
v -0.823767 -0.279342 0.135232
v -0.602807 -0.635286 0.135232
v -0.602807 -0.635286 -0.135231
v -0.823767 -0.279342 -0.135231
v -0.602807 -0.635286 0.135232
v -0.467195 -0.633729 0.135232
v -0.602807 -0.635286 -0.135231
v -0.602807 -0.635286 0.135232
v -0.602807 -0.635286 -0.135231
v -0.467195 -0.633729 0.135232
v -0.467195 -0.633729 -0.135231
v -0.415923 -0.572529 0.135232
v -0.467195 -0.633729 -0.135231
v -0.467195 -0.633729 0.135232
v -0.467195 -0.633729 -0.135231
v -0.415923 -0.572529 0.135232
v -0.415923 -0.572529 -0.135231
v -0.533848 -0.278583 0.135232
v -0.415923 -0.572529 -0.135231
v -0.415923 -0.572529 0.135232
v -0.415923 -0.572529 -0.135231
v -0.533848 -0.278583 0.135232
v -0.533848 -0.278583 -0.135231
v -0.533848 -0.146505 0.135232
v -0.533848 -0.278583 -0.135231
v -0.533848 -0.278583 0.135232
v -0.533848 -0.278583 -0.135231
v -0.533848 -0.146505 0.135232
v -0.533848 -0.146506 -0.135231
v -1.295325 -0.242755 0.070358
v -1.295325 -0.242755 -0.069636
v -1.336468 -0.242755 -0.025556
v -1.295325 -0.242755 0.070358
v -1.336468 -0.242755 -0.025556
v -1.336468 -0.242755 0.026278
v -1.295325 -0.242755 -0.069636
v -1.295325 -0.242755 0.070358
v -1.160799 -0.242755 -0.069636
v -1.160799 -0.242755 -0.069636
v -1.295325 -0.242755 0.070358
v -1.160799 -0.242755 0.070358
v -1.160799 -0.242755 -0.069636
v -1.160799 -0.242755 0.070358
v -1.133645 -0.275891 0.026278
v -1.160799 -0.242755 -0.069636
v -1.133645 -0.275891 0.026278
v -1.133645 -0.275891 -0.025556
v 0.248190 -0.341146 -0.135231
v 0.658444 -0.458740 -0.135231
v 0.248190 -0.341146 0.135232
v 0.658444 -0.458740 -0.135231
v 0.658444 -0.458740 0.135232
v 0.248190 -0.341146 0.135232
v -1.120623 -0.150571 0.135232
v -1.120623 -0.150572 -0.135231
v -1.027996 -0.149803 -0.135231
v -1.027996 -0.149803 -0.135231
v -1.027996 -0.149803 0.135232
v -1.120623 -0.150571 0.135232
v 0.682938 -0.363362 -0.135231
v 1.069969 -0.643347 -0.135231
v 0.682938 -0.363362 0.135232
v 1.069969 -0.643347 -0.135231
v 1.069969 -0.643347 0.135232
v 0.682938 -0.363362 0.135232
v 0.248190 -0.341146 -0.135231
v 0.210761 -0.220568 0.135232
v 0.210761 -0.220568 -0.135231
v 0.210761 -0.220568 0.135232
v 0.248190 -0.341146 -0.135231
v 0.248190 -0.341146 0.135232
v 1.015785 -0.703177 -0.135231
v 1.069969 -0.643347 0.135232
v 1.069969 -0.643347 -0.135231
v 1.069969 -0.643347 0.135232
v 1.015785 -0.703177 -0.135231
v 1.015785 -0.703177 0.135232
v 1.015785 -0.761974 -0.135231
v 1.015785 -0.703177 0.135232
v 1.015785 -0.703177 -0.135231
v 1.015785 -0.703177 0.135232
v 1.015785 -0.761974 -0.135231
v 1.015785 -0.761974 0.135232
vn 0.8400 0.5426 -0.0000
vn 0.9621 0.2728 -0.0000
vn 0.9622 0.2724 -0.0000
vn 0.9983 -0.0591 -0.0000
vn 0.9961 -0.0881 -0.0000
vn 0.9962 -0.0866 -0.0000
vn 0.9962 -0.0867 -0.0000
vn 0.6853 -0.7283 -0.0000
vn 0.6853 -0.7283 0.0002
vn -0.0000 -1.0000 -0.0000
vn 0.6854 -0.7282 -0.0000
vn 0.9686 -0.2487 -0.0000
vn -0.0000 1.0000 -0.0000
vn -0.8067 0.5910 -0.0000
vn -1.0000 -0.0000 -0.0000
vn 0.3841 -0.0505 -0.9219
vn 0.3813 0.0077 -0.9244
vn -0.4068 -0.0000 -0.9135
vn 0.3841 -0.0504 -0.9219
vn 0.9205 -0.1103 -0.3747
vn -0.4068 0.0001 -0.9135
vn -0.3957 0.0178 -0.9182
vn -0.4069 -0.0000 -0.9135
vn -0.9306 0.0432 -0.3636
vn -0.9306 0.0431 -0.3636
vn -0.9331 -0.0000 -0.3595
vn -0.4275 -0.0001 -0.9040
vn -0.9305 0.0432 -0.3636
vn -0.9332 -0.0000 -0.3595
vn -0.9306 0.0432 -0.3635
vn -0.9332 -0.0000 0.3595
vn -0.9306 0.0431 0.3635
vn -0.9305 0.0432 0.3637
vn -0.4069 -0.0000 0.9135
vn -0.9331 -0.0000 0.3595
vn -0.9305 0.0431 0.3636
vn -0.3957 0.0178 0.9182
vn 0.3813 0.0077 0.9244
vn -0.4068 -0.0000 0.9135
vn 0.3841 -0.0504 0.9219
vn -0.9306 0.0432 0.3636
vn -0.4276 -0.0000 0.9040
vn -0.4275 -0.0001 0.9040
vn 0.3813 0.0078 0.9244
vn 0.9205 -0.1103 0.3747
vn 0.3841 -0.0505 0.9219
vn 0.9206 -0.1103 0.3745
vn 0.9333 0.0294 0.3579
vn 0.9334 0.0293 0.3577
vn 0.9207 -0.1103 -0.3744
vn 0.9207 -0.1103 0.3744
vn -0.9361 -0.0001 0.3517
vn -0.9306 0.0432 0.3635
vn -0.9360 -0.0001 0.3519
vn -0.9361 -0.0001 -0.3517
vn -0.9305 0.0432 -0.3637
vn -0.9360 -0.0001 -0.3519
vn -0.9207 0.0991 0.3776
vn -0.9207 0.0991 0.3775
vn -0.9361 -0.0002 0.3518
vn -0.4275 -0.0002 0.9040
vn 0.4284 0.0410 0.9026
vn 0.4285 0.0410 0.9026
vn 0.9334 0.0294 0.3577
vn -0.3578 0.0336 0.9332
vn -0.4276 -0.0001 0.9040
vn -0.9206 0.0991 0.3776
vn -0.3579 0.0335 0.9331
vn 0.9332 0.0837 0.3495
vn -0.9207 0.0991 -0.3776
vn -0.9207 0.0991 -0.3775
vn -0.4656 0.1429 0.8734
vn -0.3579 0.0336 0.9331
vn -0.9206 0.0991 0.3777
vn -0.9047 0.2778 0.3231
vn -0.9047 0.2779 -0.3231
vn -0.9047 0.2778 -0.3231
vn 0.4086 -0.0000 0.9127
vn -0.4655 0.1429 0.8734
vn -0.9206 0.0992 -0.3777
vn -0.4656 0.1429 -0.8734
vn -0.3579 0.0335 0.9332
vn 0.4084 -0.0000 0.9128
vn 0.4085 -0.0000 0.9127
vn 0.4087 -0.0000 0.9127
vn 0.9337 0.0001 0.3580
vn 0.9332 0.0837 0.3494
vn 0.9337 -0.0000 0.3580
vn -0.9206 0.0991 -0.3776
vn -0.3580 0.0335 -0.9331
vn -0.4276 -0.0001 -0.9040
vn -0.3579 0.0336 -0.9331
vn -0.9207 0.0990 -0.3776
vn -0.3579 0.0335 -0.9332
vn 0.4086 -0.0000 -0.9127
vn -0.4655 0.1429 -0.8734
vn 0.9338 -0.0000 0.3578
vn 0.9338 -0.0000 -0.3578
vn 0.9337 -0.0000 -0.3580
vn 0.4087 -0.0000 -0.9127
vn 0.9332 0.0837 -0.3494
vn 0.4085 0.0001 -0.9127
vn 0.4084 -0.0000 -0.9128
vn -0.3578 0.0336 -0.9332
vn 0.4085 -0.0000 -0.9127
vn 0.4284 0.0410 -0.9026
vn 0.9332 0.0837 -0.3495
vn 0.4285 0.0410 -0.9026
vn -0.4275 -0.0002 -0.9040
vn 0.9334 0.0294 -0.3577
vn 0.9333 0.0293 -0.3578
vn 0.9334 0.0293 -0.3577
vn 0.9206 -0.1103 -0.3745
vn -0.6915 -0.7224 -0.0004
vn -0.8569 -0.5155 -0.0006
vn -0.6913 -0.7225 -0.0004
vn -0.2428 -0.9701 -0.0000
vn -0.8569 -0.5155 -0.0007
vn -0.6916 -0.7222 -0.0004
vn -0.8062 -0.5917 -0.0004
vn -0.2427 -0.9701 -0.0000
vn -0.8062 -0.5917 -0.0000
vn -0.7477 -0.6640 -0.0000
vn -0.0000 -0.1338 0.9910
vn -0.0000 -0.0000 1.0000
vn -0.0000 -0.1340 0.9910
vn -0.0000 -0.0371 0.9993
vn -0.0000 0.0690 0.9976
vn -0.0000 0.5168 0.8561
vn -0.0000 -0.2109 0.9775
vn -0.0000 -0.2108 0.9775
vn -0.0000 0.5168 -0.8561
vn -0.0000 0.0690 -0.9976
vn -0.0000 -0.0371 -0.9993
vn -0.0000 -0.1340 -0.9910
vn -0.0000 -0.2109 -0.9775
vn -0.0001 -0.0371 -0.9993
vn -0.0000 -0.1338 -0.9910
vn -0.0000 -0.2108 -0.9775
vn -0.0000 -0.0000 -1.0000
vn 0.9070 -0.4211 -0.0000
vn 0.1729 -0.9849 -0.0000
vn 0.9070 -0.4212 -0.0000
vn 0.9732 0.2299 -0.0000
vn 0.1728 -0.9850 -0.0000
vn -0.1705 -0.9854 -0.0000
vn 0.9875 0.1578 -0.0000
vn 0.9875 0.1577 -0.0000
vn 1.0000 -0.0000 -0.0000
vn 0.9386 -0.3451 -0.0000
vn 0.4261 -0.9047 -0.0000
vn 0.9387 -0.3447 -0.0000
vn 0.9626 0.2709 -0.0000
vn 0.4259 -0.9048 -0.0000
vn 0.0070 -1.0000 -0.0000
vn 0.9625 0.2711 -0.0000
vn 0.4953 0.8687 -0.0000
vn -0.4377 0.8991 -0.0000
vn -0.9886 0.1504 -0.0000
vn -0.4378 0.8991 -0.0000
vn -0.9821 -0.1885 -0.0000
vn -0.9886 0.1505 -0.0000
vn 0.2918 0.9565 -0.0000
vn 0.2918 0.9565 -0.0001
vn 0.7735 0.6338 -0.0000
vn -0.2755 -0.9613 -0.0000
vn 0.0083 -1.0000 -0.0000
vn -0.5861 -0.8102 -0.0000
vn -0.9550 -0.2965 -0.0000
vn -0.9357 0.3528 -0.0000
vn -0.7412 0.6713 -0.0000
vt 0.000000 0.000000
s 1
f 1/1/1 2/1/2 3/1/1
f 4/1/2 5/1/2 6/1/1
f 7/1/3 8/1/3 9/1/4
f 10/1/4 11/1/4 12/1/3
f 13/1/4 14/1/5 15/1/4
f 16/1/5 17/1/4 18/1/5
f 19/1/5 20/1/5 21/1/6
f 22/1/6 23/1/6 24/1/5
f 25/1/7 26/1/7 27/1/8
f 28/1/8 29/1/9 30/1/7
f 31/1/10 32/1/11 33/1/11
f 34/1/10 35/1/11 36/1/10
f 37/1/12 38/1/12 39/1/12
f 40/1/12 41/1/12 42/1/12
f 43/1/13 44/1/13 45/1/13
f 46/1/13 47/1/13 48/1/13
f 49/1/13 50/1/14 51/1/13
f 52/1/14 53/1/13 54/1/14
f 55/1/14 56/1/14 57/1/15
f 58/1/14 59/1/15 60/1/15
f 61/1/14 62/1/15 63/1/15
f 64/1/15 65/1/14 66/1/15
f 67/1/10 68/1/10 69/1/10
f 70/1/10 71/1/10 72/1/10
f 73/1/10 74/1/10 75/1/10
f 76/1/10 77/1/10 78/1/10
f 79/1/10 80/1/10 81/1/10
f 82/1/10 83/1/10 84/1/10
f 85/1/16 86/1/17 87/1/18
f 88/1/17 89/1/19 90/1/20
f 91/1/21 92/1/17 93/1/22
f 94/1/23 95/1/22 96/1/24
f 97/1/25 98/1/26 99/1/23
f 100/1/17 101/1/27 102/1/22
f 103/1/27 104/1/28 105/1/22
f 106/1/29 107/1/30 108/1/31
f 109/1/32 110/1/31 111/1/30
f 112/1/33 113/1/34 114/1/35
f 115/1/34 116/1/36 117/1/37
f 118/1/38 119/1/39 120/1/37
f 121/1/39 122/1/38 123/1/40
f 124/1/41 125/1/42 126/1/37
f 127/1/43 128/1/38 129/1/37
f 130/1/44 131/1/45 132/1/46
f 133/1/47 134/1/38 135/1/48
f 136/1/49 137/1/50 138/1/51
f 139/1/30 140/1/52 141/1/53
f 142/1/43 143/1/33 144/1/54
f 145/1/30 146/1/55 147/1/52
f 148/1/56 149/1/27 150/1/57
f 151/1/58 152/1/43 153/1/54
f 154/1/55 155/1/59 156/1/60
f 157/1/38 158/1/61 159/1/62
f 160/1/63 161/1/64 162/1/38
f 163/1/65 164/1/62 165/1/43
f 166/1/66 167/1/67 168/1/68
f 169/1/64 170/1/63 171/1/69
f 172/1/70 173/1/57 174/1/27
f 175/1/55 176/1/71 177/1/59
f 178/1/72 179/1/73 180/1/67
f 181/1/74 182/1/75 183/1/72
f 184/1/58 185/1/76 186/1/75
f 187/1/77 188/1/59 189/1/70
f 190/1/78 191/1/65 192/1/79
f 193/1/80 194/1/81 195/1/77
f 196/1/82 197/1/78 198/1/83
f 199/1/62 200/1/65 201/1/83
f 202/1/84 203/1/69 204/1/63
f 205/1/85 206/1/86 207/1/84
f 208/1/87 209/1/84 210/1/88
f 211/1/88 212/1/85 213/1/88
f 214/1/81 215/1/89 216/1/90
f 217/1/91 218/1/92 219/1/93
f 220/1/94 221/1/95 222/1/96
f 223/1/97 224/1/97 225/1/98
f 226/1/98 227/1/87 228/1/97
f 229/1/98 230/1/98 231/1/97
f 232/1/99 233/1/99 234/1/100
f 235/1/98 236/1/101 237/1/87
f 238/1/100 239/1/102 240/1/99
f 241/1/103 242/1/95 243/1/104
f 244/1/105 245/1/101 246/1/99
f 247/1/101 248/1/49 249/1/87
f 250/1/104 251/1/106 252/1/103
f 253/1/107 254/1/105 255/1/108
f 256/1/106 257/1/104 258/1/109
f 259/1/27 260/1/17 261/1/106
f 262/1/108 263/1/110 264/1/107
f 265/1/64 266/1/101 267/1/110
f 268/1/111 269/1/106 270/1/17
f 271/1/50 272/1/49 273/1/112
f 274/1/17 275/1/113 276/1/112
f 277/1/114 278/1/114 279/1/115
f 280/1/116 281/1/116 282/1/117
f 283/1/118 284/1/119 285/1/120
f 286/1/117 287/1/117 288/1/116
f 289/1/121 290/1/10 291/1/121
f 292/1/10 293/1/10 294/1/121
f 295/1/120 296/1/122 297/1/118
f 298/1/123 299/1/120 300/1/122
f 301/1/120 302/1/123 303/1/123
f 304/1/124 305/1/125 306/1/125
f 307/1/125 308/1/124 309/1/125
f 310/1/125 311/1/124 312/1/125
f 313/1/125 314/1/125 315/1/125
f 316/1/125 317/1/125 318/1/125
f 319/1/125 320/1/125 321/1/125
f 322/1/125 323/1/125 324/1/125
f 325/1/125 326/1/125 327/1/125
f 328/1/125 329/1/125 330/1/125
f 331/1/125 332/1/125 333/1/125
f 334/1/125 335/1/125 336/1/125
f 337/1/125 338/1/125 339/1/125
f 340/1/125 341/1/125 342/1/125
f 343/1/125 344/1/125 345/1/125
f 346/1/125 347/1/125 348/1/125
f 349/1/125 350/1/125 351/1/125
f 352/1/125 353/1/125 354/1/125
f 355/1/125 356/1/125 357/1/125
f 358/1/125 359/1/125 360/1/125
f 361/1/125 362/1/125 363/1/124
f 364/1/124 365/1/125 366/1/125
f 367/1/126 368/1/127 369/1/128
f 370/1/128 371/1/127 372/1/129
f 373/1/128 374/1/129 375/1/129
f 376/1/126 377/1/130 378/1/127
f 379/1/124 380/1/125 381/1/131
f 382/1/131 383/1/125 384/1/125
f 385/1/125 386/1/125 387/1/125
f 388/1/125 389/1/125 390/1/125
f 391/1/125 392/1/131 393/1/125
f 394/1/131 395/1/125 396/1/125
f 397/1/125 398/1/125 399/1/125
f 400/1/125 401/1/125 402/1/125
f 403/1/125 404/1/125 405/1/125
f 406/1/125 407/1/125 408/1/125
f 409/1/132 410/1/133 411/1/132
f 412/1/133 413/1/132 414/1/134
f 415/1/133 416/1/134 417/1/135
f 418/1/136 419/1/135 420/1/137
f 421/1/138 422/1/139 423/1/140
f 424/1/140 425/1/139 426/1/140
f 427/1/140 428/1/140 429/1/140
f 430/1/140 431/1/140 432/1/140
f 433/1/138 434/1/140 435/1/140
f 436/1/139 437/1/140 438/1/140
f 439/1/140 440/1/138 441/1/140
f 442/1/139 443/1/140 444/1/140
f 445/1/140 446/1/140 447/1/140
f 448/1/140 449/1/140 450/1/140
f 451/1/140 452/1/140 453/1/140
f 454/1/140 455/1/140 456/1/140
f 457/1/138 458/1/140 459/1/140
f 460/1/140 461/1/140 462/1/140
f 463/1/140 464/1/138 465/1/140
f 466/1/140 467/1/140 468/1/140
f 469/1/138 470/1/140 471/1/140
f 472/1/140 473/1/140 474/1/140
f 475/1/140 476/1/140 477/1/140
f 478/1/140 479/1/140 480/1/140
f 481/1/140 482/1/140 483/1/140
f 484/1/140 485/1/140 486/1/140
f 487/1/140 488/1/140 489/1/140
f 490/1/140 491/1/140 492/1/140
f 493/1/140 494/1/140 495/1/140
f 496/1/140 497/1/140 498/1/140
f 499/1/140 500/1/140 501/1/140
f 502/1/140 503/1/140 504/1/140
f 505/1/140 506/1/140 507/1/140
f 508/1/140 509/1/140 510/1/140
f 511/1/140 512/1/140 513/1/140
f 514/1/140 515/1/140 516/1/140
f 517/1/141 518/1/141 519/1/142
f 520/1/143 521/1/143 522/1/144
f 523/1/142 524/1/142 525/1/141
f 526/1/145 527/1/146 528/1/145
f 529/1/146 530/1/146 531/1/145
f 532/1/144 533/1/144 534/1/143
f 535/1/144 536/1/144 537/1/147
f 538/1/147 539/1/144 540/1/147
f 541/1/148 542/1/148 543/1/149
f 544/1/149 545/1/149 546/1/148
f 547/1/150 548/1/150 549/1/151
f 550/1/152 551/1/152 552/1/153
f 553/1/151 554/1/151 555/1/150
f 556/1/154 557/1/155 558/1/154
f 559/1/155 560/1/155 561/1/154
f 562/1/153 563/1/153 564/1/152
f 565/1/156 566/1/156 567/1/157
f 568/1/157 569/1/156 570/1/157
f 571/1/158 572/1/157 573/1/157
f 574/1/157 575/1/158 576/1/158
f 577/1/159 578/1/160 579/1/160
f 580/1/160 581/1/159 582/1/159
f 583/1/161 584/1/162 585/1/162
f 586/1/162 587/1/161 588/1/161
f 589/1/15 590/1/161 591/1/161
f 592/1/161 593/1/15 594/1/15
f 595/1/13 596/1/13 597/1/13
f 598/1/13 599/1/13 600/1/13
f 601/1/13 602/1/13 603/1/163
f 604/1/163 605/1/13 606/1/163
f 607/1/163 608/1/164 609/1/165
f 610/1/163 611/1/165 612/1/165
f 613/1/166 614/1/166 615/1/166
f 616/1/166 617/1/166 618/1/166
f 619/1/167 620/1/167 621/1/167
f 622/1/167 623/1/167 624/1/167
f 625/1/168 626/1/168 627/1/168
f 628/1/168 629/1/168 630/1/168
f 631/1/169 632/1/169 633/1/169
f 634/1/169 635/1/169 636/1/169
f 637/1/170 638/1/171 639/1/171
f 640/1/171 641/1/170 642/1/170
f 643/1/15 644/1/170 645/1/170
f 646/1/170 647/1/15 648/1/15
o RenderMesh_18687756555
v 5.244613 10.871377 0.072749
v 5.336238 10.741250 -0.133706
v 5.336791 10.732131 0.154813
v 5.244391 10.875024 -0.042660
v 5.336223 10.676302 -0.106878
v 5.336665 10.669008 0.123938
v 5.266429 10.183551 -0.122317
v 5.266872 10.176256 0.108499
v 5.264199 10.134971 -0.123848
v 5.264641 10.127676 0.106968
v 5.257572 10.087234 -0.125344
v 5.258015 10.079937 0.105472
v 5.167914 10.871456 0.072899
v 5.259540 10.741330 -0.133557
v 5.167692 10.875105 -0.042510
v 5.260094 10.732211 0.154964
v 5.259525 10.676381 -0.106727
v 5.259968 10.669087 0.124087
v 5.189730 10.183631 -0.122167
v 5.190172 10.176336 0.108649
v 5.187499 10.135050 -0.123698
v 5.187943 10.127756 0.107118
v 5.180872 10.087313 -0.125194
v 5.181315 10.080018 0.105622
v 5.187943 10.127756 0.107118
v 5.264641 10.127676 0.106968
v 5.258015 10.079937 0.105472
v 5.190172 10.176336 0.108649
v 5.181315 10.080018 0.105622
v 5.266872 10.176256 0.108499
v 5.257572 10.087234 -0.125344
v 5.259968 10.669087 0.124087
v 5.180872 10.087313 -0.125194
v 5.336665 10.669008 0.123938
v 5.187499 10.135050 -0.123698
v 5.260094 10.732211 0.154964
v 5.264199 10.134971 -0.123848
v 5.336791 10.732131 0.154813
v 5.189730 10.183631 -0.122167
v 5.244613 10.871377 0.072749
v 5.266429 10.183551 -0.122317
v 5.167914 10.871456 0.072899
v 5.259525 10.676381 -0.106727
v 5.167692 10.875105 -0.042510
v 5.336223 10.676302 -0.106878
v 5.244391 10.875024 -0.042660
v 5.336238 10.741250 -0.133706
v 5.259540 10.741330 -0.133557
vn 0.8294 0.5585 0.0161
vn 0.9589 0.2835 0.0071
vn 0.8294 0.5585 0.0160
vn 0.9980 -0.0624 -0.0039
vn 0.9957 -0.0930 -0.0048
vn 0.9958 -0.0916 -0.0048
vn 0.9905 -0.1373 -0.0062
vn -0.8294 -0.5585 -0.0161
vn -0.9589 -0.2835 -0.0071
vn -0.9980 0.0624 0.0039
vn -0.9957 0.0930 0.0048
vn -0.9958 0.0917 0.0048
vn -0.9958 0.0916 0.0048
vn -0.9905 0.1374 0.0062
vn -0.9905 0.1373 0.0062
vn 0.0019 -0.0316 0.9995
vn 0.0007 -0.6999 0.7142
vn 0.0005 -0.7594 0.6506
vn -0.0022 -0.6534 -0.7570
vn 0.0017 -0.2320 0.9727
vn -0.0021 -0.7169 -0.6972
vn 0.0016 -0.2506 0.9681
vn -0.0019 0.0316 -0.9995
vn 0.0021 0.1153 0.9933
vn 0.0019 -0.0666 0.9978
vn 0.0020 0.8185 0.5745
vn 0.0017 0.9106 0.4133
vn -0.0021 -0.1701 -0.9854
vn 0.0003 0.9349 -0.3550
vn -0.0021 -0.1889 -0.9820
vn -0.0001 0.8532 -0.5217
vn -0.0020 -0.0035 -1.0000
vn -0.0017 0.1779 -0.9841
vt 0.000000 0.000000
s 1
usemtl Meshpart5Mtl.004
f 649/2/172 651/2/173 650/2/173
f 650/2/173 652/2/174 649/2/172
f 651/2/173 653/2/175 650/2/173
f 653/2/175 651/2/173 654/2/175
f 653/2/175 654/2/175 655/2/176
f 656/2/176 655/2/176 654/2/175
f 656/2/176 657/2/177 655/2/176
f 657/2/177 656/2/176 658/2/177
f 658/2/177 659/2/178 657/2/177
f 659/2/178 658/2/177 660/2/178
f 661/2/179 663/2/179 662/2/180
f 662/2/180 664/2/180 661/2/179
f 662/2/180 665/2/181 664/2/180
f 665/2/181 666/2/181 664/2/180
f 666/2/181 665/2/181 667/2/182
f 666/2/181 667/2/182 668/2/182
f 668/2/182 667/2/182 669/2/183
f 669/2/183 670/2/184 668/2/182
f 670/2/184 669/2/183 671/2/185
f 672/2/186 670/2/184 671/2/185
f 673/2/187 675/2/188 674/2/187
f 676/2/187 673/2/187 674/2/187
f 673/2/187 677/2/189 675/2/188
f 676/2/187 674/2/187 678/2/187
f 675/2/188 677/2/189 679/2/190
f 678/2/187 680/2/191 676/2/187
f 677/2/189 681/2/192 679/2/190
f 682/2/193 680/2/191 678/2/187
f 679/2/190 681/2/192 683/2/194
f 684/2/195 680/2/191 682/2/193
f 683/2/194 685/2/194 679/2/190
f 684/2/195 682/2/193 686/2/196
f 685/2/194 683/2/194 687/2/194
f 684/2/195 686/2/196 688/2/197
f 687/2/194 689/2/194 685/2/194
f 688/2/197 690/2/198 684/2/195
f 689/2/194 687/2/194 691/2/199
f 690/2/198 688/2/197 692/2/200
f 691/2/199 693/2/201 689/2/194
f 688/2/197 694/2/202 692/2/200
f 691/2/199 695/2/203 693/2/201
f 692/2/200 694/2/202 696/2/204
f 691/2/199 696/2/204 695/2/203
f 695/2/203 696/2/204 694/2/202
