# Blender 5.2.0 LTS
# www.blender.org
mtllib Magaug.mtl
o New_object.004
v 0.261191 0.255247 -0.091217
v -0.073372 0.345704 -0.091217
v -0.073372 0.345704 0.091217
v 0.261191 0.255247 -0.091217
v -0.073372 0.345704 0.091217
v 0.261191 0.255247 0.091217
v -0.286897 -0.224541 -0.109460
v 0.114580 -0.333089 -0.109460
v 0.114580 -0.333089 0.109460
v -0.286897 -0.224541 -0.109460
v 0.114580 -0.333089 0.109460
v -0.286897 -0.224541 0.109460
v -0.286897 -0.224541 -0.109460
v -0.270275 -0.168947 0.109460
v -0.270275 -0.168947 -0.109460
v -0.270275 -0.168947 0.109460
v -0.286897 -0.224541 -0.109460
v -0.286897 -0.224541 0.109460
v 0.261191 0.255247 0.091217
v 0.265465 0.150129 -0.091217
v 0.261191 0.255247 -0.091217
v 0.265465 0.150129 -0.091217
v 0.261191 0.255247 0.091217
v 0.265465 0.150129 0.091217
v 0.265465 0.150129 -0.091217
v 0.265465 0.150129 0.091217
v 0.257928 0.048203 -0.091217
v 0.257928 0.048203 -0.091217
v 0.265465 0.150129 0.091217
v 0.257928 0.048203 0.091217
v 0.257928 0.048203 0.091217
v 0.229211 -0.047997 -0.091217
v 0.257928 0.048203 -0.091217
v 0.229211 -0.047997 -0.091217
v 0.257928 0.048203 0.091217
v 0.229211 -0.047997 0.091217
v 0.229211 -0.047997 0.091217
v 0.179318 -0.138471 -0.091217
v 0.229211 -0.047997 -0.091217
v 0.179318 -0.138471 -0.091217
v 0.229211 -0.047997 0.091217
v 0.179318 -0.138471 0.091217
v 0.179318 -0.138471 -0.091217
v 0.179318 -0.138471 0.091217
v 0.117612 -0.225751 -0.091217
v 0.117612 -0.225751 -0.091217
v 0.179318 -0.138471 0.091217
v 0.117612 -0.225751 0.091217
v 0.131201 -0.277495 0.109460
v 0.117612 -0.225751 -0.091217
v 0.117612 -0.225751 0.091217
v 0.131201 -0.277495 0.109460
v 0.131201 -0.277495 -0.109460
v 0.117612 -0.225751 -0.091217
v 0.114580 -0.333089 0.109460
v 0.114580 -0.333089 -0.109460
v 0.131201 -0.277495 -0.109460
v 0.131201 -0.277495 -0.109460
v 0.131201 -0.277495 0.109460
v 0.114580 -0.333089 0.109460
v -0.073372 0.345704 -0.091217
v -0.069099 0.240585 -0.091217
v -0.069099 0.240585 0.091217
v -0.073372 0.345704 -0.091217
v -0.069099 0.240585 0.091217
v -0.073372 0.345704 0.091217
v -0.069099 0.240585 -0.091217
v -0.076637 0.138659 0.091217
v -0.069099 0.240585 0.091217
v -0.069099 0.240585 -0.091217
v -0.076637 0.138659 -0.091217
v -0.076637 0.138659 0.091217
v -0.076637 0.138659 -0.091217
v -0.105352 0.042460 0.091217
v -0.076637 0.138659 0.091217
v -0.076637 0.138659 -0.091217
v -0.105352 0.042460 -0.091217
v -0.105352 0.042460 0.091217
v -0.105352 0.042460 -0.091217
v -0.155246 -0.048015 0.091217
v -0.105352 0.042460 0.091217
v -0.105352 0.042460 -0.091217
v -0.155246 -0.048015 -0.091217
v -0.155246 -0.048015 0.091217
v -0.155246 -0.048015 -0.091217
v -0.216952 -0.135295 0.091217
v -0.155246 -0.048015 0.091217
v -0.155246 -0.048015 -0.091217
v -0.216952 -0.135295 -0.091217
v -0.216952 -0.135295 0.091217
v -0.270275 -0.168947 -0.109460
v -0.216952 -0.135295 0.091217
v -0.216952 -0.135295 -0.091217
v -0.270275 -0.168947 -0.109460
v -0.270275 -0.168947 0.109460
v -0.216952 -0.135295 0.091217
v 0.114580 -0.333089 -0.109460
v -0.270275 -0.168947 -0.109460
v 0.131201 -0.277495 -0.109460
v -0.270275 -0.168947 -0.109460
v 0.114580 -0.333089 -0.109460
v -0.286897 -0.224541 -0.109460
v 0.114580 -0.333089 0.109460
v -0.270275 -0.168947 0.109460
v -0.286897 -0.224541 0.109460
v -0.270275 -0.168947 0.109460
v 0.114580 -0.333089 0.109460
v 0.131201 -0.277495 0.109460
v 0.261191 0.255247 0.091217
v -0.069099 0.240585 0.091217
v 0.265465 0.150129 0.091217
v -0.069099 0.240585 0.091217
v 0.261191 0.255247 0.091217
v -0.073372 0.345704 0.091217
v -0.076637 0.138659 0.091217
v 0.265465 0.150129 0.091217
v -0.069099 0.240585 0.091217
v 0.265465 0.150129 0.091217
v -0.076637 0.138659 0.091217
v 0.257928 0.048203 0.091217
v -0.105352 0.042460 0.091217
v 0.257928 0.048203 0.091217
v -0.076637 0.138659 0.091217
v 0.257928 0.048203 0.091217
v -0.105352 0.042460 0.091217
v 0.229211 -0.047997 0.091217
v 0.229211 -0.047997 0.091217
v -0.105352 0.042460 0.091217
v 0.179318 -0.138471 0.091217
v -0.155246 -0.048015 0.091217
v 0.179318 -0.138471 0.091217
v -0.105352 0.042460 0.091217
v 0.179318 -0.138471 0.091217
v -0.155246 -0.048015 0.091217
v 0.117612 -0.225751 0.091217
v -0.216952 -0.135295 0.091217
v 0.117612 -0.225751 0.091217
v -0.155246 -0.048015 0.091217
v -0.216952 -0.135295 0.091217
v 0.131201 -0.277495 0.109460
v 0.117612 -0.225751 0.091217
v 0.131201 -0.277495 0.109460
v -0.216952 -0.135295 0.091217
v -0.270275 -0.168947 0.109460
v 0.261191 0.255247 -0.091217
v -0.069099 0.240585 -0.091217
v -0.073372 0.345704 -0.091217
v -0.069099 0.240585 -0.091217
v 0.261191 0.255247 -0.091217
v 0.265465 0.150129 -0.091217
v 0.265465 0.150129 -0.091217
v -0.076637 0.138659 -0.091217
v -0.069099 0.240585 -0.091217
v -0.076637 0.138659 -0.091217
v 0.265465 0.150129 -0.091217
v 0.257928 0.048203 -0.091217
v 0.257928 0.048203 -0.091217
v -0.105352 0.042460 -0.091217
v -0.076637 0.138659 -0.091217
v -0.105352 0.042460 -0.091217
v 0.257928 0.048203 -0.091217
v 0.229211 -0.047997 -0.091217
v 0.179318 -0.138471 -0.091217
v -0.105352 0.042460 -0.091217
v 0.229211 -0.047997 -0.091217
v -0.105352 0.042460 -0.091217
v 0.179318 -0.138471 -0.091217
v -0.155246 -0.048015 -0.091217
v 0.117612 -0.225751 -0.091217
v -0.155246 -0.048015 -0.091217
v 0.179318 -0.138471 -0.091217
v -0.155246 -0.048015 -0.091217
v 0.117612 -0.225751 -0.091217
v -0.216952 -0.135295 -0.091217
v 0.131201 -0.277495 -0.109460
v -0.216952 -0.135295 -0.091217
v 0.117612 -0.225751 -0.091217
v -0.216952 -0.135295 -0.091217
v 0.131201 -0.277495 -0.109460
v -0.270275 -0.168947 -0.109460
vn 0.2610 0.9653 -0.0000
vn -0.2610 -0.9653 -0.0000
vn -0.9581 0.2865 -0.0000
vn 0.9992 0.0406 -0.0000
vn 0.9999 -0.0165 -0.0000
vn 0.9999 -0.0166 -0.0000
vn 0.9835 -0.1810 -0.0000
vn 0.9835 -0.1811 -0.0000
vn 0.9221 -0.3870 -0.0000
vn 0.9220 -0.3872 -0.0000
vn 0.8474 -0.5310 -0.0000
vn 0.8473 -0.5311 -0.0000
vn 0.9901 -0.1401 -0.0000
vn 0.9672 0.2540 -0.0000
vn 0.9902 -0.1400 -0.0000
vn 0.9581 -0.2864 -0.0000
vn -0.9992 -0.0406 -0.0000
vn -0.9999 0.0165 -0.0000
vn -0.9999 0.0166 -0.0000
vn -0.9835 0.1810 -0.0000
vn -0.9835 0.1811 -0.0000
vn -0.9221 0.3870 -0.0000
vn -0.9220 0.3872 -0.0000
vn -0.8474 0.5310 -0.0000
vn -0.8473 0.5311 -0.0000
vn -0.6748 0.7380 -0.0000
vn -0.5337 0.8457 -0.0000
vn -0.6747 0.7381 -0.0000
vn -0.0000 -0.0000 -1.0000
vn -0.0000 -0.0000 1.0000
vn 0.0511 0.1890 0.9807
vn 0.0622 0.2300 0.9712
vn 0.0622 0.2301 0.9712
vn 0.0955 0.3532 0.9307
vn 0.0511 0.1891 0.9806
vn 0.0511 0.1890 -0.9807
vn 0.0622 0.2300 -0.9712
vn 0.0955 0.3532 -0.9307
vn 0.0622 0.2301 -0.9712
vn 0.0512 0.1892 -0.9806
vt 0.000000 0.000000
s 1
f 1/1/1 2/1/1 3/1/1
f 4/1/1 5/1/1 6/1/1
f 7/1/2 8/1/2 9/1/2
f 10/1/2 11/1/2 12/1/2
f 13/1/3 14/1/3 15/1/3
f 16/1/3 17/1/3 18/1/3
f 19/1/4 20/1/5 21/1/4
f 22/1/5 23/1/4 24/1/5
f 25/1/6 26/1/6 27/1/7
f 28/1/7 29/1/6 30/1/7
f 31/1/8 32/1/9 33/1/8
f 34/1/9 35/1/8 36/1/9
f 37/1/10 38/1/11 39/1/10
f 40/1/11 41/1/10 42/1/11
f 43/1/12 44/1/12 45/1/13
f 46/1/13 47/1/12 48/1/13
f 49/1/14 50/1/15 51/1/15
f 52/1/14 53/1/14 54/1/15
f 55/1/16 56/1/16 57/1/16
f 58/1/16 59/1/16 60/1/16
f 61/1/17 62/1/18 63/1/18
f 64/1/17 65/1/18 66/1/17
f 67/1/19 68/1/20 69/1/19
f 70/1/19 71/1/20 72/1/20
f 73/1/21 74/1/22 75/1/21
f 76/1/21 77/1/22 78/1/22
f 79/1/23 80/1/24 81/1/23
f 82/1/23 83/1/24 84/1/24
f 85/1/25 86/1/26 87/1/25
f 88/1/25 89/1/26 90/1/26
f 91/1/27 92/1/28 93/1/28
f 94/1/27 95/1/27 96/1/28
f 97/1/29 98/1/29 99/1/29
f 100/1/29 101/1/29 102/1/29
f 103/1/30 104/1/30 105/1/30
f 106/1/30 107/1/30 108/1/30
f 109/1/30 110/1/30 111/1/30
f 112/1/30 113/1/30 114/1/30
f 115/1/30 116/1/30 117/1/30
f 118/1/30 119/1/30 120/1/30
f 121/1/30 122/1/30 123/1/30
f 124/1/30 125/1/30 126/1/30
f 127/1/30 128/1/30 129/1/30
f 130/1/30 131/1/30 132/1/30
f 133/1/30 134/1/30 135/1/31
f 136/1/32 137/1/31 138/1/30
f 139/1/33 140/1/34 141/1/35
f 142/1/34 143/1/33 144/1/34
f 145/1/29 146/1/29 147/1/29
f 148/1/29 149/1/29 150/1/29
f 151/1/29 152/1/29 153/1/29
f 154/1/29 155/1/29 156/1/29
f 157/1/29 158/1/29 159/1/29
f 160/1/29 161/1/29 162/1/29
f 163/1/29 164/1/29 165/1/29
f 166/1/29 167/1/29 168/1/29
f 169/1/36 170/1/29 171/1/29
f 172/1/29 173/1/36 174/1/37
f 175/1/38 176/1/39 177/1/40
f 178/1/39 179/1/38 180/1/38
o New_object.005
v -0.024613 -0.163441 -0.097339
v -0.024613 -0.163441 0.097339
v -0.054376 -0.155393 -0.097339
v -0.054376 -0.155393 -0.097339
v -0.024613 -0.163441 0.097339
v -0.054376 -0.155393 0.097339
v 0.077398 0.286056 -0.097339
v 0.077398 0.286056 0.097339
v 0.107162 0.278009 -0.097339
v 0.107162 0.278009 -0.097339
v 0.077398 0.286056 0.097339
v 0.107162 0.278009 0.097339
v 0.084795 -0.193021 -0.097339
v 0.084795 -0.193021 0.097339
v 0.055031 -0.184973 -0.097339
v 0.055031 -0.184973 -0.097339
v 0.084795 -0.193021 0.097339
v 0.055031 -0.184973 0.097339
v 0.186805 0.256476 -0.097339
v 0.186805 0.256476 0.097339
v 0.216568 0.248429 -0.097339
v 0.216568 0.248429 -0.097339
v 0.186805 0.256476 0.097339
v 0.216568 0.248429 0.097339
v -0.134020 -0.133859 -0.097339
v -0.134020 -0.133859 0.097339
v -0.163783 -0.125812 -0.097339
v -0.163783 -0.125812 -0.097339
v -0.134020 -0.133859 0.097339
v -0.163783 -0.125812 0.097339
v -0.032010 0.315637 -0.097339
v -0.032010 0.315637 0.097339
v -0.002246 0.307590 -0.097339
v -0.002246 0.307590 -0.097339
v -0.032010 0.315637 0.097339
v -0.002246 0.307590 0.097339
v 0.216568 0.248429 -0.097339
v 0.216568 0.248429 0.097339
v 0.221454 0.158998 -0.097339
v 0.221454 0.158998 -0.097339
v 0.216568 0.248429 0.097339
v 0.221454 0.158998 0.097339
v 0.221454 0.158998 -0.097339
v 0.221454 0.158998 0.097339
v 0.213712 0.060805 -0.097339
v 0.213712 0.060805 -0.097339
v 0.221454 0.158998 0.097339
v 0.213712 0.060805 0.097339
v 0.213712 0.060805 -0.097339
v 0.213712 0.060805 0.097339
v 0.186011 -0.031991 -0.097339
v 0.186011 -0.031991 -0.097339
v 0.213712 0.060805 0.097339
v 0.186011 -0.031991 0.097339
v 0.186011 -0.031991 -0.097339
v 0.186011 -0.031991 0.097339
v 0.138354 -0.119392 -0.097339
v 0.138354 -0.119392 -0.097339
v 0.186011 -0.031991 0.097339
v 0.138354 -0.119392 0.097339
v 0.138354 -0.119392 -0.097339
v 0.138354 -0.119392 0.097339
v 0.084795 -0.193021 -0.097339
v 0.084795 -0.193021 -0.097339
v 0.138354 -0.119392 0.097339
v 0.084795 -0.193021 0.097339
v -0.027123 0.226206 -0.097339
v -0.027123 0.226206 0.097339
v -0.032010 0.315637 -0.097339
v -0.032010 0.315637 -0.097339
v -0.027123 0.226206 0.097339
v -0.032010 0.315637 0.097339
v -0.027123 0.226206 -0.097339
v -0.034867 0.128013 0.097339
v -0.027123 0.226206 0.097339
v -0.034867 0.128013 -0.097339
v -0.034867 0.128013 0.097339
v -0.027123 0.226206 -0.097339
v -0.034867 0.128013 -0.097339
v -0.062566 0.035217 0.097339
v -0.034867 0.128013 0.097339
v -0.062566 0.035217 -0.097339
v -0.062566 0.035217 0.097339
v -0.034867 0.128013 -0.097339
v -0.062566 0.035217 -0.097339
v -0.110224 -0.052184 0.097339
v -0.062566 0.035217 0.097339
v -0.110224 -0.052184 -0.097339
v -0.110224 -0.052184 0.097339
v -0.062566 0.035217 -0.097339
v -0.110224 -0.052184 -0.097339
v -0.163783 -0.125812 0.097339
v -0.110224 -0.052184 0.097339
v -0.163783 -0.125812 -0.097339
v -0.163783 -0.125812 0.097339
v -0.110224 -0.052184 -0.097339
v 0.082284 0.196625 0.097339
v 0.107162 0.278009 0.097339
v 0.077398 0.286056 0.097339
v 0.107162 0.278009 0.097339
v 0.082284 0.196625 0.097339
v 0.112047 0.188578 0.097339
v 0.074541 0.098433 0.097339
v 0.112047 0.188578 0.097339
v 0.082284 0.196625 0.097339
v 0.112047 0.188578 0.097339
v 0.074541 0.098433 0.097339
v 0.104305 0.090386 0.097339
v 0.076604 -0.002411 0.097339
v 0.104305 0.090386 0.097339
v 0.074541 0.098433 0.097339
v 0.074541 0.098433 0.097339
v 0.046841 0.005636 0.097339
v 0.076604 -0.002411 0.097339
v 0.028947 -0.089812 0.097339
v 0.076604 -0.002411 0.097339
v 0.046841 0.005636 0.097339
v 0.046841 0.005636 0.097339
v -0.000816 -0.081765 0.097339
v 0.028947 -0.089812 0.097339
v -0.024613 -0.163441 0.097339
v 0.028947 -0.089812 0.097339
v -0.000816 -0.081765 0.097339
v -0.000816 -0.081765 0.097339
v -0.054376 -0.155393 0.097339
v -0.024613 -0.163441 0.097339
v 0.107162 0.278009 -0.097339
v 0.082284 0.196625 -0.097339
v 0.077398 0.286056 -0.097339
v 0.082284 0.196625 -0.097339
v 0.107162 0.278009 -0.097339
v 0.112047 0.188578 -0.097339
v 0.112047 0.188578 -0.097339
v 0.074541 0.098433 -0.097339
v 0.082284 0.196625 -0.097339
v 0.074541 0.098433 -0.097339
v 0.112047 0.188578 -0.097339
v 0.104305 0.090386 -0.097339
v 0.076604 -0.002411 -0.097339
v 0.074541 0.098433 -0.097339
v 0.104305 0.090386 -0.097339
v 0.074541 0.098433 -0.097339
v 0.076604 -0.002411 -0.097339
v 0.046841 0.005636 -0.097339
v 0.028947 -0.089812 -0.097339
v 0.046841 0.005636 -0.097339
v 0.076604 -0.002411 -0.097339
v 0.046841 0.005636 -0.097339
v 0.028947 -0.089812 -0.097339
v -0.000816 -0.081765 -0.097339
v -0.024613 -0.163441 -0.097339
v -0.000816 -0.081765 -0.097339
v 0.028947 -0.089812 -0.097339
v -0.000816 -0.081765 -0.097339
v -0.024613 -0.163441 -0.097339
v -0.054376 -0.155393 -0.097339
v 0.191691 0.167045 0.097339
v 0.216568 0.248429 0.097339
v 0.186805 0.256476 0.097339
v 0.216568 0.248429 0.097339
v 0.191691 0.167045 0.097339
v 0.221454 0.158998 0.097339
v 0.183948 0.068852 0.097339
v 0.221454 0.158998 0.097339
v 0.191691 0.167045 0.097339
v 0.221454 0.158998 0.097339
v 0.183948 0.068852 0.097339
v 0.213712 0.060805 0.097339
v 0.186011 -0.031991 0.097339
v 0.213712 0.060805 0.097339
v 0.183948 0.068852 0.097339
v 0.183948 0.068852 0.097339
v 0.156248 -0.023944 0.097339
v 0.186011 -0.031991 0.097339
v 0.138354 -0.119392 0.097339
v 0.186011 -0.031991 0.097339
v 0.156248 -0.023944 0.097339
v 0.156248 -0.023944 0.097339
v 0.108591 -0.111345 0.097339
v 0.138354 -0.119392 0.097339
v 0.084795 -0.193021 0.097339
v 0.138354 -0.119392 0.097339
v 0.108591 -0.111345 0.097339
v 0.108591 -0.111345 0.097339
v 0.055031 -0.184973 0.097339
v 0.084795 -0.193021 0.097339
v 0.216568 0.248429 -0.097339
v 0.191691 0.167045 -0.097339
v 0.186805 0.256476 -0.097339
v 0.191691 0.167045 -0.097339
v 0.216568 0.248429 -0.097339
v 0.221454 0.158998 -0.097339
v 0.221454 0.158998 -0.097339
v 0.183948 0.068852 -0.097339
v 0.191691 0.167045 -0.097339
v 0.183948 0.068852 -0.097339
v 0.221454 0.158998 -0.097339
v 0.213712 0.060805 -0.097339
v 0.186011 -0.031991 -0.097339
v 0.183948 0.068852 -0.097339
v 0.213712 0.060805 -0.097339
v 0.183948 0.068852 -0.097339
v 0.186011 -0.031991 -0.097339
v 0.156248 -0.023944 -0.097339
v 0.138354 -0.119392 -0.097339
v 0.156248 -0.023944 -0.097339
v 0.186011 -0.031991 -0.097339
v 0.156248 -0.023944 -0.097339
v 0.138354 -0.119392 -0.097339
v 0.108591 -0.111345 -0.097339
v 0.084795 -0.193021 -0.097339
v 0.108591 -0.111345 -0.097339
v 0.138354 -0.119392 -0.097339
v 0.108591 -0.111345 -0.097339
v 0.084795 -0.193021 -0.097339
v 0.055031 -0.184973 -0.097339
v -0.027123 0.226206 0.097339
v -0.002246 0.307590 0.097339
v -0.032010 0.315637 0.097339
v -0.002246 0.307590 0.097339
v -0.027123 0.226206 0.097339
v 0.002640 0.218159 0.097339
v -0.034867 0.128013 0.097339
v 0.002640 0.218159 0.097339
v -0.027123 0.226206 0.097339
v 0.002640 0.218159 0.097339
v -0.034867 0.128013 0.097339
v -0.005102 0.119966 0.097339
v -0.032802 0.027170 0.097339
v -0.005102 0.119966 0.097339
v -0.034867 0.128013 0.097339
v -0.034867 0.128013 0.097339
v -0.062566 0.035217 0.097339
v -0.032802 0.027170 0.097339
v -0.080460 -0.060231 0.097339
v -0.032802 0.027170 0.097339
v -0.062566 0.035217 0.097339
v -0.062566 0.035217 0.097339
v -0.110224 -0.052184 0.097339
v -0.080460 -0.060231 0.097339
v -0.134020 -0.133859 0.097339
v -0.080460 -0.060231 0.097339
v -0.110224 -0.052184 0.097339
v -0.110224 -0.052184 0.097339
v -0.163783 -0.125812 0.097339
v -0.134020 -0.133859 0.097339
v -0.002246 0.307590 -0.097339
v -0.027123 0.226206 -0.097339
v -0.032010 0.315637 -0.097339
v -0.027123 0.226206 -0.097339
v -0.002246 0.307590 -0.097339
v 0.002640 0.218159 -0.097339
v 0.002640 0.218159 -0.097339
v -0.034867 0.128013 -0.097339
v -0.027123 0.226206 -0.097339
v -0.034867 0.128013 -0.097339
v 0.002640 0.218159 -0.097339
v -0.005102 0.119966 -0.097339
v -0.032802 0.027170 -0.097339
v -0.034867 0.128013 -0.097339
v -0.005102 0.119966 -0.097339
v -0.034867 0.128013 -0.097339
v -0.032802 0.027170 -0.097339
v -0.062566 0.035217 -0.097339
v -0.080460 -0.060231 -0.097339
v -0.062566 0.035217 -0.097339
v -0.032802 0.027170 -0.097339
v -0.062566 0.035217 -0.097339
v -0.080460 -0.060231 -0.097339
v -0.110224 -0.052184 -0.097339
v -0.134020 -0.133859 -0.097339
v -0.110224 -0.052184 -0.097339
v -0.080460 -0.060231 -0.097339
v -0.110224 -0.052184 -0.097339
v -0.134020 -0.133859 -0.097339
v -0.163783 -0.125812 -0.097339
v 0.107162 0.278009 -0.097339
v 0.107162 0.278009 0.097339
v 0.112047 0.188578 -0.097339
v 0.112047 0.188578 -0.097339
v 0.107162 0.278009 0.097339
v 0.112047 0.188578 0.097339
v 0.112047 0.188578 0.097339
v 0.104305 0.090386 -0.097339
v 0.112047 0.188578 -0.097339
v 0.104305 0.090386 -0.097339
v 0.112047 0.188578 0.097339
v 0.104305 0.090386 0.097339
v 0.104305 0.090386 -0.097339
v 0.104305 0.090386 0.097339
v 0.076604 -0.002411 -0.097339
v 0.076604 -0.002411 -0.097339
v 0.104305 0.090386 0.097339
v 0.076604 -0.002411 0.097339
v 0.076604 -0.002411 -0.097339
v 0.076604 -0.002411 0.097339
v 0.028947 -0.089812 -0.097339
v 0.028947 -0.089812 -0.097339
v 0.076604 -0.002411 0.097339
v 0.028947 -0.089812 0.097339
v 0.028947 -0.089812 0.097339
v -0.024613 -0.163441 -0.097339
v 0.028947 -0.089812 -0.097339
v -0.024613 -0.163441 -0.097339
v 0.028947 -0.089812 0.097339
v -0.024613 -0.163441 0.097339
v 0.082284 0.196625 -0.097339
v 0.082284 0.196625 0.097339
v 0.077398 0.286056 -0.097339
v 0.077398 0.286056 -0.097339
v 0.082284 0.196625 0.097339
v 0.077398 0.286056 0.097339
v 0.082284 0.196625 -0.097339
v 0.074541 0.098433 0.097339
v 0.082284 0.196625 0.097339
v 0.074541 0.098433 -0.097339
v 0.074541 0.098433 0.097339
v 0.082284 0.196625 -0.097339
v 0.074541 0.098433 -0.097339
v 0.046841 0.005636 0.097339
v 0.074541 0.098433 0.097339
v 0.046841 0.005636 -0.097339
v 0.046841 0.005636 0.097339
v 0.074541 0.098433 -0.097339
v 0.046841 0.005636 -0.097339
v -0.000816 -0.081765 0.097339
v 0.046841 0.005636 0.097339
v -0.000816 -0.081765 -0.097339
v -0.000816 -0.081765 0.097339
v 0.046841 0.005636 -0.097339
v -0.000816 -0.081765 -0.097339
v -0.054376 -0.155393 0.097339
v -0.000816 -0.081765 0.097339
v -0.054376 -0.155393 -0.097339
v -0.054376 -0.155393 0.097339
v -0.000816 -0.081765 -0.097339
v -0.002246 0.307590 0.097339
v 0.002640 0.218159 -0.097339
v -0.002246 0.307590 -0.097339
v 0.002640 0.218159 -0.097339
v -0.002246 0.307590 0.097339
v 0.002640 0.218159 0.097339
v 0.002640 0.218159 -0.097339
v 0.002640 0.218159 0.097339
v -0.005102 0.119966 -0.097339
v -0.005102 0.119966 -0.097339
v 0.002640 0.218159 0.097339
v -0.005102 0.119966 0.097339
v -0.005102 0.119966 -0.097339
v -0.005102 0.119966 0.097339
v -0.032802 0.027170 -0.097339
v -0.032802 0.027170 -0.097339
v -0.005102 0.119966 0.097339
v -0.032802 0.027170 0.097339
v -0.032802 0.027170 -0.097339
v -0.032802 0.027170 0.097339
v -0.080460 -0.060231 -0.097339
v -0.080460 -0.060231 -0.097339
v -0.032802 0.027170 0.097339
v -0.080460 -0.060231 0.097339
v -0.080460 -0.060231 -0.097339
v -0.080460 -0.060231 0.097339
v -0.134020 -0.133859 -0.097339
v -0.134020 -0.133859 -0.097339
v -0.080460 -0.060231 0.097339
v -0.134020 -0.133859 0.097339
v 0.191691 0.167045 -0.097339
v 0.191691 0.167045 0.097339
v 0.186805 0.256476 -0.097339
v 0.186805 0.256476 -0.097339
v 0.191691 0.167045 0.097339
v 0.186805 0.256476 0.097339
v 0.191691 0.167045 -0.097339
v 0.183948 0.068852 0.097339
v 0.191691 0.167045 0.097339
v 0.183948 0.068852 -0.097339
v 0.183948 0.068852 0.097339
v 0.191691 0.167045 -0.097339
v 0.183948 0.068852 -0.097339
v 0.156248 -0.023944 0.097339
v 0.183948 0.068852 0.097339
v 0.156248 -0.023944 -0.097339
v 0.156248 -0.023944 0.097339
v 0.183948 0.068852 -0.097339
v 0.156248 -0.023944 -0.097339
v 0.108591 -0.111345 0.097339
v 0.156248 -0.023944 0.097339
v 0.108591 -0.111345 -0.097339
v 0.108591 -0.111345 0.097339
v 0.156248 -0.023944 -0.097339
v 0.108591 -0.111345 -0.097339
v 0.055031 -0.184973 0.097339
v 0.108591 -0.111345 0.097339
v 0.055031 -0.184973 -0.097339
v 0.055031 -0.184973 0.097339
v 0.108591 -0.111345 -0.097339
vn -0.2610 -0.9653 -0.0000
vn 0.2610 0.9653 -0.0000
vn 0.9985 0.0546 -0.0000
vn 0.9999 -0.0119 -0.0000
vn 0.9999 -0.0120 -0.0000
vn 0.9830 -0.1834 -0.0000
vn 0.9230 -0.3849 -0.0000
vn 0.9229 -0.3850 -0.0000
vn 0.8450 -0.5348 -0.0000
vn 0.8449 -0.5349 -0.0000
vn 0.8087 -0.5882 -0.0000
vn -0.9999 0.0119 -0.0000
vn -0.9985 -0.0546 -0.0000
vn -0.9830 0.1834 -0.0000
vn -0.9230 0.3849 -0.0000
vn -0.9830 0.1835 -0.0000
vn -0.9229 0.3850 -0.0000
vn -0.8450 0.5348 -0.0000
vn -0.8449 0.5349 -0.0000
vn -0.8087 0.5883 -0.0000
vn -0.0000 -0.0000 1.0000
vn -0.0000 -0.0000 -1.0000
vn 0.9985 0.0545 -0.0000
vn 0.8087 -0.5883 -0.0000
vn -0.9999 0.0120 -0.0000
vt 0.000000 0.000000
s 1
f 181/2/41 182/2/41 183/2/41
f 184/2/41 185/2/41 186/2/41
f 187/2/42 188/2/42 189/2/42
f 190/2/42 191/2/42 192/2/42
f 193/2/41 194/2/41 195/2/41
f 196/2/41 197/2/41 198/2/41
f 199/2/42 200/2/42 201/2/42
f 202/2/42 203/2/42 204/2/42
f 205/2/41 206/2/41 207/2/41
f 208/2/41 209/2/41 210/2/41
f 211/2/42 212/2/42 213/2/42
f 214/2/42 215/2/42 216/2/42
f 217/2/43 218/2/43 219/2/44
f 220/2/44 221/2/43 222/2/44
f 223/2/45 224/2/45 225/2/46
f 226/2/46 227/2/45 228/2/46
f 229/2/46 230/2/46 231/2/47
f 232/2/47 233/2/46 234/2/47
f 235/2/48 236/2/48 237/2/49
f 238/2/49 239/2/48 240/2/49
f 241/2/50 242/2/50 243/2/51
f 244/2/51 245/2/50 246/2/51
f 247/2/52 248/2/52 249/2/53
f 250/2/53 251/2/52 252/2/53
f 253/2/52 254/2/54 255/2/52
f 256/2/54 257/2/54 258/2/52
f 259/2/54 260/2/55 261/2/54
f 262/2/55 263/2/55 264/2/56
f 265/2/57 266/2/58 267/2/57
f 268/2/58 269/2/58 270/2/57
f 271/2/59 272/2/60 273/2/59
f 274/2/60 275/2/60 276/2/59
f 277/2/61 278/2/61 279/2/61
f 280/2/61 281/2/61 282/2/61
f 283/2/61 284/2/61 285/2/61
f 286/2/61 287/2/61 288/2/61
f 289/2/61 290/2/61 291/2/61
f 292/2/61 293/2/61 294/2/61
f 295/2/61 296/2/61 297/2/61
f 298/2/61 299/2/61 300/2/61
f 301/2/61 302/2/61 303/2/61
f 304/2/61 305/2/61 306/2/61
f 307/2/62 308/2/62 309/2/62
f 310/2/62 311/2/62 312/2/62
f 313/2/62 314/2/62 315/2/62
f 316/2/62 317/2/62 318/2/62
f 319/2/62 320/2/62 321/2/62
f 322/2/62 323/2/62 324/2/62
f 325/2/62 326/2/62 327/2/62
f 328/2/62 329/2/62 330/2/62
f 331/2/62 332/2/62 333/2/62
f 334/2/62 335/2/62 336/2/62
f 337/2/61 338/2/61 339/2/61
f 340/2/61 341/2/61 342/2/61
f 343/2/61 344/2/61 345/2/61
f 346/2/61 347/2/61 348/2/61
f 349/2/61 350/2/61 351/2/61
f 352/2/61 353/2/61 354/2/61
f 355/2/61 356/2/61 357/2/61
f 358/2/61 359/2/61 360/2/61
f 361/2/61 362/2/61 363/2/61
f 364/2/61 365/2/61 366/2/61
f 367/2/62 368/2/62 369/2/62
f 370/2/62 371/2/62 372/2/62
f 373/2/62 374/2/62 375/2/62
f 376/2/62 377/2/62 378/2/62
f 379/2/62 380/2/62 381/2/62
f 382/2/62 383/2/62 384/2/62
f 385/2/62 386/2/62 387/2/62
f 388/2/62 389/2/62 390/2/62
f 391/2/62 392/2/62 393/2/62
f 394/2/62 395/2/62 396/2/62
f 397/2/61 398/2/61 399/2/61
f 400/2/61 401/2/61 402/2/61
f 403/2/61 404/2/61 405/2/61
f 406/2/61 407/2/61 408/2/61
f 409/2/61 410/2/61 411/2/61
f 412/2/61 413/2/61 414/2/61
f 415/2/61 416/2/61 417/2/61
f 418/2/61 419/2/61 420/2/61
f 421/2/61 422/2/61 423/2/61
f 424/2/61 425/2/61 426/2/61
f 427/2/62 428/2/62 429/2/62
f 430/2/62 431/2/62 432/2/62
f 433/2/62 434/2/62 435/2/62
f 436/2/62 437/2/62 438/2/62
f 439/2/62 440/2/62 441/2/62
f 442/2/62 443/2/62 444/2/62
f 445/2/62 446/2/62 447/2/62
f 448/2/62 449/2/62 450/2/62
f 451/2/62 452/2/62 453/2/62
f 454/2/62 455/2/62 456/2/62
f 457/2/63 458/2/63 459/2/44
f 460/2/44 461/2/63 462/2/44
f 463/2/45 464/2/46 465/2/45
f 466/2/46 467/2/45 468/2/46
f 469/2/46 470/2/46 471/2/47
f 472/2/47 473/2/46 474/2/47
f 475/2/48 476/2/48 477/2/49
f 478/2/49 479/2/48 480/2/49
f 481/2/50 482/2/64 483/2/50
f 484/2/64 485/2/50 486/2/64
f 487/2/52 488/2/52 489/2/53
f 490/2/53 491/2/52 492/2/53
f 493/2/65 494/2/54 495/2/65
f 496/2/54 497/2/54 498/2/65
f 499/2/54 500/2/55 501/2/54
f 502/2/55 503/2/55 504/2/54
f 505/2/57 506/2/58 507/2/57
f 508/2/58 509/2/58 510/2/57
f 511/2/59 512/2/60 513/2/59
f 514/2/60 515/2/60 516/2/59
f 517/2/43 518/2/45 519/2/43
f 520/2/45 521/2/43 522/2/45
f 523/2/45 524/2/45 525/2/46
f 526/2/46 527/2/45 528/2/46
f 529/2/46 530/2/46 531/2/47
f 532/2/47 533/2/46 534/2/47
f 535/2/48 536/2/48 537/2/49
f 538/2/49 539/2/48 540/2/49
f 541/2/50 542/2/50 543/2/64
f 544/2/64 545/2/50 546/2/64
f 547/2/52 548/2/52 549/2/53
f 550/2/53 551/2/52 552/2/53
f 553/2/65 554/2/54 555/2/65
f 556/2/54 557/2/54 558/2/65
f 559/2/54 560/2/55 561/2/54
f 562/2/55 563/2/55 564/2/54
f 565/2/57 566/2/58 567/2/57
f 568/2/58 569/2/58 570/2/57
f 571/2/59 572/2/60 573/2/59
f 574/2/60 575/2/60 576/2/59
