# Blender 5.2.0 LTS
# www.blender.org
mtllib sideaug.mtl
o New_object
v 1.113344 0.099691 -0.101943
v 1.113344 0.011661 0.155306
v 1.113344 0.011661 -0.155306
v 1.113344 0.011661 0.155306
v 1.113344 0.099691 -0.101943
v 1.113344 0.099691 0.101943
v 0.727246 -0.124299 -0.143570
v 0.727246 -0.124299 0.143570
v 0.727246 -0.212329 -0.143570
v 0.727246 -0.212329 -0.143570
v 0.727246 -0.124299 0.143570
v 0.727246 -0.212329 0.143570
v -0.932952 -0.071405 0.013445
v -0.932952 0.016625 0.103655
v -0.932952 0.016625 0.013445
v -0.932952 0.016625 0.103655
v -0.932952 -0.071405 0.013445
v -0.932952 -0.071405 0.110736
v -0.932952 0.016625 0.103655
v -0.932952 -0.071405 0.110736
v -0.932952 -0.027389 0.125269
v -0.805107 0.125672 -0.077175
v -0.785587 0.156483 0.061165
v -0.785587 0.156483 -0.061165
v -0.785587 0.156483 0.061165
v -0.805107 0.125672 -0.077175
v -0.805107 0.125672 0.077175
v -0.785587 0.094863 -0.093183
v -0.785587 0.094863 0.093183
v -0.805107 0.125672 -0.077175
v -0.805107 0.125672 -0.077175
v -0.785587 0.094863 0.093183
v -0.805107 0.125672 0.077175
v -0.545209 0.125672 -0.077175
v -0.525689 0.156483 0.061165
v -0.525689 0.156483 -0.061165
v -0.525689 0.156483 0.061165
v -0.545209 0.125672 -0.077175
v -0.545209 0.125672 0.077175
v -0.525689 0.094863 -0.093183
v -0.525689 0.094863 0.093183
v -0.545209 0.125672 -0.077175
v -0.545209 0.125672 -0.077175
v -0.525689 0.094863 0.093183
v -0.545209 0.125672 0.077175
v 0.499993 -0.212329 -0.143570
v 0.727246 -0.212329 -0.143570
v 0.727246 -0.212329 0.143570
v 0.499993 -0.212329 -0.143570
v 0.727246 -0.212329 0.143570
v 0.499993 -0.212329 0.143570
v 0.727246 -0.124299 -0.143570
v 0.499993 -0.212329 -0.143570
v 0.499993 -0.124299 -0.143570
v 0.499993 -0.212329 -0.143570
v 0.727246 -0.124299 -0.143570
v 0.727246 -0.212329 -0.143570
v 1.113344 0.099691 -0.101943
v 0.615171 0.011661 -0.155306
v 0.615171 0.099691 -0.101943
v 0.615171 0.011661 -0.155306
v 1.113344 0.099691 -0.101943
v 1.113344 0.011661 -0.155306
v 0.727246 -0.124299 0.143570
v 0.499993 -0.124299 0.143570
v 0.727246 -0.212329 0.143570
v 0.499993 -0.212329 0.143570
v 0.727246 -0.212329 0.143570
v 0.499993 -0.124299 0.143570
v -0.525689 0.156483 -0.061165
v -0.525689 0.094863 -0.093183
v -0.545209 0.125672 -0.077175
v -0.525689 0.094863 -0.093183
v -0.525689 0.156483 -0.061165
v -0.330490 0.094863 -0.093183
v -0.525689 0.156483 -0.061165
v -0.330490 0.156483 -0.061165
v -0.330490 0.094863 -0.093183
v -0.330490 0.094863 -0.093183
v -0.330490 0.156483 -0.061165
v -0.310970 0.125672 -0.077175
v -0.785587 0.156483 -0.061165
v -0.785587 0.094863 -0.093183
v -0.805107 0.125672 -0.077175
v -0.785587 0.094863 -0.093183
v -0.785587 0.156483 -0.061165
v -0.590387 0.094863 -0.093183
v -0.785587 0.156483 -0.061165
v -0.590387 0.156483 -0.061165
v -0.590387 0.094863 -0.093183
v -0.590387 0.094863 -0.093183
v -0.590387 0.156483 -0.061165
v -0.570868 0.125672 -0.077175
v -0.330490 0.156483 -0.061165
v -0.525689 0.156483 -0.061165
v -0.525689 0.156483 0.061165
v -0.330490 0.156483 -0.061165
v -0.525689 0.156483 0.061165
v -0.330490 0.156483 0.061165
v -0.590387 0.156483 -0.061165
v -0.785587 0.156483 -0.061165
v -0.785587 0.156483 0.061165
v -0.590387 0.156483 -0.061165
v -0.785587 0.156483 0.061165
v -0.590387 0.156483 0.061165
v -0.047747 0.016625 0.013445
v -0.047747 0.016625 0.103655
v -0.047747 -0.071405 0.013445
v -0.047747 0.016625 0.103655
v -0.047747 -0.071405 0.110736
v -0.047747 -0.071405 0.013445
v -0.047747 -0.071405 0.110736
v -0.047747 0.016625 0.103655
v -0.047747 -0.027389 0.125269
v -0.932952 -0.071405 0.013445
v -0.047747 -0.071405 0.013445
v -0.047747 -0.071405 0.110736
v -0.932952 -0.071405 0.013445
v -0.047747 -0.071405 0.110736
v -0.932952 -0.071405 0.110736
v 1.113344 0.099691 0.101943
v 0.615171 0.099691 0.101943
v 1.113344 0.011661 0.155306
v 0.615171 0.011661 0.155306
v 1.113344 0.011661 0.155306
v 0.615171 0.099691 0.101943
v -0.525689 0.094863 0.093183
v -0.330490 0.156483 0.061165
v -0.525689 0.156483 0.061165
v -0.525689 0.094863 0.093183
v -0.525689 0.156483 0.061165
v -0.545209 0.125672 0.077175
v -0.330490 0.094863 0.093183
v -0.330490 0.156483 0.061165
v -0.525689 0.094863 0.093183
v -0.330490 0.156483 0.061165
v -0.330490 0.094863 0.093183
v -0.310970 0.125672 0.077175
v -0.785587 0.094863 0.093183
v -0.590387 0.156483 0.061165
v -0.785587 0.156483 0.061165
v -0.785587 0.094863 0.093183
v -0.785587 0.156483 0.061165
v -0.805107 0.125672 0.077175
v -0.590387 0.094863 0.093183
v -0.590387 0.156483 0.061165
v -0.785587 0.094863 0.093183
v -0.590387 0.156483 0.061165
v -0.590387 0.094863 0.093183
v -0.570868 0.125672 0.077175
v -0.047747 0.016625 0.103655
v -0.932952 0.016625 0.103655
v -0.047747 -0.027389 0.125269
v -0.932952 -0.027389 0.125269
v -0.047747 -0.027389 0.125269
v -0.932952 0.016625 0.103655
v -0.047747 -0.027389 0.125269
v -0.932952 -0.027389 0.125269
v -0.047747 -0.071405 0.110736
v -0.932952 -0.071405 0.110736
v -0.047747 -0.071405 0.110736
v -0.932952 -0.027389 0.125269
v 1.113344 0.099691 -0.101943
v 0.615171 0.099691 -0.101943
v 0.615171 0.099691 0.101943
v 1.113344 0.099691 -0.101943
v 0.615171 0.099691 0.101943
v 1.113344 0.099691 0.101943
v 0.615171 0.011661 -0.155306
v 1.113344 0.011661 -0.155306
v 1.113344 0.011661 0.155306
v 0.615171 0.011661 -0.155306
v 1.113344 0.011661 0.155306
v 0.615171 0.011661 0.155306
v -0.047747 0.016625 0.013445
v -0.932952 -0.071405 0.013445
v -0.932952 0.016625 0.013445
v -0.932952 -0.071405 0.013445
v -0.047747 0.016625 0.013445
v -0.047747 -0.071405 0.013445
v -0.047747 0.016625 0.013445
v -0.932952 0.016625 0.013445
v -0.932952 0.016625 0.103655
v -0.047747 0.016625 0.013445
v -0.932952 0.016625 0.103655
v -0.047747 0.016625 0.103655
v -0.525689 0.094863 -0.093183
v -0.330490 0.094863 -0.093183
v -0.330490 0.094863 0.093183
v -0.525689 0.094863 -0.093183
v -0.330490 0.094863 0.093183
v -0.525689 0.094863 0.093183
v -0.785587 0.094863 -0.093183
v -0.590387 0.094863 -0.093183
v -0.590387 0.094863 0.093183
v -0.785587 0.094863 -0.093183
v -0.590387 0.094863 0.093183
v -0.785587 0.094863 0.093183
v -0.330490 0.156483 0.061165
v -0.310970 0.125672 -0.077175
v -0.330490 0.156483 -0.061165
v -0.310970 0.125672 0.077175
v -0.310970 0.125672 -0.077175
v -0.330490 0.156483 0.061165
v 0.727246 -0.124299 -0.143570
v 0.499993 -0.124299 -0.143570
v 0.499993 -0.124299 0.143570
v 0.727246 -0.124299 -0.143570
v 0.499993 -0.124299 0.143570
v 0.727246 -0.124299 0.143570
v -0.310970 0.125672 -0.077175
v -0.330490 0.094863 0.093183
v -0.330490 0.094863 -0.093183
v -0.330490 0.094863 0.093183
v -0.310970 0.125672 -0.077175
v -0.310970 0.125672 0.077175
v -0.590387 0.156483 0.061165
v -0.570868 0.125672 -0.077175
v -0.590387 0.156483 -0.061165
v -0.570868 0.125672 0.077175
v -0.570868 0.125672 -0.077175
v -0.590387 0.156483 0.061165
v -0.570868 0.125672 -0.077175
v -0.590387 0.094863 0.093183
v -0.590387 0.094863 -0.093183
v -0.590387 0.094863 0.093183
v -0.570868 0.125672 -0.077175
v -0.570868 0.125672 0.077175
v 0.499993 -0.212329 -0.143570
v 0.499993 -0.212329 0.143570
v 0.499993 -0.124299 -0.143570
v 0.499993 -0.124299 -0.143570
v 0.499993 -0.212329 0.143570
v 0.499993 -0.124299 0.143570
v 0.615171 0.011661 -0.155306
v 0.615171 0.099691 0.101943
v 0.615171 0.099691 -0.101943
v 0.615171 0.099691 0.101943
v 0.615171 0.011661 -0.155306
v 0.615171 0.011661 0.155306
vn 1.0000 -0.0000 -0.0000
vn -1.0000 -0.0000 -0.0000
vn -0.8447 0.5352 -0.0000
vn -0.8447 -0.5352 -0.0000
vn -0.0000 -1.0000 -0.0000
vn -0.0000 -0.0000 -1.0000
vn -0.0000 0.5184 -0.8551
vn -0.0000 -0.0000 1.0000
vn -0.0000 0.4611 -0.8874
vn -0.0000 1.0000 -0.0000
vn -0.0000 0.5184 0.8551
vn -0.0000 0.4611 0.8874
vn -0.0000 0.4408 0.8976
vn -0.0000 0.0799 0.9968
vn -0.0000 -0.3135 0.9496
vn 0.8447 0.5352 -0.0000
vn 0.8447 -0.5352 -0.0000
vn 0.8448 0.5352 -0.0000
vt 0.000000 0.000000
s 1
usemtl Meshpart5Mtl.004
f 1/1/1 2/1/1 3/1/1
f 4/1/1 5/1/1 6/1/1
f 7/1/1 8/1/1 9/1/1
f 10/1/1 11/1/1 12/1/1
f 13/1/2 14/1/2 15/1/2
f 16/1/2 17/1/2 18/1/2
f 19/1/2 20/1/2 21/1/2
f 22/1/3 23/1/3 24/1/3
f 25/1/3 26/1/3 27/1/3
f 28/1/4 29/1/4 30/1/4
f 31/1/4 32/1/4 33/1/4
f 34/1/3 35/1/3 36/1/3
f 37/1/3 38/1/3 39/1/3
f 40/1/4 41/1/4 42/1/4
f 43/1/4 44/1/4 45/1/4
f 46/1/5 47/1/5 48/1/5
f 49/1/5 50/1/5 51/1/5
f 52/1/6 53/1/6 54/1/6
f 55/1/6 56/1/6 57/1/6
f 58/1/7 59/1/7 60/1/7
f 61/1/7 62/1/7 63/1/7
f 64/1/8 65/1/8 66/1/8
f 67/1/8 68/1/8 69/1/8
f 70/1/9 71/1/9 72/1/9
f 73/1/9 74/1/9 75/1/9
f 76/1/9 77/1/9 78/1/9
f 79/1/9 80/1/9 81/1/9
f 82/1/9 83/1/9 84/1/9
f 85/1/9 86/1/9 87/1/9
f 88/1/9 89/1/9 90/1/9
f 91/1/9 92/1/9 93/1/9
f 94/1/10 95/1/10 96/1/10
f 97/1/10 98/1/10 99/1/10
f 100/1/10 101/1/10 102/1/10
f 103/1/10 104/1/10 105/1/10
f 106/1/1 107/1/1 108/1/1
f 109/1/1 110/1/1 111/1/1
f 112/1/1 113/1/1 114/1/1
f 115/1/5 116/1/5 117/1/5
f 118/1/5 119/1/5 120/1/5
f 121/1/11 122/1/11 123/1/11
f 124/1/11 125/1/11 126/1/11
f 127/1/12 128/1/12 129/1/12
f 130/1/12 131/1/12 132/1/12
f 133/1/12 134/1/12 135/1/12
f 136/1/12 137/1/12 138/1/12
f 139/1/12 140/1/12 141/1/12
f 142/1/12 143/1/12 144/1/12
f 145/1/12 146/1/12 147/1/12
f 148/1/12 149/1/12 150/1/12
f 151/1/13 152/1/13 153/1/14
f 154/1/14 155/1/14 156/1/13
f 157/1/14 158/1/14 159/1/15
f 160/1/15 161/1/15 162/1/14
f 163/1/10 164/1/10 165/1/10
f 166/1/10 167/1/10 168/1/10
f 169/1/5 170/1/5 171/1/5
f 172/1/5 173/1/5 174/1/5
f 175/1/6 176/1/6 177/1/6
f 178/1/6 179/1/6 180/1/6
f 181/1/10 182/1/10 183/1/10
f 184/1/10 185/1/10 186/1/10
f 187/1/5 188/1/5 189/1/5
f 190/1/5 191/1/5 192/1/5
f 193/1/5 194/1/5 195/1/5
f 196/1/5 197/1/5 198/1/5
f 199/1/16 200/1/16 201/1/16
f 202/1/16 203/1/16 204/1/16
f 205/1/10 206/1/10 207/1/10
f 208/1/10 209/1/10 210/1/10
f 211/1/17 212/1/17 213/1/17
f 214/1/17 215/1/17 216/1/17
f 217/1/18 218/1/18 219/1/18
f 220/1/18 221/1/18 222/1/18
f 223/1/17 224/1/17 225/1/17
f 226/1/17 227/1/17 228/1/17
f 229/1/2 230/1/2 231/1/2
f 232/1/2 233/1/2 234/1/2
f 235/1/2 236/1/2 237/1/2
f 238/1/2 239/1/2 240/1/2
o New_object.002
v 1.623486 -0.158669 -0.141126
v 1.649270 -0.147080 0.141126
v 1.649270 -0.147080 -0.141126
v 1.675054 -0.158669 0.141126
v 1.649270 -0.147080 -0.141126
v 1.649270 -0.147080 0.141126
v 1.649270 -0.147080 0.141126
v 1.623486 -0.158669 -0.141126
v 1.623486 -0.158669 0.141126
v 1.649270 -0.147080 -0.141126
v 1.675054 -0.158669 0.141126
v 1.675054 -0.158669 -0.141126
v 1.612805 -0.186649 -0.141126
v 1.623486 -0.158669 0.141126
v 1.623486 -0.158669 -0.141126
v 1.685735 -0.186649 0.141126
v 1.675054 -0.158669 -0.141126
v 1.675054 -0.158669 0.141126
v 1.623486 -0.158669 0.141126
v 1.612805 -0.186649 -0.141126
v 1.612805 -0.186649 0.141126
v 1.675054 -0.158669 -0.141126
v 1.685735 -0.186649 0.141126
v 1.685735 -0.186649 -0.141126
v 1.623486 -0.214629 -0.141126
v 1.612805 -0.186649 0.141126
v 1.612805 -0.186649 -0.141126
v 1.675054 -0.214629 0.141126
v 1.685735 -0.186649 -0.141126
v 1.685735 -0.186649 0.141126
v 1.612805 -0.186649 0.141126
v 1.623486 -0.214629 -0.141126
v 1.623486 -0.214629 0.141126
v 1.685735 -0.186649 -0.141126
v 1.675054 -0.214629 0.141126
v 1.675054 -0.214629 -0.141126
v 1.649270 -0.226219 -0.141126
v 1.623486 -0.214629 0.141126
v 1.623486 -0.214629 -0.141126
v 1.649270 -0.226219 0.141126
v 1.675054 -0.214629 -0.141126
v 1.675054 -0.214629 0.141126
v 1.623486 -0.214629 0.141126
v 1.649270 -0.226219 -0.141126
v 1.649270 -0.226219 0.141126
v 1.675054 -0.214629 -0.141126
v 1.649270 -0.226219 0.141126
v 1.649270 -0.226219 -0.141126
v 1.647032 -0.606629 -0.141126
v 1.610567 -0.567060 -0.141126
v 1.636352 -0.578649 -0.141126
v 1.610567 -0.567060 -0.141126
v 1.574102 -0.606629 -0.141126
v 1.584782 -0.578649 -0.141126
v 1.574102 -0.606629 -0.141126
v 1.610567 -0.567060 -0.141126
v 1.584782 -0.634609 -0.141126
v 1.647032 -0.606629 -0.141126
v 1.584782 -0.634609 -0.141126
v 1.610567 -0.567060 -0.141126
v 1.584782 -0.634609 -0.141126
v 1.647032 -0.606629 -0.141126
v 1.610567 -0.646199 -0.141126
v 1.610567 -0.646199 -0.141126
v 1.647032 -0.606629 -0.141126
v 1.636352 -0.634609 -0.141126
v 1.584782 -0.634609 0.141126
v 1.610567 -0.567060 0.141126
v 1.574102 -0.606629 0.141126
v 1.574102 -0.606629 0.141126
v 1.610567 -0.567060 0.141126
v 1.584782 -0.578649 0.141126
v 1.584782 -0.634609 0.141126
v 1.647032 -0.606629 0.141126
v 1.610567 -0.567060 0.141126
v 1.610567 -0.567060 0.141126
v 1.647032 -0.606629 0.141126
v 1.636352 -0.578649 0.141126
v 1.610567 -0.646199 0.141126
v 1.647032 -0.606629 0.141126
v 1.584782 -0.634609 0.141126
v 1.647032 -0.606629 0.141126
v 1.610567 -0.646199 0.141126
v 1.636352 -0.634609 0.141126
v 0.989080 -0.270645 -0.141126
v 0.952615 -0.231076 -0.141126
v 0.978400 -0.242666 -0.141126
v 0.952615 -0.231076 -0.141126
v 0.989080 -0.270645 -0.141126
v 0.926831 -0.242666 -0.141126
v 0.989080 -0.270645 -0.141126
v 0.926831 -0.298625 -0.141126
v 0.926831 -0.242666 -0.141126
v 0.926831 -0.242666 -0.141126
v 0.926831 -0.298625 -0.141126
v 0.916150 -0.270645 -0.141126
v 0.926831 -0.298625 -0.141126
v 0.989080 -0.270645 -0.141126
v 0.952615 -0.310215 -0.141126
v 0.952615 -0.310215 -0.141126
v 0.989080 -0.270645 -0.141126
v 0.978400 -0.298625 -0.141126
v 0.926831 -0.298625 0.141126
v 0.926831 -0.242666 0.141126
v 0.916150 -0.270645 0.141126
v 0.926831 -0.298625 0.141126
v 0.989080 -0.270645 0.141126
v 0.926831 -0.242666 0.141126
v 0.926831 -0.242666 0.141126
v 0.989080 -0.270645 0.141126
v 0.952615 -0.231076 0.141126
v 0.952615 -0.231076 0.141126
v 0.989080 -0.270645 0.141126
v 0.978400 -0.242666 0.141126
v 0.952615 -0.310215 0.141126
v 0.989080 -0.270645 0.141126
v 0.926831 -0.298625 0.141126
v 0.989080 -0.270645 0.141126
v 0.952615 -0.310215 0.141126
v 0.978400 -0.298625 0.141126
v 1.685735 -0.186649 -0.141126
v 1.649270 -0.147080 -0.141126
v 1.675054 -0.158669 -0.141126
v 1.675054 -0.214629 -0.141126
v 1.649270 -0.147080 -0.141126
v 1.685735 -0.186649 -0.141126
v 1.623486 -0.214629 -0.141126
v 1.649270 -0.147080 -0.141126
v 1.675054 -0.214629 -0.141126
v 1.623486 -0.214629 -0.141126
v 1.675054 -0.214629 -0.141126
v 1.649270 -0.226219 -0.141126
v 1.612805 -0.186649 -0.141126
v 1.649270 -0.147080 -0.141126
v 1.623486 -0.214629 -0.141126
v 1.649270 -0.147080 -0.141126
v 1.612805 -0.186649 -0.141126
v 1.623486 -0.158669 -0.141126
v 1.623486 -0.214629 0.141126
v 1.649270 -0.147080 0.141126
v 1.612805 -0.186649 0.141126
v 1.612805 -0.186649 0.141126
v 1.649270 -0.147080 0.141126
v 1.623486 -0.158669 0.141126
v 1.649270 -0.147080 0.141126
v 1.623486 -0.214629 0.141126
v 1.675054 -0.214629 0.141126
v 1.675054 -0.214629 0.141126
v 1.623486 -0.214629 0.141126
v 1.649270 -0.226219 0.141126
v 1.649270 -0.147080 0.141126
v 1.675054 -0.214629 0.141126
v 1.685735 -0.186649 0.141126
v 1.649270 -0.147080 0.141126
v 1.685735 -0.186649 0.141126
v 1.675054 -0.158669 0.141126
v 0.926831 -0.242666 -0.141126
v 0.952615 -0.231076 0.141126
v 0.952615 -0.231076 -0.141126
v 0.978400 -0.242666 0.141126
v 0.952615 -0.231076 -0.141126
v 0.952615 -0.231076 0.141126
v 0.952615 -0.231076 0.141126
v 0.926831 -0.242666 -0.141126
v 0.926831 -0.242666 0.141126
v 0.952615 -0.231076 -0.141126
v 0.978400 -0.242666 0.141126
v 0.978400 -0.242666 -0.141126
v 0.916150 -0.270645 -0.141126
v 0.926831 -0.242666 0.141126
v 0.926831 -0.242666 -0.141126
v 0.989080 -0.270645 0.141126
v 0.978400 -0.242666 -0.141126
v 0.978400 -0.242666 0.141126
v 0.926831 -0.242666 0.141126
v 0.916150 -0.270645 -0.141126
v 0.916150 -0.270645 0.141126
v 0.978400 -0.242666 -0.141126
v 0.989080 -0.270645 0.141126
v 0.989080 -0.270645 -0.141126
v 0.926831 -0.298625 -0.141126
v 0.916150 -0.270645 0.141126
v 0.916150 -0.270645 -0.141126
v 0.978400 -0.298625 0.141126
v 0.989080 -0.270645 -0.141126
v 0.989080 -0.270645 0.141126
v 0.916150 -0.270645 0.141126
v 0.926831 -0.298625 -0.141126
v 0.926831 -0.298625 0.141126
v 0.989080 -0.270645 -0.141126
v 0.978400 -0.298625 0.141126
v 0.978400 -0.298625 -0.141126
v 0.952615 -0.310215 -0.141126
v 0.926831 -0.298625 0.141126
v 0.926831 -0.298625 -0.141126
v 0.952615 -0.310215 0.141126
v 0.978400 -0.298625 -0.141126
v 0.978400 -0.298625 0.141126
v 0.926831 -0.298625 0.141126
v 0.952615 -0.310215 -0.141126
v 0.952615 -0.310215 0.141126
v 0.978400 -0.298625 -0.141126
v 0.952615 -0.310215 0.141126
v 0.952615 -0.310215 -0.141126
v 1.584782 -0.578649 -0.141126
v 1.610567 -0.567060 0.141126
v 1.610567 -0.567060 -0.141126
v 1.636352 -0.578649 0.141126
v 1.610567 -0.567060 -0.141126
v 1.610567 -0.567060 0.141126
v 1.610567 -0.567060 0.141126
v 1.584782 -0.578649 -0.141126
v 1.584782 -0.578649 0.141126
v 1.610567 -0.567060 -0.141126
v 1.636352 -0.578649 0.141126
v 1.636352 -0.578649 -0.141126
v 1.574102 -0.606629 -0.141126
v 1.584782 -0.578649 0.141126
v 1.584782 -0.578649 -0.141126
v 1.647032 -0.606629 0.141126
v 1.636352 -0.578649 -0.141126
v 1.636352 -0.578649 0.141126
v 1.584782 -0.578649 0.141126
v 1.574102 -0.606629 -0.141126
v 1.574102 -0.606629 0.141126
v 1.636352 -0.578649 -0.141126
v 1.647032 -0.606629 0.141126
v 1.647032 -0.606629 -0.141126
v 1.584782 -0.634609 -0.141126
v 1.574102 -0.606629 0.141126
v 1.574102 -0.606629 -0.141126
v 1.636352 -0.634609 0.141126
v 1.647032 -0.606629 -0.141126
v 1.647032 -0.606629 0.141126
v 1.574102 -0.606629 0.141126
v 1.584782 -0.634609 -0.141126
v 1.584782 -0.634609 0.141126
v 1.647032 -0.606629 -0.141126
v 1.636352 -0.634609 0.141126
v 1.636352 -0.634609 -0.141126
v 1.610567 -0.646199 -0.141126
v 1.584782 -0.634609 0.141126
v 1.584782 -0.634609 -0.141126
v 1.610567 -0.646199 0.141126
v 1.636352 -0.634609 -0.141126
v 1.636352 -0.634609 0.141126
v 1.584782 -0.634609 0.141126
v 1.610567 -0.646199 -0.141126
v 1.610567 -0.646199 0.141126
v 1.636352 -0.634609 -0.141126
v 1.610567 -0.646199 0.141126
v 1.610567 -0.646199 -0.141126
vn -0.7354 0.6777 -0.0000
vn -0.0000 1.0000 -0.0000
vn 0.7354 0.6777 -0.0000
vn -0.7354 0.6777 -0.0001
vn 0.7353 0.6777 -0.0000
vn -1.0000 -0.0000 -0.0000
vn 1.0000 -0.0000 -0.0000
vn 0.7354 0.6776 -0.0000
vn 1.0000 0.0001 -0.0000
vn -0.7354 -0.6777 -0.0000
vn 0.7354 -0.6776 -0.0000
vn 1.0000 -0.0001 -0.0000
vn 0.7354 -0.6777 -0.0000
vn -0.0000 -1.0000 -0.0000
vn -0.7353 -0.6777 -0.0000
vn 0.7353 -0.6777 -0.0000
vn -0.0000 -0.0000 -1.0000
vn -0.0000 -0.0000 1.0000
vn -0.7353 0.6777 -0.0000
vn -1.0000 0.0001 -0.0000
vn -0.7354 0.6776 -0.0000
vn -0.7354 0.6776 0.0001
vn 1.0000 -0.0000 0.0001
vn 1.0000 0.0002 -0.0000
vn -1.0000 0.0001 -0.0001
vn -0.7354 -0.6776 -0.0000
vn 1.0000 -0.0002 -0.0000
vn -0.0000 -1.0000 0.0001
vt 0.000000 0.000000
s 1
usemtl Meshpart5Mtl.004
f 241/2/19 242/2/20 243/2/20
f 244/2/21 245/2/20 246/2/20
f 247/2/20 248/2/19 249/2/22
f 250/2/20 251/2/23 252/2/23
f 253/2/24 254/2/19 255/2/19
f 256/2/25 257/2/21 258/2/21
f 259/2/19 260/2/24 261/2/24
f 262/2/26 263/2/27 264/2/27
f 265/2/28 266/2/24 267/2/24
f 268/2/29 269/2/30 270/2/30
f 271/2/24 272/2/28 273/2/28
f 274/2/25 275/2/31 276/2/31
f 277/2/32 278/2/33 279/2/33
f 280/2/32 281/2/34 282/2/34
f 283/2/33 284/2/32 285/2/32
f 286/2/34 287/2/32 288/2/32
f 289/2/35 290/2/35 291/2/35
f 292/2/35 293/2/35 294/2/35
f 295/2/35 296/2/35 297/2/35
f 298/2/35 299/2/35 300/2/35
f 301/2/35 302/2/35 303/2/35
f 304/2/35 305/2/35 306/2/35
f 307/2/36 308/2/36 309/2/36
f 310/2/36 311/2/36 312/2/36
f 313/2/36 314/2/36 315/2/36
f 316/2/36 317/2/36 318/2/36
f 319/2/36 320/2/36 321/2/36
f 322/2/36 323/2/36 324/2/36
f 325/2/35 326/2/35 327/2/35
f 328/2/35 329/2/35 330/2/35
f 331/2/35 332/2/35 333/2/35
f 334/2/35 335/2/35 336/2/35
f 337/2/35 338/2/35 339/2/35
f 340/2/35 341/2/35 342/2/35
f 343/2/36 344/2/36 345/2/36
f 346/2/36 347/2/36 348/2/36
f 349/2/36 350/2/36 351/2/36
f 352/2/36 353/2/36 354/2/36
f 355/2/36 356/2/36 357/2/36
f 358/2/36 359/2/36 360/2/36
f 361/2/35 362/2/35 363/2/35
f 364/2/35 365/2/35 366/2/35
f 367/2/35 368/2/35 369/2/35
f 370/2/35 371/2/35 372/2/35
f 373/2/35 374/2/35 375/2/35
f 376/2/35 377/2/35 378/2/35
f 379/2/36 380/2/36 381/2/36
f 382/2/36 383/2/36 384/2/36
f 385/2/36 386/2/36 387/2/36
f 388/2/36 389/2/36 390/2/36
f 391/2/36 392/2/36 393/2/36
f 394/2/36 395/2/36 396/2/36
f 397/2/37 398/2/20 399/2/20
f 400/2/23 401/2/20 402/2/20
f 403/2/20 404/2/37 405/2/37
f 406/2/20 407/2/23 408/2/23
f 409/2/38 410/2/39 411/2/40
f 412/2/25 413/2/26 414/2/26
f 415/2/39 416/2/38 417/2/38
f 418/2/26 419/2/25 420/2/41
f 421/2/28 422/2/24 423/2/24
f 424/2/29 425/2/30 426/2/30
f 427/2/24 428/2/28 429/2/28
f 430/2/30 431/2/29 432/2/29
f 433/2/32 434/2/33 435/2/33
f 436/2/32 437/2/34 438/2/34
f 439/2/33 440/2/32 441/2/32
f 442/2/34 443/2/32 444/2/32
f 445/2/37 446/2/20 447/2/20
f 448/2/23 449/2/20 450/2/20
f 451/2/20 452/2/37 453/2/37
f 454/2/20 455/2/23 456/2/23
f 457/2/38 458/2/39 459/2/39
f 460/2/42 461/2/26 462/2/26
f 463/2/39 464/2/38 465/2/43
f 466/2/26 467/2/27 468/2/27
f 469/2/44 470/2/24 471/2/24
f 472/2/29 473/2/30 474/2/30
f 475/2/24 476/2/44 477/2/44
f 478/2/45 479/2/29 480/2/29
f 481/2/32 482/2/33 483/2/33
f 484/2/32 485/2/34 486/2/34
f 487/2/33 488/2/32 489/2/32
f 490/2/34 491/2/32 492/2/46
o New_object.003
v -0.885368 -0.059807 0.262377
v -0.860822 0.004495 0.262377
v -0.895536 -0.033171 0.262377
v -0.895536 -0.033171 0.262377
v -0.860822 0.004495 0.262377
v -0.885368 -0.006537 0.262377
v -0.860822 0.004495 0.262377
v -0.885368 -0.059807 0.262377
v -0.836279 -0.059807 0.262377
v -0.836279 -0.059807 0.262377
v -0.885368 -0.059807 0.262377
v -0.860822 -0.070839 0.262377
v -0.860822 0.004495 0.262377
v -0.836279 -0.059807 0.262377
v -0.826112 -0.033171 0.262377
v -0.860822 0.004495 0.262377
v -0.826112 -0.033171 0.262377
v -0.836279 -0.006537 0.262377
v -0.860822 -0.055763 0.173428
v -0.836279 -0.059807 0.173428
v -0.860822 -0.070839 0.173428
v -0.885368 -0.059807 0.173428
v -0.860822 -0.055763 0.173428
v -0.860822 -0.070839 0.173428
v -0.836279 -0.059807 0.173428
v -0.860822 -0.055763 0.173428
v -0.846102 -0.049145 0.173428
v -0.860822 -0.055763 0.173428
v -0.885368 -0.059807 0.173428
v -0.875545 -0.049145 0.173428
v -0.846102 -0.049145 0.173428
v -0.826112 -0.033171 0.173428
v -0.836279 -0.059807 0.173428
v -0.885368 -0.059807 0.173428
v -0.895536 -0.033171 0.173428
v -0.875545 -0.049145 0.173428
v -0.826112 -0.033171 0.173428
v -0.846102 -0.049145 0.173428
v -0.840005 -0.033171 0.173428
v -0.875545 -0.049145 0.173428
v -0.895536 -0.033171 0.173428
v -0.881641 -0.033171 0.173428
v -0.846102 -0.017197 0.173428
v -0.826112 -0.033171 0.173428
v -0.840005 -0.033171 0.173428
v -0.895536 -0.033171 0.173428
v -0.875545 -0.017197 0.173428
v -0.881641 -0.033171 0.173428
v -0.826112 -0.033171 0.173428
v -0.846102 -0.017197 0.173428
v -0.836279 -0.006537 0.173428
v -0.875545 -0.017197 0.173428
v -0.895536 -0.033171 0.173428
v -0.885368 -0.006537 0.173428
v -0.860822 -0.010581 0.173428
v -0.836279 -0.006537 0.173428
v -0.846102 -0.017197 0.173428
v -0.885368 -0.006537 0.173428
v -0.860822 -0.010581 0.173428
v -0.875545 -0.017197 0.173428
v -0.860822 0.004495 0.173428
v -0.836279 -0.006537 0.173428
v -0.860822 -0.010581 0.173428
v -0.860822 -0.010581 0.173428
v -0.885368 -0.006537 0.173428
v -0.860822 0.004495 0.173428
v -0.860822 0.004495 0.173428
v -0.860822 0.004495 0.262377
v -0.836279 -0.006537 0.173428
v -0.836279 -0.006537 0.173428
v -0.860822 0.004495 0.262377
v -0.836279 -0.006537 0.262377
v -0.860822 0.004495 0.173428
v -0.885368 -0.006537 0.262377
v -0.860822 0.004495 0.262377
v -0.836279 -0.006537 0.173428
v -0.836279 -0.006537 0.262377
v -0.826112 -0.033171 0.173428
v -0.885368 -0.006537 0.173428
v -0.885368 -0.006537 0.262377
v -0.860822 0.004495 0.173428
v -0.826112 -0.033171 0.173428
v -0.836279 -0.006537 0.262377
v -0.826112 -0.033171 0.262377
v -0.885368 -0.006537 0.173428
v -0.895536 -0.033171 0.262377
v -0.885368 -0.006537 0.262377
v -0.826112 -0.033171 0.173428
v -0.826112 -0.033171 0.262377
v -0.836279 -0.059807 0.173428
v -0.895536 -0.033171 0.173428
v -0.895536 -0.033171 0.262377
v -0.885368 -0.006537 0.173428
v -0.836279 -0.059807 0.173428
v -0.826112 -0.033171 0.262377
v -0.836279 -0.059807 0.262377
v -0.895536 -0.033171 0.173428
v -0.885368 -0.059807 0.262377
v -0.895536 -0.033171 0.262377
v -0.836279 -0.059807 0.173428
v -0.836279 -0.059807 0.262377
v -0.860822 -0.070839 0.173428
v -0.885368 -0.059807 0.173428
v -0.885368 -0.059807 0.262377
v -0.895536 -0.033171 0.173428
v -0.860822 -0.070839 0.173428
v -0.836279 -0.059807 0.262377
v -0.860822 -0.070839 0.262377
v -0.885368 -0.059807 0.173428
v -0.860822 -0.070839 0.262377
v -0.885368 -0.059807 0.262377
v -0.860822 -0.070839 0.173428
v -0.860822 -0.070839 0.262377
v -0.885368 -0.059807 0.173428
v -0.881641 -0.033171 0.111394
v -0.875545 -0.017197 0.173428
v -0.875545 -0.017197 0.111394
v -0.875545 -0.017197 0.173428
v -0.860824 -0.010581 0.111394
v -0.875545 -0.017197 0.111394
v -0.875545 -0.017197 0.173428
v -0.881641 -0.033171 0.111394
v -0.881641 -0.033171 0.173428
v -0.860824 -0.010581 0.111394
v -0.875545 -0.017197 0.173428
v -0.860822 -0.010581 0.173428
v -0.875545 -0.049145 0.111394
v -0.881641 -0.033171 0.173428
v -0.881641 -0.033171 0.111394
v -0.860822 -0.010581 0.173428
v -0.846102 -0.017197 0.111394
v -0.860824 -0.010581 0.111394
v -0.881641 -0.033171 0.173428
v -0.875545 -0.049145 0.111394
v -0.875545 -0.049145 0.173428
v -0.846102 -0.017197 0.111394
v -0.860822 -0.010581 0.173428
v -0.846102 -0.017197 0.173428
v -0.860824 -0.055763 0.111394
v -0.875545 -0.049145 0.173428
v -0.875545 -0.049145 0.111394
v -0.840005 -0.033171 0.173428
v -0.846102 -0.017197 0.111394
v -0.846102 -0.017197 0.173428
v -0.875545 -0.049145 0.173428
v -0.860824 -0.055763 0.111394
v -0.860822 -0.055763 0.173428
v -0.846102 -0.017197 0.111394
v -0.840005 -0.033171 0.173428
v -0.840005 -0.033171 0.111394
v -0.846102 -0.049145 0.111394
v -0.860822 -0.055763 0.173428
v -0.860824 -0.055763 0.111394
v -0.846102 -0.049145 0.173428
v -0.840005 -0.033171 0.111394
v -0.840005 -0.033171 0.173428
v -0.860822 -0.055763 0.173428
v -0.846102 -0.049145 0.111394
v -0.846102 -0.049145 0.173428
v -0.840005 -0.033171 0.111394
v -0.846102 -0.049145 0.173428
v -0.846102 -0.049145 0.111394
vn -0.0000 -0.0000 1.0000
vn -0.0000 -0.0000 -1.0000
vn -0.0000 1.0000 -0.0000
vn 0.7353 0.6777 -0.0000
vn -0.7353 0.6777 -0.0000
vn 0.7354 0.6776 -0.0000
vn 1.0000 -0.0000 -0.0000
vn 0.7354 0.6777 -0.0000
vn -0.7354 0.6776 -0.0000
vn -1.0000 -0.0000 -0.0000
vn 0.7354 -0.6776 0.0001
vn 0.7354 -0.6776 -0.0000
vn 1.0000 -0.0001 -0.0000
vn -0.7354 -0.6776 -0.0000
vn 0.7353 -0.6777 -0.0000
vn -0.0000 -1.0000 -0.0000
vn -0.7353 -0.6777 -0.0000
vn -1.0000 0.0001 -0.0000
vn -1.0000 -0.0000 -0.0001
vn -1.0000 -0.0001 -0.0000
vn 0.7354 -0.6777 -0.0000
vt 0.000000 0.000000
s 1
usemtl Meshpart5Mtl.004
f 493/3/47 494/3/47 495/3/47
f 496/3/47 497/3/47 498/3/47
f 499/3/47 500/3/47 501/3/47
f 502/3/47 503/3/47 504/3/47
f 505/3/47 506/3/47 507/3/47
f 508/3/47 509/3/47 510/3/47
f 511/3/48 512/3/48 513/3/48
f 514/3/48 515/3/48 516/3/48
f 517/3/48 518/3/48 519/3/48
f 520/3/48 521/3/48 522/3/48
f 523/3/48 524/3/48 525/3/48
f 526/3/48 527/3/48 528/3/48
f 529/3/48 530/3/48 531/3/48
f 532/3/48 533/3/48 534/3/48
f 535/3/48 536/3/48 537/3/48
f 538/3/48 539/3/48 540/3/48
f 541/3/48 542/3/48 543/3/48
f 544/3/48 545/3/48 546/3/48
f 547/3/48 548/3/48 549/3/48
f 550/3/48 551/3/48 552/3/48
f 553/3/48 554/3/48 555/3/48
f 556/3/48 557/3/48 558/3/48
f 559/3/49 560/3/49 561/3/50
f 562/3/50 563/3/49 564/3/50
f 565/3/49 566/3/51 567/3/49
f 568/3/52 569/3/52 570/3/53
f 571/3/51 572/3/51 573/3/49
f 574/3/53 575/3/54 576/3/53
f 577/3/55 578/3/56 579/3/55
f 580/3/53 581/3/53 582/3/57
f 583/3/56 584/3/56 585/3/55
f 586/3/58 587/3/59 588/3/58
f 589/3/56 590/3/60 591/3/56
f 592/3/61 593/3/61 594/3/62
f 595/3/60 596/3/60 597/3/56
f 598/3/62 599/3/61 600/3/62
f 601/3/63 602/3/62 603/3/63
f 604/3/62 605/3/62 606/3/63
f 607/3/64 608/3/55 609/3/55
f 610/3/51 611/3/49 612/3/51
f 613/3/55 614/3/56 615/3/65
f 616/3/49 617/3/51 618/3/49
f 619/3/60 620/3/56 621/3/56
f 622/3/49 623/3/50 624/3/49
f 625/3/66 626/3/60 627/3/60
f 628/3/54 629/3/49 630/3/54
f 631/3/62 632/3/63 633/3/63
f 634/3/53 635/3/52 636/3/52
f 637/3/63 638/3/62 639/3/62
f 640/3/54 641/3/53 642/3/53
f 643/3/61 644/3/62 645/3/62
f 646/3/67 647/3/53 648/3/53
f 649/3/62 650/3/61 651/3/61
f 652/3/53 653/3/58 654/3/58
o RenderMesh_18687756555
v 5.244613 10.871377 0.072749
v 5.336238 10.741250 -0.133706
v 5.336791 10.732131 0.154813
v 5.244391 10.875024 -0.042660
v 5.336223 10.676302 -0.106878
v 5.336665 10.669008 0.123938
v 5.266429 10.183551 -0.122317
v 5.266872 10.176256 0.108499
v 5.264199 10.134971 -0.123848
v 5.264641 10.127676 0.106968
v 5.257572 10.087234 -0.125344
v 5.258015 10.079937 0.105472
v 5.167914 10.871456 0.072899
v 5.259540 10.741330 -0.133557
v 5.167692 10.875105 -0.042510
v 5.260094 10.732211 0.154964
v 5.259525 10.676381 -0.106727
v 5.259968 10.669087 0.124087
v 5.189730 10.183631 -0.122167
v 5.190172 10.176336 0.108649
v 5.187499 10.135050 -0.123698
v 5.187943 10.127756 0.107118
v 5.180872 10.087313 -0.125194
v 5.181315 10.080018 0.105622
v 5.187943 10.127756 0.107118
v 5.264641 10.127676 0.106968
v 5.258015 10.079937 0.105472
v 5.190172 10.176336 0.108649
v 5.181315 10.080018 0.105622
v 5.266872 10.176256 0.108499
v 5.257572 10.087234 -0.125344
v 5.259968 10.669087 0.124087
v 5.180872 10.087313 -0.125194
v 5.336665 10.669008 0.123938
v 5.187499 10.135050 -0.123698
v 5.260094 10.732211 0.154964
v 5.264199 10.134971 -0.123848
v 5.336791 10.732131 0.154813
v 5.189730 10.183631 -0.122167
v 5.244613 10.871377 0.072749
v 5.266429 10.183551 -0.122317
v 5.167914 10.871456 0.072899
v 5.259525 10.676381 -0.106727
v 5.167692 10.875105 -0.042510
v 5.336223 10.676302 -0.106878
v 5.244391 10.875024 -0.042660
v 5.336238 10.741250 -0.133706
v 5.259540 10.741330 -0.133557
vn 0.8294 0.5585 0.0161
vn 0.9589 0.2835 0.0071
vn 0.8294 0.5585 0.0160
vn 0.9980 -0.0624 -0.0039
vn 0.9957 -0.0930 -0.0048
vn 0.9958 -0.0916 -0.0048
vn 0.9905 -0.1373 -0.0062
vn -0.8294 -0.5585 -0.0161
vn -0.9589 -0.2835 -0.0071
vn -0.9980 0.0624 0.0039
vn -0.9957 0.0930 0.0048
vn -0.9958 0.0917 0.0048
vn -0.9958 0.0916 0.0048
vn -0.9905 0.1374 0.0062
vn -0.9905 0.1373 0.0062
vn 0.0019 -0.0316 0.9995
vn 0.0007 -0.6999 0.7142
vn 0.0005 -0.7594 0.6506
vn -0.0022 -0.6534 -0.7570
vn 0.0017 -0.2320 0.9727
vn -0.0021 -0.7169 -0.6972
vn 0.0016 -0.2506 0.9681
vn -0.0019 0.0316 -0.9995
vn 0.0021 0.1153 0.9933
vn 0.0019 -0.0666 0.9978
vn 0.0020 0.8185 0.5745
vn 0.0017 0.9106 0.4133
vn -0.0021 -0.1701 -0.9854
vn 0.0003 0.9349 -0.3550
vn -0.0021 -0.1889 -0.9820
vn -0.0001 0.8532 -0.5217
vn -0.0020 -0.0035 -1.0000
vn -0.0017 0.1779 -0.9841
vt 0.000000 0.000000
s 1
usemtl Meshpart5Mtl.004
f 655/4/68 657/4/69 656/4/69
f 656/4/69 658/4/70 655/4/68
f 657/4/69 659/4/71 656/4/69
f 659/4/71 657/4/69 660/4/71
f 659/4/71 660/4/71 661/4/72
f 662/4/72 661/4/72 660/4/71
f 662/4/72 663/4/73 661/4/72
f 663/4/73 662/4/72 664/4/73
f 664/4/73 665/4/74 663/4/73
f 665/4/74 664/4/73 666/4/74
f 667/4/75 669/4/75 668/4/76
f 668/4/76 670/4/76 667/4/75
f 668/4/76 671/4/77 670/4/76
f 671/4/77 672/4/77 670/4/76
f 672/4/77 671/4/77 673/4/78
f 672/4/77 673/4/78 674/4/78
f 674/4/78 673/4/78 675/4/79
f 675/4/79 676/4/80 674/4/78
f 676/4/80 675/4/79 677/4/81
f 678/4/82 676/4/80 677/4/81
f 679/4/83 681/4/84 680/4/83
f 682/4/83 679/4/83 680/4/83
f 679/4/83 683/4/85 681/4/84
f 682/4/83 680/4/83 684/4/83
f 681/4/84 683/4/85 685/4/86
f 684/4/83 686/4/87 682/4/83
f 683/4/85 687/4/88 685/4/86
f 688/4/89 686/4/87 684/4/83
f 685/4/86 687/4/88 689/4/90
f 690/4/91 686/4/87 688/4/89
f 689/4/90 691/4/90 685/4/86
f 690/4/91 688/4/89 692/4/92
f 691/4/90 689/4/90 693/4/90
f 690/4/91 692/4/92 694/4/93
f 693/4/90 695/4/90 691/4/90
f 694/4/93 696/4/94 690/4/91
f 695/4/90 693/4/90 697/4/95
f 696/4/94 694/4/93 698/4/96
f 697/4/95 699/4/97 695/4/90
f 694/4/93 700/4/98 698/4/96
f 697/4/95 701/4/99 699/4/97
f 698/4/96 700/4/98 702/4/100
f 697/4/95 702/4/100 701/4/99
f 701/4/99 702/4/100 700/4/98
o RenderMesh_18687757011.004
v 1.703865 0.155482 0.076355
v 1.783521 -0.020008 -0.214607
v 1.703865 0.155482 -0.089910
v 1.783521 -0.020008 0.201052
v 1.783521 -0.102387 -0.173041
v 1.783521 -0.102387 0.159485
v 1.723668 -0.736384 -0.173041
v 1.723668 -0.736384 0.159485
v 1.721787 -0.798883 -0.173041
v 1.721787 -0.798883 0.159485
v 1.716104 -0.860306 -0.173041
v 1.716104 -0.860306 0.159485
v 1.787224 -0.043396 0.185890
v 1.787224 -0.043396 -0.195130
v 1.787224 -0.122757 -0.157028
v 1.787224 -0.122757 0.147788
v 1.727371 -0.733536 -0.157028
v 1.727371 -0.733536 0.147788
v 1.725491 -0.793748 -0.157028
v 1.725491 -0.793748 0.147788
v 1.719808 -0.852920 -0.157028
v 1.719808 -0.852920 0.147788
v 1.769011 0.155482 0.076355
v 1.848667 -0.020008 -0.214607
v 1.848667 -0.020008 0.201052
v 1.769011 0.155482 -0.089910
v 1.848667 -0.102387 -0.173041
v 1.848667 -0.102387 0.159485
v 1.788815 -0.736384 -0.173041
v 1.788815 -0.736384 0.159485
v 1.786934 -0.798883 -0.173041
v 1.786934 -0.798883 0.159485
v 1.781252 -0.860306 -0.173041
v 1.781252 -0.860306 0.159485
v 1.720644 -0.798883 0.159485
v 1.786934 -0.798883 0.159485
v 1.781252 -0.860306 0.159485
v 1.722525 -0.736384 0.159485
v 1.714961 -0.860306 0.159485
v 1.788815 -0.736384 0.159485
v 1.781252 -0.860306 -0.173041
v 1.782378 -0.102387 0.159485
v 1.714961 -0.860306 -0.173041
v 1.848667 -0.102387 0.159485
v 1.720644 -0.798883 -0.173041
v 1.782378 -0.020008 0.201052
v 1.786934 -0.798883 -0.173041
v 1.848667 -0.020008 0.201052
v 1.722525 -0.736384 -0.173041
v 1.769011 0.155482 0.076355
v 1.788815 -0.736384 -0.173041
v 1.702722 0.155482 0.076355
v 1.782378 -0.102387 -0.173041
v 1.702722 0.155482 -0.089910
v 1.848667 -0.102387 -0.173041
v 1.769011 0.155482 -0.089910
v 1.848667 -0.020008 -0.214607
v 1.782378 -0.020008 -0.214607
vn -0.9106 -0.4133 -0.0000
vn -0.9807 -0.1957 -0.0000
vn -0.9992 0.0410 -0.0000
vn -0.9981 0.0621 -0.0000
vn -0.9981 0.0611 -0.0000
vn -0.9957 0.0921 -0.0000
vn 0.9793 0.2023 -0.0000
vn 0.9991 -0.0431 -0.0000
vn 0.9991 -0.0432 -0.0000
vn 0.9979 -0.0644 -0.0000
vn 0.9980 -0.0634 -0.0000
vn 0.7903 -0.6127 -0.0000
vn 0.7904 -0.6126 -0.0000
vn 0.9106 0.4133 -0.0000
vn 0.9807 0.1957 -0.0000
vn 0.9992 -0.0410 -0.0000
vn 0.9981 -0.0621 -0.0000
vn 0.9981 -0.0611 -0.0000
vn 0.9957 -0.0921 -0.0000
vn -0.0000 -0.0000 1.0000
vn -0.0000 -0.7175 0.6965
vn -0.0000 -0.7751 0.6319
vn -0.0000 -0.7175 -0.6965
vn -0.0000 -0.2242 0.9745
vn -0.0000 -0.7750 -0.6319
vn -0.0000 -0.2447 0.9696
vn -0.0000 -0.0000 -1.0000
vn -0.0000 0.1638 0.9865
vn -0.0000 -0.0392 0.9992
vn -0.0000 0.8630 0.5052
vn -0.0000 0.9373 0.3485
vn -0.0000 -0.2240 -0.9746
vn -0.0000 0.9373 -0.3485
vn -0.0000 -0.2447 -0.9696
vn -0.0000 0.8630 -0.5052
vn -0.0000 -0.0392 -0.9992
vn -0.0000 0.1638 -0.9865
vt 0.000000 0.000000
s 1
usemtl Meshpart5Mtl.004
f 703/5/101 705/5/101 704/5/102
f 704/5/102 706/5/102 703/5/101
f 704/5/102 707/5/103 706/5/102
f 707/5/103 708/5/103 706/5/102
f 708/5/103 707/5/103 709/5/104
f 708/5/103 709/5/104 710/5/104
f 710/5/104 709/5/104 711/5/105
f 711/5/105 712/5/105 710/5/104
f 712/5/105 711/5/105 713/5/106
f 714/5/106 712/5/105 713/5/106
f 715/5/107 717/5/108 716/5/107
f 717/5/108 715/5/107 718/5/109
f 717/5/108 718/5/109 719/5/110
f 720/5/110 719/5/110 718/5/109
f 720/5/110 721/5/111 719/5/110
f 721/5/111 720/5/110 722/5/111
f 722/5/111 723/5/112 721/5/111
f 723/5/112 722/5/111 724/5/113
f 725/5/114 727/5/115 726/5/115
f 726/5/115 728/5/114 725/5/114
f 727/5/115 729/5/116 726/5/115
f 729/5/116 727/5/115 730/5/116
f 729/5/116 730/5/116 731/5/117
f 732/5/117 731/5/117 730/5/116
f 732/5/117 733/5/118 731/5/117
f 733/5/118 732/5/117 734/5/118
f 734/5/118 735/5/119 733/5/118
f 735/5/119 734/5/118 736/5/119
f 737/5/120 739/5/121 738/5/120
f 740/5/120 737/5/120 738/5/120
f 737/5/120 741/5/122 739/5/121
f 740/5/120 738/5/120 742/5/120
f 739/5/121 741/5/122 743/5/123
f 742/5/120 744/5/124 740/5/120
f 741/5/122 745/5/125 743/5/123
f 746/5/126 744/5/124 742/5/120
f 743/5/123 745/5/125 747/5/127
f 748/5/128 744/5/124 746/5/126
f 747/5/127 749/5/127 743/5/123
f 748/5/128 746/5/126 750/5/129
f 749/5/127 747/5/127 751/5/127
f 748/5/128 750/5/129 752/5/130
f 751/5/127 753/5/127 749/5/127
f 752/5/130 754/5/131 748/5/128
f 753/5/127 751/5/127 755/5/132
f 754/5/131 752/5/130 756/5/133
f 755/5/132 757/5/134 753/5/127
f 752/5/130 758/5/135 756/5/133
f 755/5/132 759/5/136 757/5/134
f 756/5/133 758/5/135 760/5/137
f 755/5/132 760/5/137 759/5/136
f 759/5/136 760/5/137 758/5/135
o Untitled
v -2.031309 0.096507 0.000361
v -2.031309 0.057003 0.040712
v -2.031309 0.073117 0.056827
v -2.031309 0.057003 0.040712
v -2.031309 0.096507 0.000361
v -2.031309 0.073717 0.000361
v -2.031309 0.016652 0.057426
v -2.031309 0.073117 0.056827
v -2.031309 0.057003 0.040712
v -2.031309 0.096507 0.000361
v -2.031309 0.057003 -0.039989
v -2.031309 0.073717 0.000361
v -2.031309 0.073117 0.056827
v -2.031309 0.016652 0.057426
v -2.031309 0.016652 0.080216
v -2.031309 0.096507 0.000361
v -2.031309 0.073117 -0.056104
v -2.031309 0.057003 -0.039989
v -2.031309 0.016652 0.057426
v -2.031309 -0.039813 0.056827
v -2.031309 0.016652 0.080216
v -2.031309 0.016652 -0.056704
v -2.031309 0.057003 -0.039989
v -2.031309 0.073117 -0.056104
v -2.031309 -0.039813 0.056827
v -2.031309 0.016652 0.057426
v -2.031309 -0.023699 0.040712
v -2.031309 0.073117 -0.056104
v -2.031309 0.016652 -0.079494
v -2.031309 0.016652 -0.056704
v -2.031309 -0.063202 0.000361
v -2.031309 -0.039813 0.056827
v -2.031309 -0.023699 0.040712
v -2.031309 -0.039813 -0.056104
v -2.031309 0.016652 -0.056704
v -2.031309 0.016652 -0.079494
v -2.031309 -0.063202 0.000361
v -2.031309 -0.023699 0.040712
v -2.031309 -0.040412 0.000361
v -2.031309 0.016652 -0.056704
v -2.031309 -0.039813 -0.056104
v -2.031309 -0.023699 -0.039989
v -2.031309 -0.063202 0.000361
v -2.031309 -0.023699 -0.039989
v -2.031309 -0.039813 -0.056104
v -2.031309 -0.023699 -0.039989
v -2.031309 -0.063202 0.000361
v -2.031309 -0.040412 0.000361
v -1.793444 0.057003 0.040712
v -2.031309 0.016652 0.057426
v -2.031309 0.057003 0.040712
v -2.031309 0.016652 0.057426
v -1.793444 0.057003 0.040712
v -1.793444 0.016652 0.057426
v -1.793444 0.016652 0.057426
v -2.031309 -0.023699 0.040712
v -2.031309 0.016652 0.057426
v -2.031309 0.057003 0.040712
v -1.793444 0.073717 0.000361
v -1.793444 0.057003 0.040712
v -1.793444 0.073717 0.000361
v -2.031309 0.057003 0.040712
v -2.031309 0.073717 0.000361
v -1.793444 0.057003 0.040712
v -1.793444 -0.023699 0.040712
v -1.793444 0.016652 0.057426
v -2.031309 -0.023699 0.040712
v -1.793444 0.016652 0.057426
v -1.793444 -0.023699 0.040712
v -2.031309 -0.023699 0.040712
v -1.793444 -0.023699 0.040712
v -2.031309 -0.040412 0.000361
v -1.793444 0.057003 0.040712
v -1.793444 -0.040412 0.000361
v -1.793444 -0.023699 0.040712
v -1.793444 -0.040412 0.000361
v -2.031309 -0.040412 0.000361
v -1.793444 -0.023699 0.040712
v -1.793444 -0.040412 0.000361
v -1.793444 0.057003 0.040712
v -1.793444 0.073717 0.000361
v -2.031309 -0.040412 0.000361
v -1.793444 -0.040412 0.000361
v -2.031309 -0.023699 -0.039989
v -2.031309 0.073717 0.000361
v -1.793444 0.057003 -0.039989
v -1.793444 0.073717 0.000361
v -1.793444 0.057003 -0.039989
v -1.793444 -0.040412 0.000361
v -1.793444 0.073717 0.000361
v -1.793444 0.057003 -0.039989
v -2.031309 0.073717 0.000361
v -2.031309 0.057003 -0.039989
v -1.793444 -0.023699 -0.039989
v -2.031309 -0.023699 -0.039989
v -1.793444 -0.040412 0.000361
v -1.793444 -0.040412 0.000361
v -1.793444 0.057003 -0.039989
v -1.793444 -0.023699 -0.039989
v -1.793444 -0.023699 -0.039989
v -2.031309 0.016652 -0.056704
v -2.031309 -0.023699 -0.039989
v -2.031309 0.057003 -0.039989
v -1.793444 0.016652 -0.056704
v -1.793444 0.057003 -0.039989
v -1.793444 -0.023699 -0.039989
v -1.793444 0.057003 -0.039989
v -1.793444 0.016652 -0.056704
v -1.793444 0.016652 -0.056704
v -2.031309 0.057003 -0.039989
v -2.031309 0.016652 -0.056704
v -2.031309 0.016652 -0.056704
v -1.793444 -0.023699 -0.039989
v -1.793444 0.016652 -0.056704
v 0.423017 0.255892 -0.027657
v 0.423017 0.255892 0.028379
v 0.423017 0.181729 -0.027657
v 0.423017 0.181729 -0.027657
v 0.423017 0.255892 0.028379
v 0.423017 0.181729 0.028379
v 0.423017 0.255892 -0.027657
v 0.423017 0.267279 0.034856
v 0.423017 0.255892 0.028379
v 0.423017 0.267279 0.034856
v 0.423017 0.255892 -0.027657
v 0.423017 0.267279 -0.034134
v 0.423017 0.267279 -0.034134
v 0.423017 0.297707 0.000361
v 0.423017 0.267279 0.034856
v 0.423017 0.267279 0.034856
v 0.423017 0.297707 0.000361
v 0.423017 0.305484 0.019139
v 0.423017 0.297707 0.000361
v 0.423017 0.267279 -0.034134
v 0.423017 0.305484 -0.018417
v 0.423017 0.324262 0.026916
v 0.423017 0.267279 0.034856
v 0.423017 0.305484 0.019139
v 0.423017 0.267279 -0.034134
v 0.423017 0.324262 -0.026194
v 0.423017 0.305484 -0.018417
v 0.423017 0.267279 0.034856
v 0.423017 0.324262 0.026916
v 0.423017 0.343136 0.034856
v 0.423017 0.267279 -0.034134
v 0.423017 0.343136 -0.034134
v 0.423017 0.324262 -0.026194
v 0.423017 0.324262 0.026916
v 0.423017 0.345773 0.026559
v 0.423017 0.343136 0.034856
v 0.423017 0.345773 0.026559
v 0.423017 0.324262 0.026916
v 0.423017 0.343038 0.019139
v 0.423017 0.357511 0.020482
v 0.423017 0.343136 0.034856
v 0.423017 0.345773 0.026559
v 0.423017 0.343038 0.019139
v 0.423017 0.357511 0.020482
v 0.423017 0.345773 0.026559
v 0.423017 0.357511 0.020482
v 0.423017 0.343038 0.019139
v 0.423017 0.350817 0.000361
v 0.423017 0.357511 -0.019760
v 0.423017 0.357511 0.020482
v 0.423017 0.350817 0.000361
v 0.423017 0.345773 -0.025837
v 0.423017 0.324262 -0.026194
v 0.423017 0.343136 -0.034134
v 0.423017 0.343136 -0.034134
v 0.423017 0.357511 -0.019760
v 0.423017 0.345773 -0.025837
v 0.423017 0.324262 -0.026194
v 0.423017 0.345773 -0.025837
v 0.423017 0.343038 -0.018417
v 0.423017 0.343038 -0.018417
v 0.423017 0.357511 -0.019760
v 0.423017 0.350817 0.000361
v 0.423017 0.357511 -0.019760
v 0.423017 0.343038 -0.018417
v 0.423017 0.345773 -0.025837
v 0.173584 -0.035083 -0.152136
v 0.173584 -0.035083 0.152136
v 0.173584 -0.113940 -0.121709
v 0.173584 -0.113940 -0.121709
v 0.173584 -0.035083 0.152136
v 0.173584 -0.113940 0.121709
v 0.173584 0.125489 -0.062468
v 0.173584 -0.035083 0.152136
v 0.173584 -0.035083 -0.152136
v 0.173584 -0.035083 0.152136
v 0.173584 0.125489 -0.062468
v 0.173584 0.125489 0.062468
v 0.547714 0.125489 -0.062468
v 0.173584 0.125489 0.062468
v 0.173584 0.125489 -0.062468
v 0.173584 0.125489 0.062468
v 0.547714 0.125489 -0.062468
v 0.547714 0.125489 0.062468
v -1.003806 -0.228068 -0.135231
v -1.068311 -0.113940 0.135232
v -1.068311 -0.113940 -0.135232
v -1.068311 -0.113940 0.135232
v -1.003806 -0.228068 -0.135231
v -1.003806 -0.228068 0.135232
v -1.003806 -0.228068 -0.135231
v -0.739808 -0.228068 -0.135231
v -1.003806 -0.228068 0.135232
v -0.739808 -0.228068 -0.135231
v -0.739808 -0.228068 0.135232
v -1.003806 -0.228068 0.135232
v -0.885756 0.208005 0.021363
v -0.885756 0.183900 0.021363
v -0.885756 0.183900 0.035202
v -0.885756 0.208005 0.021363
v -0.885756 0.183900 0.035202
v -0.885756 0.208005 0.035202
v -0.885756 0.208005 -0.034479
v -0.885756 0.183900 -0.034479
v -0.885756 0.183900 -0.020640
v -0.885756 0.208005 -0.034479
v -0.885756 0.183900 -0.020640
v -0.885756 0.208005 -0.020640
v -0.885756 0.208005 0.035202
v -0.859955 0.250003 0.035202
v -0.885756 0.208005 0.021363
v -0.859955 0.250003 0.021363
v -0.885756 0.208005 0.021363
v -0.859955 0.250003 0.035202
v -0.885756 0.208005 -0.020640
v -0.859955 0.250003 -0.020640
v -0.885756 0.208005 -0.034479
v -0.859955 0.250003 -0.034479
v -0.885756 0.208005 -0.034479
v -0.859955 0.250003 -0.020640
v -0.831858 0.324995 -0.002167
v -0.835958 0.295099 -0.006615
v -0.835958 0.295099 0.007337
v -0.831858 0.324995 -0.002167
v -0.835958 0.295099 0.007337
v -0.831858 0.324995 0.002889
v -0.844811 0.256234 -0.027656
v -0.844811 0.297743 0.000361
v -0.844811 0.266537 -0.033259
v -0.844811 0.266537 -0.033259
v -0.844811 0.297743 0.000361
v -0.844811 0.305409 -0.018145
v -0.844811 0.326606 -0.033259
v -0.844811 0.266537 -0.033259
v -0.844811 0.305409 -0.018145
v -0.844811 0.326606 -0.033259
v -0.844811 0.305409 -0.018145
v -0.844811 0.323915 -0.025811
v -0.844811 0.326606 -0.033259
v -0.844811 0.323915 -0.025811
v -0.844811 0.326606 -0.024696
v -0.844811 0.297743 0.000361
v -0.844811 0.256234 -0.027656
v -0.844811 0.256234 0.028378
v -0.844811 0.181490 -0.027656
v -0.844811 0.256234 0.028378
v -0.844811 0.256234 -0.027656
v -0.844811 0.256234 0.028378
v -0.844811 0.181490 -0.027656
v -0.844811 0.181490 0.028378
v -0.844811 0.266537 0.033981
v -0.844811 0.297743 0.000361
v -0.844811 0.256234 0.028378
v -0.844811 0.297743 0.000361
v -0.844811 0.266537 0.033981
v -0.844811 0.305409 0.018867
v -0.844811 0.305409 0.018867
v -0.844811 0.266537 0.033981
v -0.844811 0.326606 0.033981
v -0.844811 0.305409 0.018867
v -0.844811 0.326606 0.033981
v -0.844811 0.323915 0.026533
v -0.844811 0.326606 0.033981
v -0.844811 0.326606 0.025418
v -0.844811 0.323915 0.026533
v 0.173584 -0.113940 0.121709
v -1.048606 -0.113940 0.121709
v 0.173584 -0.113940 -0.121709
v -1.048606 -0.113940 -0.121709
v 0.173584 -0.113940 -0.121709
v -1.048606 -0.113940 0.121709
v 0.423017 0.357511 -0.019760
v 0.394283 0.357511 -0.019760
v 0.394283 0.357511 0.020482
v 0.423017 0.357511 -0.019760
v 0.394283 0.357511 0.020482
v 0.423017 0.357511 0.020482
v -0.844811 0.326606 -0.033259
v -0.814887 0.326606 -0.024696
v -0.814887 0.326606 -0.033259
v -0.814887 0.326606 -0.024696
v -0.844811 0.326606 -0.033259
v -0.844811 0.326606 -0.024696
v -0.844811 0.326606 0.033981
v -0.814887 0.326606 0.033981
v -0.844811 0.326606 0.025418
v -0.814887 0.326606 0.025418
v -0.844811 0.326606 0.025418
v -0.814887 0.326606 0.033981
v -0.827200 0.324995 -0.002167
v -0.831858 0.324995 -0.002167
v -0.831858 0.324995 0.002889
v -0.827200 0.324995 -0.002167
v -0.831858 0.324995 0.002889
v -0.827200 0.324995 0.002889
v 0.423017 0.343136 -0.034134
v 0.394283 0.343136 -0.034134
v 0.394283 0.357511 -0.019760
v 0.423017 0.343136 -0.034134
v 0.394283 0.357511 -0.019760
v 0.423017 0.357511 -0.019760
v -0.814887 0.323915 0.026533
v -0.844811 0.305409 0.018867
v -0.844811 0.323915 0.026533
v -0.844811 0.323915 0.026533
v -0.814887 0.326606 0.025418
v -0.814887 0.323915 0.026533
v -0.814887 0.326606 0.025418
v -0.844811 0.323915 0.026533
v -0.844811 0.326606 0.025418
v -0.844811 0.305409 0.018867
v -0.814887 0.323915 0.026533
v -0.814887 0.305409 0.018867
v -0.814887 0.297743 0.000361
v -0.844811 0.305409 0.018867
v -0.814887 0.305409 0.018867
v -0.844811 0.305409 0.018867
v -0.814887 0.297743 0.000361
v -0.844811 0.297743 0.000361
v -0.844811 0.297743 0.000361
v -0.814887 0.297743 0.000361
v -0.844811 0.305409 -0.018145
v -0.814887 0.305409 -0.018145
v -0.844811 0.305409 -0.018145
v -0.814887 0.297743 0.000361
v -0.814887 0.305409 -0.018145
v -0.844811 0.323915 -0.025811
v -0.844811 0.305409 -0.018145
v -0.844811 0.323915 -0.025811
v -0.814887 0.305409 -0.018145
v -0.814887 0.323915 -0.025811
v -0.814887 0.323915 -0.025811
v -0.844811 0.326606 -0.024696
v -0.844811 0.323915 -0.025811
v -0.844811 0.326606 -0.024696
v -0.814887 0.323915 -0.025811
v -0.814887 0.326606 -0.024696
v 0.423017 0.357511 0.020482
v 0.394283 0.357511 0.020482
v 0.394283 0.343136 0.034856
v 0.423017 0.357511 0.020482
v 0.394283 0.343136 0.034856
v 0.423017 0.343136 0.034856
v -0.924123 0.008924 0.021958
v -0.038918 0.008924 0.021958
v -0.038918 0.008924 0.127561
v -0.924123 0.008924 0.021958
v -0.038918 0.008924 0.127561
v -0.924123 0.008924 0.127561
v -0.739808 -0.228068 -0.135231
v -1.003806 -0.228068 -0.135231
v -0.739808 -0.113940 -0.135232
v -1.068311 -0.113940 -0.135232
v -0.739808 -0.113940 -0.135232
v -1.003806 -0.228068 -0.135231
v 0.423017 0.297707 0.000361
v 0.394283 0.297707 0.000361
v 0.423017 0.305484 0.019139
v 0.394283 0.297707 0.000361
v 0.394283 0.305484 0.019139
v 0.423017 0.305484 0.019139
v 0.423017 0.305484 -0.018417
v 0.394283 0.305484 -0.018417
v 0.423017 0.297707 0.000361
v 0.394283 0.305484 -0.018417
v 0.394283 0.297707 0.000361
v 0.423017 0.297707 0.000361
v -0.739808 -0.113940 0.135232
v -1.003806 -0.228068 0.135232
v -0.739808 -0.228068 0.135232
v -1.003806 -0.228068 0.135232
v -0.739808 -0.113940 0.135232
v -1.068311 -0.113940 0.135232
v -0.782687 0.250003 0.021363
v -0.859955 0.250003 0.021363
v -0.859955 0.250003 0.035202
v -0.782687 0.250003 0.021363
v -0.859955 0.250003 0.035202
v -0.782687 0.250003 0.035202
v -0.859955 0.250003 -0.034479
v -0.782687 0.250003 -0.020640
v -0.782687 0.250003 -0.034480
v -0.782687 0.250003 -0.020640
v -0.859955 0.250003 -0.034479
v -0.859955 0.250003 -0.020640
v 0.313618 0.208005 -0.034480
v 0.313618 0.183900 -0.034480
v 0.313618 0.183900 -0.020640
v 0.313618 0.208005 -0.034480
v 0.313618 0.183900 -0.020640
v 0.313618 0.208005 -0.020640
v 0.313618 0.208005 -0.020640
v 0.365222 0.250003 -0.020640
v 0.313618 0.208005 -0.034480
v 0.365222 0.250003 -0.034480
v 0.313618 0.208005 -0.034480
v 0.365222 0.250003 -0.020640
v 0.365222 0.250003 -0.020640
v 0.442489 0.250003 -0.034480
v 0.365222 0.250003 -0.034480
v 0.442489 0.250003 -0.034480
v 0.365222 0.250003 -0.020640
v 0.442489 0.250003 -0.020640
v 0.468291 0.208005 -0.020640
v 0.442489 0.250003 -0.034480
v 0.442489 0.250003 -0.020640
v 0.442489 0.250003 -0.034480
v 0.468291 0.208005 -0.020640
v 0.468291 0.208005 -0.034480
v 0.468291 0.208005 -0.020640
v 0.468291 0.183900 -0.034480
v 0.468291 0.208005 -0.034480
v 0.468291 0.183900 -0.034480
v 0.468291 0.208005 -0.020640
v 0.468291 0.183900 -0.020640
v 0.313618 0.208005 0.021363
v 0.313618 0.183900 0.021363
v 0.313618 0.183900 0.035202
v 0.313618 0.208005 0.021363
v 0.313618 0.183900 0.035202
v 0.313618 0.208005 0.035202
v 0.313618 0.208005 0.035202
v 0.365222 0.250003 0.035202
v 0.313618 0.208005 0.021363
v 0.365222 0.250003 0.021363
v 0.313618 0.208005 0.021363
v 0.365222 0.250003 0.035202
v 0.365222 0.250003 0.035202
v 0.442489 0.250003 0.021363
v 0.365222 0.250003 0.021363
v 0.442489 0.250003 0.021363
v 0.365222 0.250003 0.035202
v 0.442489 0.250003 0.035202
v 0.468291 0.208005 0.035202
v 0.442489 0.250003 0.021363
v 0.442489 0.250003 0.035202
v 0.442489 0.250003 0.021363
v 0.468291 0.208005 0.035202
v 0.468291 0.208005 0.021363
v 0.468291 0.208005 0.035202
v 0.468291 0.183900 0.021363
v 0.468291 0.208005 0.021363
v 0.468291 0.183900 0.021363
v 0.468291 0.208005 0.035202
v 0.468291 0.183900 0.035202
v 0.509010 0.188907 -0.038947
v 0.173584 0.125489 -0.062468
v 0.173584 0.188907 -0.038947
v 0.173584 0.125489 -0.062468
v 0.509010 0.188907 -0.038947
v 0.547714 0.125489 -0.062468
v 0.173584 0.125489 -0.062468
v -0.932496 0.188907 -0.038947
v 0.173584 0.188907 -0.038947
v -0.932496 0.188907 -0.038947
v 0.173584 0.125489 -0.062468
v -1.048606 0.125489 -0.062468
v -1.048606 0.125489 -0.062468
v 0.173584 0.125489 -0.062468
v -1.048606 -0.035083 -0.152136
v 0.173584 -0.035083 -0.152136
v -1.048606 -0.035083 -0.152136
v 0.173584 0.125489 -0.062468
v -1.048606 -0.035083 -0.152136
v 0.173584 -0.035083 -0.152136
v -1.048606 -0.113940 -0.121709
v 0.173584 -0.113940 -0.121709
v -1.048606 -0.113940 -0.121709
v 0.173584 -0.035083 -0.152136
v -1.048606 -0.035083 0.152136
v -0.924123 -0.079104 0.135150
v -0.924123 -0.035083 0.152136
v -0.924123 0.008924 0.127561
v -1.048606 -0.035083 0.152136
v -0.924123 -0.035083 0.152136
v -0.924123 -0.079104 0.135150
v -1.048606 -0.035083 0.152136
v -1.048606 -0.113940 0.121709
v -1.048606 -0.035083 0.152136
v -0.924123 0.008924 0.127561
v -1.048606 0.125489 0.062468
v -1.048606 -0.113940 0.121709
v -0.038918 -0.079104 0.135150
v -0.924123 -0.079104 0.135150
v -0.038918 -0.079104 0.135150
v -1.048606 -0.113940 0.121709
v 0.173584 -0.113940 0.121709
v 0.173584 -0.035083 0.152136
v -0.038918 -0.079104 0.135150
v 0.173584 -0.113940 0.121709
v -0.038918 -0.079104 0.135150
v 0.173584 -0.035083 0.152136
v -0.038918 -0.035083 0.152136
v 0.173584 -0.035083 0.152136
v -0.038918 0.008924 0.127561
v -0.038918 -0.035083 0.152136
v -0.038918 0.008924 0.127561
v -1.048606 0.125489 0.062468
v -0.924123 0.008924 0.127561
v 0.173584 -0.035083 0.152136
v 0.173584 0.125489 0.062468
v -0.038918 0.008924 0.127561
v -1.048606 0.125489 0.062468
v -0.038918 0.008924 0.127561
v 0.173584 0.125489 0.062468
v -1.048606 0.125489 0.062468
v 0.173584 0.125489 0.062468
v -0.932496 0.188907 0.038947
v 0.173584 0.188907 0.038947
v -0.932496 0.188907 0.038947
v 0.173584 0.125489 0.062468
v 0.173584 0.125489 0.062468
v 0.509010 0.188907 0.038947
v 0.173584 0.188907 0.038947
v 0.509010 0.188907 0.038947
v 0.173584 0.125489 0.062468
v 0.547714 0.125489 0.062468
v 0.423017 0.324262 0.026916
v 0.394283 0.305484 0.019139
v 0.394283 0.324262 0.026916
v 0.394283 0.305484 0.019139
v 0.423017 0.324262 0.026916
v 0.423017 0.305484 0.019139
v -0.731084 0.183900 -0.034480
v -0.782687 0.250003 -0.034480
v -0.731084 0.208005 -0.034480
v -0.782687 0.250003 -0.034480
v -0.731084 0.183900 -0.034480
v -0.885756 0.183900 -0.034479
v -0.782687 0.250003 -0.034480
v -0.885756 0.183900 -0.034479
v -0.859955 0.250003 -0.034479
v -0.859955 0.250003 -0.034479
v -0.885756 0.183900 -0.034479
v -0.885756 0.208005 -0.034479
v 0.442489 0.250003 -0.034480
v 0.468291 0.183900 -0.034480
v 0.365222 0.250003 -0.034480
v 0.468291 0.183900 -0.034480
v 0.442489 0.250003 -0.034480
v 0.468291 0.208005 -0.034480
v 0.365222 0.250003 -0.034480
v 0.468291 0.183900 -0.034480
v 0.313618 0.183900 -0.034480
v 0.365222 0.250003 -0.034480
v 0.313618 0.183900 -0.034480
v 0.313618 0.208005 -0.034480
v 0.423017 0.343136 -0.034134
v 0.423017 0.267279 -0.034134
v 0.394283 0.343136 -0.034134
v 0.394283 0.343136 -0.034134
v 0.423017 0.267279 -0.034134
v 0.394283 0.267279 -0.034134
v 0.394283 0.305484 -0.018417
v 0.423017 0.305484 -0.018417
v 0.423017 0.324262 -0.026194
v 0.394283 0.305484 -0.018417
v 0.423017 0.324262 -0.026194
v 0.394283 0.324262 -0.026194
v 0.423017 0.255892 -0.027657
v 0.394283 0.181729 -0.027657
v 0.394283 0.255892 -0.027657
v 0.394283 0.181729 -0.027657
v 0.423017 0.255892 -0.027657
v 0.423017 0.181729 -0.027657
v -0.835958 0.295099 -0.006615
v -0.827200 0.324995 -0.002167
v -0.823101 0.295099 -0.006615
v -0.827200 0.324995 -0.002167
v -0.835958 0.295099 -0.006615
v -0.831858 0.324995 -0.002167
v -0.782687 0.250003 0.035202
v -0.885756 0.183900 0.035202
v -0.731084 0.183900 0.035201
v -0.782687 0.250003 0.035202
v -0.731084 0.183900 0.035201
v -0.731084 0.208005 0.035201
v -0.859955 0.250003 0.035202
v -0.885756 0.183900 0.035202
v -0.782687 0.250003 0.035202
v -0.885756 0.183900 0.035202
v -0.859955 0.250003 0.035202
v -0.885756 0.208005 0.035202
v 0.468291 0.183900 0.035202
v 0.442489 0.250003 0.035202
v 0.365222 0.250003 0.035202
v 0.442489 0.250003 0.035202
v 0.468291 0.183900 0.035202
v 0.468291 0.208005 0.035202
v 0.365222 0.250003 0.035202
v 0.313618 0.183900 0.035202
v 0.468291 0.183900 0.035202
v 0.313618 0.183900 0.035202
v 0.365222 0.250003 0.035202
v 0.313618 0.208005 0.035202
v 0.423017 0.267279 0.034856
v 0.423017 0.343136 0.034856
v 0.394283 0.267279 0.034856
v 0.394283 0.267279 0.034856
v 0.423017 0.343136 0.034856
v 0.394283 0.343136 0.034856
v 0.394283 0.255892 0.028379
v 0.394283 0.181729 0.028379
v 0.423017 0.181729 0.028379
v 0.423017 0.181729 0.028379
v 0.423017 0.255892 0.028379
v 0.394283 0.255892 0.028379
v -0.831858 0.324995 0.002889
v -0.835958 0.295099 0.007337
v -0.823101 0.295099 0.007337
v -0.823101 0.295099 0.007337
v -0.827200 0.324995 0.002889
v -0.831858 0.324995 0.002889
v -0.924123 -0.079104 0.021958
v -0.038918 -0.079104 0.021958
v -0.038918 0.008924 0.021958
v -0.924123 -0.079104 0.021958
v -0.038918 0.008924 0.021958
v -0.924123 0.008924 0.021958
v -1.770808 0.060146 -0.043133
v -1.024635 0.078161 0.000361
v -1.024635 0.060146 -0.043133
v -1.024635 0.078161 0.000361
v -1.770808 0.060146 -0.043133
v -1.770808 0.078161 0.000361
v -1.770808 0.060146 -0.043133
v -1.024635 0.060146 -0.043133
v -1.770808 0.016652 -0.061148
v -1.770808 0.078161 0.000361
v -1.024635 0.060146 0.043855
v -1.024635 0.078161 0.000361
v -1.024635 0.016652 -0.061148
v -1.770808 0.016652 -0.061148
v -1.024635 0.060146 -0.043133
v -1.024635 0.060146 0.043855
v -1.770808 0.078161 0.000361
v -1.770808 0.060146 0.043855
v -1.770808 0.016652 -0.061148
v -1.024635 0.016652 -0.061148
v -1.770808 -0.026841 -0.043133
v -1.024635 0.060146 0.043855
v -1.770808 0.060146 0.043855
v -1.024635 0.016652 0.061870
v -1.024635 -0.026841 -0.043133
v -1.770808 -0.026841 -0.043133
v -1.024635 0.016652 -0.061148
v -1.770808 0.016652 0.061870
v -1.024635 0.016652 0.061870
v -1.770808 0.060146 0.043855
v -1.770808 -0.026841 -0.043133
v -1.024635 -0.026841 -0.043133
v -1.770808 -0.044856 0.000361
v -1.024635 0.016652 0.061870
v -1.770808 0.016652 0.061870
v -1.024635 -0.026841 0.043855
v -1.024635 -0.044856 0.000361
v -1.770808 -0.044856 0.000361
v -1.024635 -0.026841 -0.043133
v -1.770808 -0.026841 0.043855
v -1.024635 -0.026841 0.043855
v -1.770808 0.016652 0.061870
v -1.770808 -0.044856 0.000361
v -1.024635 -0.044856 0.000361
v -1.770808 -0.026841 0.043855
v -1.024635 -0.026841 0.043855
v -1.770808 -0.026841 0.043855
v -1.024635 -0.044856 0.000361
v -2.031309 -0.039813 0.056827
v -1.760861 -0.039813 0.056827
v -1.760861 0.016652 0.080216
v -2.031309 -0.063202 0.000361
v -1.760861 -0.039813 0.056827
v -2.031309 -0.039813 0.056827
v -2.031309 -0.039813 0.056827
v -1.760861 0.016652 0.080216
v -2.031309 0.016652 0.080216
v -2.031309 -0.063202 0.000361
v -1.760861 -0.063202 0.000361
v -1.760861 -0.039813 0.056827
v -2.031309 0.016652 0.080216
v -1.760861 0.016652 0.080216
v -1.760861 0.073117 0.056827
v -2.031309 -0.039813 -0.056104
v -1.760861 -0.063202 0.000361
v -2.031309 -0.063202 0.000361
v -2.031309 0.016652 0.080216
v -1.760861 0.073117 0.056827
v -2.031309 0.073117 0.056827
v -2.031309 -0.039813 -0.056104
v -1.760861 -0.039813 -0.056104
v -1.760861 -0.063202 0.000361
v -1.760861 0.096507 0.000361
v -2.031309 0.073117 0.056827
v -1.760861 0.073117 0.056827
v -2.031309 0.016652 -0.079494
v -1.760861 -0.039813 -0.056104
v -2.031309 -0.039813 -0.056104
v -2.031309 0.073117 0.056827
v -1.760861 0.096507 0.000361
v -2.031309 0.096507 0.000361
v -2.031309 0.016652 -0.079494
v -1.760861 0.016652 -0.079494
v -1.760861 -0.039813 -0.056104
v -1.760861 0.073117 -0.056104
v -2.031309 0.096507 0.000361
v -1.760861 0.096507 0.000361
v -2.031309 0.073117 -0.056104
v -1.760861 0.016652 -0.079494
v -2.031309 0.016652 -0.079494
v -2.031309 0.096507 0.000361
v -1.760861 0.073117 -0.056104
v -2.031309 0.073117 -0.056104
v -2.031309 0.073117 -0.056104
v -1.760861 0.073117 -0.056104
v -1.760861 0.016652 -0.079494
v -0.731084 0.183900 0.021363
v -0.782687 0.250003 0.021363
v -0.731084 0.208005 0.021363
v -0.782687 0.250003 0.021363
v -0.731084 0.183900 0.021363
v -0.885756 0.183900 0.021363
v -0.782687 0.250003 0.021363
v -0.885756 0.183900 0.021363
v -0.859955 0.250003 0.021363
v -0.859955 0.250003 0.021363
v -0.885756 0.183900 0.021363
v -0.885756 0.208005 0.021363
v 0.442489 0.250003 0.021363
v 0.468291 0.183900 0.021363
v 0.365222 0.250003 0.021363
v 0.468291 0.183900 0.021363
v 0.442489 0.250003 0.021363
v 0.468291 0.208005 0.021363
v 0.365222 0.250003 0.021363
v 0.468291 0.183900 0.021363
v 0.313618 0.183900 0.021363
v 0.365222 0.250003 0.021363
v 0.313618 0.183900 0.021363
v 0.313618 0.208005 0.021363
v 0.394283 0.267279 -0.034134
v 0.423017 0.267279 -0.034134
v 0.423017 0.255892 -0.027657
v 0.394283 0.267279 -0.034134
v 0.423017 0.255892 -0.027657
v 0.394283 0.255892 -0.027657
v -0.782687 0.250003 -0.020640
v -0.885756 0.183900 -0.020640
v -0.731084 0.183900 -0.020640
v -0.782687 0.250003 -0.020640
v -0.731084 0.183900 -0.020640
v -0.731084 0.208005 -0.020640
v -0.859955 0.250003 -0.020640
v -0.885756 0.183900 -0.020640
v -0.782687 0.250003 -0.020640
v -0.885756 0.183900 -0.020640
v -0.859955 0.250003 -0.020640
v -0.885756 0.208005 -0.020640
v 0.468291 0.183900 -0.020640
v 0.442489 0.250003 -0.020640
v 0.365222 0.250003 -0.020640
v 0.442489 0.250003 -0.020640
v 0.468291 0.183900 -0.020640
v 0.468291 0.208005 -0.020640
v 0.365222 0.250003 -0.020640
v 0.313618 0.183900 -0.020640
v 0.468291 0.183900 -0.020640
v 0.313618 0.183900 -0.020640
v 0.365222 0.250003 -0.020640
v 0.313618 0.208005 -0.020640
v 0.423017 0.181729 -0.027657
v 0.423017 0.181729 0.028379
v 0.394283 0.181729 -0.027657
v 0.394283 0.181729 -0.027657
v 0.423017 0.181729 0.028379
v 0.394283 0.181729 0.028379
v 0.394283 0.255892 0.028379
v 0.423017 0.255892 0.028379
v 0.423017 0.267279 0.034856
v 0.394283 0.255892 0.028379
v 0.423017 0.267279 0.034856
v 0.394283 0.267279 0.034856
v -0.782687 0.250003 0.021363
v -0.731084 0.208005 0.035201
v -0.731084 0.208005 0.021363
v -0.731084 0.208005 0.035201
v -0.782687 0.250003 0.021363
v -0.782687 0.250003 0.035202
v -0.782687 0.250003 -0.034480
v -0.731084 0.208005 -0.020640
v -0.731084 0.208005 -0.034480
v -0.731084 0.208005 -0.020640
v -0.782687 0.250003 -0.034480
v -0.782687 0.250003 -0.020640
v -0.932496 0.188907 -0.038947
v -1.048606 0.125489 -0.062468
v -1.048606 0.125489 0.062468
v -0.932496 0.188907 -0.038947
v -1.048606 0.125489 0.062468
v -0.932496 0.188907 0.038947
v -1.048606 0.125489 -0.062468
v -1.048606 -0.035083 0.152136
v -1.048606 0.125489 0.062468
v 0.173584 0.188907 0.038947
v -0.932496 0.188907 -0.038947
v -0.932496 0.188907 0.038947
v -1.048606 0.125489 -0.062468
v -1.048606 -0.035083 -0.152136
v -1.048606 -0.035083 0.152136
v -1.048606 -0.113940 -0.121709
v -1.048606 -0.035083 0.152136
v -1.048606 -0.035083 -0.152136
v -1.048606 -0.035083 0.152136
v -1.048606 -0.113940 -0.121709
v -1.048606 -0.113940 0.121709
v -0.932496 0.188907 -0.038947
v 0.173584 0.188907 0.038947
v 0.173584 0.188907 -0.038947
v 0.173584 0.188907 0.038947
v 0.509010 0.188907 0.038947
v 0.173584 0.188907 -0.038947
v 0.509010 0.188907 -0.038947
v 0.173584 0.188907 -0.038947
v 0.509010 0.188907 0.038947
v 0.547714 0.125489 0.062468
v 0.509010 0.188907 -0.038947
v 0.509010 0.188907 0.038947
v 0.509010 0.188907 -0.038947
v 0.547714 0.125489 0.062468
v 0.547714 0.125489 -0.062468
v 0.423017 0.343038 0.019139
v 0.394283 0.324262 0.026916
v 0.394283 0.343038 0.019139
v 0.394283 0.324262 0.026916
v 0.423017 0.343038 0.019139
v 0.423017 0.324262 0.026916
v -0.844811 0.256234 0.028378
v -0.844811 0.181490 0.028378
v -0.814887 0.181490 0.028378
v -0.844811 0.181490 -0.027656
v -0.814887 0.181490 0.028378
v -0.844811 0.181490 0.028378
v -0.814887 0.181490 0.028378
v -0.814887 0.256234 0.028378
v -0.844811 0.256234 0.028378
v -0.844811 0.181490 -0.027656
v -0.814887 0.181490 -0.027656
v -0.814887 0.181490 0.028378
v -0.844811 0.256234 0.028378
v -0.814887 0.256234 0.028378
v -0.814887 0.266537 0.033981
v -0.844811 0.181490 -0.027656
v -0.814887 0.256234 -0.027656
v -0.814887 0.181490 -0.027656
v -0.844811 0.256234 0.028378
v -0.814887 0.266537 0.033981
v -0.844811 0.266537 0.033981
v -0.814887 0.266537 0.033981
v -0.814887 0.326606 0.033981
v -0.844811 0.266537 0.033981
v -0.844811 0.266537 0.033981
v -0.814887 0.326606 0.033981
v -0.844811 0.326606 0.033981
v -0.814887 0.256234 -0.027656
v -0.844811 0.181490 -0.027656
v -0.844811 0.256234 -0.027656
v -0.844811 0.266537 -0.033259
v -0.814887 0.256234 -0.027656
v -0.844811 0.256234 -0.027656
v -0.844811 0.266537 -0.033259
v -0.814887 0.266537 -0.033259
v -0.814887 0.256234 -0.027656
v -0.844811 0.326606 -0.033259
v -0.814887 0.266537 -0.033259
v -0.844811 0.266537 -0.033259
v -0.814887 0.326606 -0.033259
v -0.814887 0.266537 -0.033259
v -0.844811 0.326606 -0.033259
v 0.423017 0.324262 -0.026194
v 0.394283 0.343038 -0.018417
v 0.394283 0.324262 -0.026194
v 0.394283 0.343038 -0.018417
v 0.423017 0.324262 -0.026194
v 0.423017 0.343038 -0.018417
v -0.731084 0.208005 0.035201
v -0.731084 0.183900 0.021363
v -0.731084 0.208005 0.021363
v -0.731084 0.183900 0.021363
v -0.731084 0.208005 0.035201
v -0.731084 0.183900 0.035201
v -0.731084 0.208005 -0.020640
v -0.731084 0.183900 -0.034480
v -0.731084 0.208005 -0.034480
v -0.731084 0.183900 -0.034480
v -0.731084 0.208005 -0.020640
v -0.731084 0.183900 -0.020640
v 0.394283 0.350817 0.000361
v 0.423017 0.350817 0.000361
v 0.423017 0.343038 0.019139
v 0.394283 0.350817 0.000361
v 0.423017 0.343038 0.019139
v 0.394283 0.343038 0.019139
v 0.394283 0.343038 -0.018417
v 0.423017 0.343038 -0.018417
v 0.423017 0.350817 0.000361
v 0.394283 0.343038 -0.018417
v 0.423017 0.350817 0.000361
v 0.394283 0.350817 0.000361
v -0.894947 -0.220944 0.043370
v -0.894947 -0.320134 0.043370
v -0.855313 -0.320134 0.061185
v -0.911364 -0.220944 0.000361
v -0.894947 -0.320134 0.043370
v -0.894947 -0.220944 0.043370
v -0.855313 -0.320134 0.061185
v -0.855313 -0.220944 0.061185
v -0.894947 -0.220944 0.043370
v -0.911364 -0.220944 0.000361
v -0.911364 -0.320134 0.000361
v -0.894947 -0.320134 0.043370
v -0.855313 -0.220944 0.061185
v -0.855313 -0.320134 0.061185
v -0.815678 -0.320134 0.043370
v -0.894947 -0.220944 -0.042647
v -0.911364 -0.320134 0.000361
v -0.911364 -0.220944 0.000361
v -0.815678 -0.320134 0.043370
v -0.815678 -0.220944 0.043370
v -0.855313 -0.220944 0.061185
v -0.894947 -0.220944 -0.042647
v -0.894947 -0.320134 -0.042647
v -0.911364 -0.320134 0.000361
v -0.799262 -0.320134 0.000361
v -0.815678 -0.220944 0.043370
v -0.815678 -0.320134 0.043370
v -0.855313 -0.220944 -0.060463
v -0.894947 -0.320134 -0.042647
v -0.894947 -0.220944 -0.042647
v -0.815678 -0.220944 0.043370
v -0.799262 -0.320134 0.000361
v -0.799262 -0.220944 0.000361
v -0.894947 -0.320134 -0.042647
v -0.855313 -0.220944 -0.060463
v -0.855313 -0.320134 -0.060463
v -0.815678 -0.320134 -0.042647
v -0.799262 -0.220944 0.000361
v -0.799262 -0.320134 0.000361
v -0.815678 -0.220944 -0.042647
v -0.855313 -0.320134 -0.060463
v -0.855313 -0.220944 -0.060463
v -0.799262 -0.220944 0.000361
v -0.815678 -0.320134 -0.042647
v -0.815678 -0.220944 -0.042647
v -0.855313 -0.320134 -0.060463
v -0.815678 -0.220944 -0.042647
v -0.815678 -0.320134 -0.042647
v -0.924123 -0.079104 0.021958
v -0.038918 -0.079104 0.135150
v -0.038918 -0.079104 0.021958
v -0.038918 -0.079104 0.135150
v -0.924123 -0.079104 0.021958
v -0.924123 -0.079104 0.135150
v -0.827200 0.324995 0.002889
v -0.823101 0.295099 -0.006615
v -0.827200 0.324995 -0.002167
v -0.823101 0.295099 -0.006615
v -0.827200 0.324995 0.002889
v -0.823101 0.295099 0.007337
v -0.814887 0.297743 0.000361
v -0.814887 0.266537 -0.033259
v -0.814887 0.305409 -0.018145
v -0.814887 0.326606 -0.033259
v -0.814887 0.305409 -0.018145
v -0.814887 0.266537 -0.033259
v -0.814887 0.305409 -0.018145
v -0.814887 0.326606 -0.033259
v -0.814887 0.323915 -0.025811
v -0.814887 0.326606 -0.033259
v -0.814887 0.326606 -0.024696
v -0.814887 0.323915 -0.025811
v -0.814887 0.266537 -0.033259
v -0.814887 0.297743 0.000361
v -0.814887 0.256234 -0.027656
v -0.814887 0.256234 -0.027656
v -0.814887 0.297743 0.000361
v -0.814887 0.256234 0.028378
v -0.814887 0.256234 -0.027656
v -0.814887 0.256234 0.028378
v -0.814887 0.181490 -0.027656
v -0.814887 0.181490 -0.027656
v -0.814887 0.256234 0.028378
v -0.814887 0.181490 0.028378
v -0.814887 0.256234 0.028378
v -0.814887 0.297743 0.000361
v -0.814887 0.266537 0.033981
v -0.814887 0.266537 0.033981
v -0.814887 0.297743 0.000361
v -0.814887 0.305409 0.018867
v -0.814887 0.305409 0.018867
v -0.814887 0.326606 0.033981
v -0.814887 0.266537 0.033981
v -0.814887 0.326606 0.033981
v -0.814887 0.305409 0.018867
v -0.814887 0.323915 0.026533
v -0.814887 0.326606 0.025418
v -0.814887 0.326606 0.033981
v -0.814887 0.323915 0.026533
v -1.068311 -0.113940 -0.135232
v -0.739808 -0.113940 0.135232
v -0.739808 -0.113940 -0.135232
v -0.739808 -0.113940 0.135232
v -1.068311 -0.113940 -0.135232
v -1.068311 -0.113940 0.135232
v -0.924123 -0.079104 0.021958
v -0.924123 0.008924 0.127561
v -0.924123 -0.079104 0.135150
v -0.924123 -0.079104 0.135150
v -0.924123 0.008924 0.127561
v -0.924123 -0.035083 0.152136
v -0.924123 0.008924 0.127561
v -0.924123 -0.079104 0.021958
v -0.924123 0.008924 0.021958
v -0.038918 -0.079104 0.021958
v -0.038918 0.008924 0.127561
v -0.038918 0.008924 0.021958
v -0.038918 0.008924 0.127561
v -0.038918 -0.079104 0.021958
v -0.038918 -0.079104 0.135150
v -0.038918 -0.035083 0.152136
v -0.038918 0.008924 0.127561
v -0.038918 -0.079104 0.135150
v 0.394283 0.255892 -0.027657
v 0.394283 0.181729 -0.027657
v 0.394283 0.181729 0.028379
v 0.394283 0.255892 -0.027657
v 0.394283 0.181729 0.028379
v 0.394283 0.255892 0.028379
v 0.394283 0.255892 0.028379
v 0.394283 0.267279 -0.034134
v 0.394283 0.255892 -0.027657
v 0.394283 0.267279 -0.034134
v 0.394283 0.255892 0.028379
v 0.394283 0.267279 0.034856
v 0.394283 0.267279 -0.034134
v 0.394283 0.267279 0.034856
v 0.394283 0.297707 0.000361
v 0.394283 0.297707 0.000361
v 0.394283 0.267279 0.034856
v 0.394283 0.305484 0.019139
v 0.394283 0.267279 -0.034134
v 0.394283 0.297707 0.000361
v 0.394283 0.305484 -0.018417
v 0.394283 0.267279 0.034856
v 0.394283 0.324262 0.026916
v 0.394283 0.305484 0.019139
v 0.394283 0.324262 -0.026194
v 0.394283 0.267279 -0.034134
v 0.394283 0.305484 -0.018417
v 0.394283 0.267279 0.034856
v 0.394283 0.343136 0.034856
v 0.394283 0.324262 0.026916
v 0.394283 0.267279 -0.034134
v 0.394283 0.324262 -0.026194
v 0.394283 0.343136 -0.034134
v 0.394283 0.345773 0.026559
v 0.394283 0.324262 0.026916
v 0.394283 0.343136 0.034856
v 0.394283 0.324262 0.026916
v 0.394283 0.345773 0.026559
v 0.394283 0.343038 0.019139
v 0.394283 0.343136 0.034856
v 0.394283 0.357511 0.020482
v 0.394283 0.345773 0.026559
v 0.394283 0.357511 0.020482
v 0.394283 0.343038 0.019139
v 0.394283 0.345773 0.026559
v 0.394283 0.350817 0.000361
v 0.394283 0.343038 0.019139
v 0.394283 0.357511 0.020482
v 0.394283 0.357511 0.020482
v 0.394283 0.357511 -0.019760
v 0.394283 0.350817 0.000361
v 0.394283 0.324262 -0.026194
v 0.394283 0.345773 -0.025837
v 0.394283 0.343136 -0.034134
v 0.394283 0.357511 -0.019760
v 0.394283 0.343136 -0.034134
v 0.394283 0.345773 -0.025837
v 0.394283 0.345773 -0.025837
v 0.394283 0.324262 -0.026194
v 0.394283 0.343038 -0.018417
v 0.394283 0.357511 -0.019760
v 0.394283 0.343038 -0.018417
v 0.394283 0.350817 0.000361
v 0.394283 0.343038 -0.018417
v 0.394283 0.357511 -0.019760
v 0.394283 0.345773 -0.025837
v -1.760861 -0.039813 -0.056104
v -1.760861 -0.039813 0.056827
v -1.760861 -0.063202 0.000361
v -1.760861 -0.039813 0.056827
v -1.760861 -0.039813 -0.056104
v -1.760861 0.073117 -0.056104
v -1.760861 0.073117 -0.056104
v -1.760861 -0.039813 -0.056104
v -1.760861 0.016652 -0.079494
v -1.760861 0.073117 -0.056104
v -1.760861 0.073117 0.056827
v -1.760861 -0.039813 0.056827
v -1.760861 -0.039813 0.056827
v -1.760861 0.073117 0.056827
v -1.760861 0.016652 0.080216
v -1.760861 0.073117 0.056827
v -1.760861 0.073117 -0.056104
v -1.760861 0.096507 0.000361
vn -1.0000 -0.0000 -0.0000
vn -0.6611 -0.5305 -0.5306
vn -0.0000 -0.0000 -1.0000
vn -0.0000 -0.7071 -0.7071
vn -0.6610 -0.5307 -0.5305
vn -0.6611 -0.0000 -0.7503
vn -0.0000 0.7071 -0.7071
vn -0.0000 0.0001 -1.0000
vn -0.6610 -0.7504 0.0002
vn -0.6610 -0.5306 -0.5306
vn -0.6611 -0.7503 -0.0000
vn -0.0000 -1.0000 -0.0000
vn -0.6610 0.5306 -0.5306
vn -0.6610 -0.0000 -0.7504
vn -0.6611 -0.0002 -0.7503
vn -0.6611 0.5306 -0.5305
vn -0.0000 1.0000 -0.0000
vn -0.6609 -0.5307 -0.5306
vn -0.6610 0.7504 -0.0000
vn -0.6611 0.7503 -0.0000
vn -0.6609 -0.5306 -0.5307
vn -0.6610 -0.7504 -0.0000
vn -0.0000 0.7071 0.7071
vn -0.6610 -0.5305 0.5307
vn -0.6610 -0.5306 0.5306
vn -0.6612 -0.5305 0.5304
vn -0.0000 -0.7071 0.7071
vn -0.6610 0.5306 0.5306
vn -0.6610 0.7504 -0.0002
vn -0.6610 0.7504 -0.0001
vn -0.6609 -0.5306 0.5307
vn -0.6609 0.5306 0.5307
vn -0.6612 0.5303 0.5306
vn -0.0000 0.0003 1.0000
vn -0.6610 -0.0000 0.7504
vn -0.6612 -0.0003 0.7502
vn -0.0000 -0.0000 1.0000
vn -0.6610 0.5306 0.5305
vn -0.6611 -0.0000 0.7503
vn 1.0000 -0.0000 -0.0000
vn 0.8208 -0.5712 -0.0000
vn -0.8706 -0.4920 -0.0000
vn -0.8521 0.5235 -0.0000
vn -0.9907 0.1359 -0.0000
vn -0.0000 -0.0001 -1.0000
vn -0.0000 -0.3832 -0.9237
vn -0.0000 -0.3828 -0.9238
vn -0.0000 -0.3828 0.9238
vn -0.0000 -0.0001 1.0000
vn -0.0000 0.9239 -0.3826
vn -0.0000 0.9239 0.3826
vn -0.9083 0.4184 -0.0000
vn -0.9082 0.4185 -0.0000
vn -0.3402 0.9403 -0.0000
vn -0.3402 0.9403 0.0001
vn -0.3401 0.9404 -0.0000
vn 0.5022 0.8647 -0.0000
vn 0.9632 0.2689 -0.0000
vn 0.9632 0.2687 -0.0000
vn -0.3402 0.9404 -0.0000
vn -0.0000 0.3477 -0.9376
vn -0.0000 0.3954 -0.9185
vn -0.0000 0.4552 -0.8904
vn -0.0000 0.0705 -0.9975
vn -0.0000 -0.3600 -0.9330
vn -0.0000 0.0705 0.9975
vn -0.0000 -0.3600 0.9330
vn -0.0000 0.4876 0.8731
vn -0.0000 0.4552 0.8904
vn -0.0000 0.3954 0.9185
vn -0.0000 0.3477 0.9376
vn -0.0000 0.3826 -0.9239
vn -0.0000 0.3826 0.9239
vn -0.0000 0.1472 -0.9891
vn -0.0000 0.1472 0.9891
vn 0.0002 0.7071 -0.7071
vn 0.0001 -0.0000 1.0000
vn -0.0001 -0.0000 1.0000
vn 0.0001 0.7071 0.7071
vn -0.0000 1.0000 0.0001
vn -0.0000 -0.4944 -0.8692
vn -0.0000 -0.4944 0.8692
vn 0.6312 0.7756 -0.0000
vn -0.2619 0.9651 -0.0000
vn -0.9198 0.3924 -0.0000
vn 0.5450 0.8384 -0.0000
vn 0.8536 0.5209 -0.0000
vn -0.0000 -0.3827 -0.9239
vn -0.0000 -0.2465 0.9691
vn 0.0001 -0.7071 0.7071
vn -0.0000 -0.2467 0.9691
vn -0.0000 -0.2465 -0.9691
vn -0.0001 -0.7071 -0.7071
vn -0.0000 -0.2467 -0.9691
vn -0.0000 -0.3827 0.9239
vn -0.0000 -0.9239 -0.3827
vn -0.0000 -0.9239 0.3827
vn -0.7353 -0.0000 0.6777
vn -0.7355 -0.0000 0.6776
vn 0.7353 -0.0000 0.6777
vn -0.7355 -0.0000 -0.6776
vn 0.7353 -0.0001 0.6777
vn 0.7354 -0.0000 0.6776
vn -0.7353 -0.0000 -0.6778
vn -0.7353 -0.0001 -0.6778
vn 0.7354 -0.0000 -0.6776
vn 1.0000 -0.0000 -0.0002
vn 0.7353 -0.0000 -0.6777
vn 0.9907 0.1358 -0.0000
vt 0.000000 0.000000
s 1
f 761/6/138 762/6/138 763/6/138
f 764/6/138 765/6/138 766/6/138
f 767/6/138 768/6/138 769/6/138
f 770/6/138 771/6/138 772/6/138
f 773/6/138 774/6/138 775/6/138
f 776/6/138 777/6/138 778/6/138
f 779/6/138 780/6/138 781/6/138
f 782/6/138 783/6/138 784/6/138
f 785/6/138 786/6/138 787/6/138
f 788/6/138 789/6/138 790/6/138
f 791/6/138 792/6/138 793/6/138
f 794/6/138 795/6/138 796/6/138
f 797/6/138 798/6/138 799/6/138
f 800/6/138 801/6/138 802/6/138
f 803/6/138 804/6/138 805/6/138
f 806/6/138 807/6/138 808/6/138
f 809/6/139 810/6/140 811/6/141
f 812/6/140 813/6/142 814/6/143
f 815/6/143 816/6/144 817/6/145
f 818/6/141 819/6/146 820/6/147
f 821/6/148 822/6/141 823/6/149
f 824/6/147 825/6/150 826/6/151
f 827/6/144 828/6/152 829/6/150
f 830/6/144 831/6/153 832/6/154
f 833/6/155 834/6/156 835/6/150
f 836/6/157 837/6/154 838/6/150
f 839/6/156 840/6/158 841/6/159
f 842/6/154 843/6/157 844/6/160
f 845/6/149 846/6/161 847/6/148
f 848/6/162 849/6/156 850/6/159
f 851/6/163 852/6/149 853/6/164
f 854/6/165 855/6/160 856/6/166
f 857/6/167 858/6/168 859/6/169
f 860/6/170 861/6/171 862/6/160
f 863/6/164 864/6/172 865/6/162
f 866/6/165 867/6/162 868/6/172
f 869/6/173 870/6/164 871/6/174
f 872/6/171 873/6/175 874/6/176
f 875/6/177 876/6/177 877/6/177
f 878/6/177 879/6/177 880/6/177
f 881/6/177 882/6/177 883/6/177
f 884/6/177 885/6/177 886/6/177
f 887/6/177 888/6/177 889/6/177
f 890/6/177 891/6/177 892/6/177
f 893/6/177 894/6/177 895/6/177
f 896/6/177 897/6/177 898/6/177
f 899/6/177 900/6/177 901/6/177
f 902/6/177 903/6/177 904/6/177
f 905/6/177 906/6/177 907/6/177
f 908/6/177 909/6/177 910/6/177
f 911/6/177 912/6/177 913/6/177
f 914/6/177 915/6/177 916/6/177
f 917/6/177 918/6/177 919/6/177
f 920/6/177 921/6/177 922/6/177
f 923/6/177 924/6/177 925/6/177
f 926/6/177 927/6/177 928/6/177
f 929/6/177 930/6/177 931/6/177
f 932/6/177 933/6/177 934/6/177
f 935/6/177 936/6/177 937/6/177
f 938/6/177 939/6/177 940/6/177
f 941/6/177 942/6/177 943/6/177
f 944/6/177 945/6/177 946/6/177
f 947/6/178 948/6/177 949/6/177
f 950/6/177 951/6/178 952/6/178
f 953/6/149 954/6/178 955/6/178
f 956/6/178 957/6/149 958/6/149
f 959/6/179 960/6/179 961/6/179
f 962/6/179 963/6/179 964/6/179
f 965/6/149 966/6/149 967/6/149
f 968/6/149 969/6/149 970/6/149
f 971/6/138 972/6/138 973/6/138
f 974/6/138 975/6/138 976/6/138
f 977/6/138 978/6/138 979/6/138
f 980/6/138 981/6/138 982/6/138
f 983/6/180 984/6/180 985/6/180
f 986/6/180 987/6/180 988/6/180
f 989/6/180 990/6/180 991/6/180
f 992/6/180 993/6/180 994/6/180
f 995/6/181 996/6/181 997/6/181
f 998/6/181 999/6/181 1000/6/181
f 1001/6/138 1002/6/138 1003/6/138
f 1004/6/138 1005/6/138 1006/6/138
f 1007/6/138 1008/6/138 1009/6/138
f 1010/6/138 1011/6/138 1012/6/138
f 1013/6/138 1014/6/138 1015/6/138
f 1016/6/138 1017/6/138 1018/6/138
f 1019/6/138 1020/6/138 1021/6/138
f 1022/6/138 1023/6/138 1024/6/138
f 1025/6/138 1026/6/138 1027/6/138
f 1028/6/138 1029/6/138 1030/6/138
f 1031/6/138 1032/6/138 1033/6/138
f 1034/6/138 1035/6/138 1036/6/138
f 1037/6/138 1038/6/138 1039/6/138
f 1040/6/149 1041/6/149 1042/6/149
f 1043/6/149 1044/6/149 1045/6/149
f 1046/6/154 1047/6/154 1048/6/154
f 1049/6/154 1050/6/154 1051/6/154
f 1052/6/154 1053/6/154 1054/6/154
f 1055/6/154 1056/6/154 1057/6/154
f 1058/6/154 1059/6/154 1060/6/154
f 1061/6/154 1062/6/154 1063/6/154
f 1064/6/154 1065/6/154 1066/6/154
f 1067/6/154 1068/6/154 1069/6/154
f 1070/6/144 1071/6/144 1072/6/144
f 1073/6/144 1074/6/144 1075/6/144
f 1076/6/140 1077/6/144 1078/6/140
f 1079/6/182 1080/6/183 1081/6/182
f 1082/6/184 1083/6/140 1084/6/184
f 1085/6/144 1086/6/140 1087/6/144
f 1088/6/154 1089/6/144 1090/6/144
f 1091/6/144 1092/6/154 1093/6/154
f 1094/6/154 1095/6/154 1096/6/160
f 1097/6/160 1098/6/160 1099/6/154
f 1100/6/160 1101/6/174 1102/6/160
f 1103/6/174 1104/6/160 1105/6/174
f 1106/6/174 1107/6/185 1108/6/174
f 1109/6/185 1110/6/186 1111/6/185
f 1112/6/160 1113/6/160 1114/6/160
f 1115/6/160 1116/6/160 1117/6/160
f 1118/6/149 1119/6/149 1120/6/149
f 1121/6/149 1122/6/149 1123/6/149
f 1124/6/140 1125/6/140 1126/6/140
f 1127/6/140 1128/6/140 1129/6/140
f 1130/6/187 1131/6/187 1132/6/187
f 1133/6/187 1134/6/187 1135/6/187
f 1136/6/188 1137/6/188 1138/6/188
f 1139/6/188 1140/6/188 1141/6/188
f 1142/6/174 1143/6/174 1144/6/174
f 1145/6/174 1146/6/174 1147/6/174
f 1148/6/154 1149/6/154 1150/6/154
f 1151/6/154 1152/6/154 1153/6/154
f 1154/6/154 1155/6/154 1156/6/154
f 1157/6/154 1158/6/154 1159/6/154
f 1160/6/189 1161/6/138 1162/6/138
f 1163/6/189 1164/6/138 1165/6/189
f 1166/6/190 1167/6/191 1168/6/190
f 1169/6/192 1170/6/190 1171/6/191
f 1172/6/193 1173/6/194 1174/6/193
f 1175/6/194 1176/6/193 1177/6/194
f 1178/6/195 1179/6/194 1180/6/194
f 1181/6/194 1182/6/195 1183/6/195
f 1184/6/196 1185/6/177 1186/6/196
f 1187/6/177 1188/6/196 1189/6/177
f 1190/6/189 1191/6/138 1192/6/138
f 1193/6/189 1194/6/138 1195/6/189
f 1196/6/190 1197/6/191 1198/6/190
f 1199/6/197 1200/6/190 1201/6/197
f 1202/6/193 1203/6/194 1204/6/193
f 1205/6/194 1206/6/193 1207/6/194
f 1208/6/195 1209/6/194 1210/6/194
f 1211/6/194 1212/6/195 1213/6/195
f 1214/6/196 1215/6/177 1216/6/196
f 1217/6/177 1218/6/196 1219/6/177
f 1220/6/198 1221/6/199 1222/6/198
f 1223/6/199 1224/6/198 1225/6/198
f 1226/6/199 1227/6/198 1228/6/198
f 1229/6/198 1230/6/199 1231/6/200
f 1232/6/200 1233/6/199 1234/6/201
f 1235/6/201 1236/6/201 1237/6/199
f 1238/6/201 1239/6/201 1240/6/202
f 1241/6/202 1242/6/202 1243/6/201
f 1244/6/203 1245/6/204 1246/6/203
f 1247/6/205 1248/6/203 1249/6/203
f 1250/6/204 1251/6/203 1252/6/204
f 1253/6/203 1254/6/205 1255/6/206
f 1256/6/204 1257/6/204 1258/6/204
f 1259/6/204 1260/6/204 1261/6/204
f 1262/6/203 1263/6/204 1264/6/204
f 1265/6/204 1266/6/203 1267/6/203
f 1268/6/203 1269/6/205 1270/6/203
f 1271/6/205 1272/6/206 1273/6/205
f 1274/6/203 1275/6/207 1276/6/205
f 1277/6/206 1278/6/205 1279/6/207
f 1280/6/206 1281/6/207 1282/6/208
f 1283/6/208 1284/6/208 1285/6/207
f 1286/6/207 1287/6/208 1288/6/208
f 1289/6/208 1290/6/207 1291/6/208
f 1292/6/209 1293/6/209 1294/6/209
f 1295/6/209 1296/6/209 1297/6/209
f 1298/6/140 1299/6/140 1300/6/140
f 1301/6/140 1302/6/140 1303/6/140
f 1304/6/140 1305/6/140 1306/6/140
f 1307/6/140 1308/6/140 1309/6/140
f 1310/6/140 1311/6/140 1312/6/140
f 1313/6/140 1314/6/140 1315/6/140
f 1316/6/140 1317/6/140 1318/6/140
f 1319/6/140 1320/6/140 1321/6/140
f 1322/6/140 1323/6/140 1324/6/140
f 1325/6/140 1326/6/140 1327/6/140
f 1328/6/210 1329/6/210 1330/6/210
f 1331/6/210 1332/6/210 1333/6/210
f 1334/6/140 1335/6/140 1336/6/140
f 1337/6/140 1338/6/140 1339/6/140
f 1340/6/211 1341/6/211 1342/6/211
f 1343/6/211 1344/6/211 1345/6/211
f 1346/6/174 1347/6/174 1348/6/174
f 1349/6/174 1350/6/174 1351/6/174
f 1352/6/174 1353/6/174 1354/6/174
f 1355/6/174 1356/6/174 1357/6/174
f 1358/6/174 1359/6/174 1360/6/174
f 1361/6/174 1362/6/174 1363/6/174
f 1364/6/174 1365/6/174 1366/6/174
f 1367/6/174 1368/6/174 1369/6/174
f 1370/6/174 1371/6/174 1372/6/174
f 1373/6/174 1374/6/174 1375/6/174
f 1376/6/174 1377/6/174 1378/6/174
f 1379/6/174 1380/6/174 1381/6/174
f 1382/6/212 1383/6/212 1384/6/212
f 1385/6/212 1386/6/212 1387/6/212
f 1388/6/174 1389/6/174 1390/6/174
f 1391/6/174 1392/6/174 1393/6/174
f 1394/6/144 1395/6/154 1396/6/144
f 1397/6/154 1398/6/213 1399/6/154
f 1400/6/144 1401/6/144 1402/6/140
f 1403/6/154 1404/6/160 1405/6/154
f 1406/6/140 1407/6/140 1408/6/144
f 1409/6/160 1410/6/154 1411/6/160
f 1412/6/140 1413/6/140 1414/6/141
f 1415/6/160 1416/6/160 1417/6/174
f 1418/6/141 1419/6/141 1420/6/140
f 1421/6/174 1422/6/174 1423/6/160
f 1424/6/141 1425/6/141 1426/6/149
f 1427/6/174 1428/6/174 1429/6/164
f 1430/6/149 1431/6/149 1432/6/141
f 1433/6/164 1434/6/164 1435/6/174
f 1436/6/149 1437/6/149 1438/6/164
f 1439/6/164 1440/6/164 1441/6/149
f 1442/6/164 1443/6/164 1444/6/174
f 1445/6/149 1446/6/164 1447/6/164
f 1448/6/164 1449/6/174 1450/6/214
f 1451/6/149 1452/6/149 1453/6/164
f 1454/6/174 1455/6/215 1456/6/160
f 1457/6/141 1458/6/149 1459/6/149
f 1460/6/174 1461/6/160 1462/6/216
f 1463/6/141 1464/6/141 1465/6/149
f 1466/6/217 1467/6/160 1468/6/160
f 1469/6/140 1470/6/141 1471/6/141
f 1472/6/160 1473/6/217 1474/6/217
f 1475/6/140 1476/6/140 1477/6/141
f 1478/6/144 1479/6/154 1480/6/154
f 1481/6/144 1482/6/140 1483/6/140
f 1484/6/154 1485/6/144 1486/6/213
f 1487/6/144 1488/6/144 1489/6/140
f 1490/6/140 1491/6/140 1492/6/140
f 1493/6/140 1494/6/140 1495/6/140
f 1496/6/140 1497/6/140 1498/6/140
f 1499/6/140 1500/6/140 1501/6/140
f 1502/6/140 1503/6/140 1504/6/140
f 1505/6/140 1506/6/140 1507/6/140
f 1508/6/140 1509/6/140 1510/6/140
f 1511/6/140 1512/6/140 1513/6/140
f 1514/6/218 1515/6/218 1516/6/218
f 1517/6/218 1518/6/218 1519/6/218
f 1520/6/174 1521/6/174 1522/6/174
f 1523/6/174 1524/6/174 1525/6/174
f 1526/6/174 1527/6/174 1528/6/174
f 1529/6/174 1530/6/174 1531/6/174
f 1532/6/174 1533/6/174 1534/6/174
f 1535/6/174 1536/6/174 1537/6/174
f 1538/6/174 1539/6/174 1540/6/174
f 1541/6/174 1542/6/174 1543/6/174
f 1544/6/149 1545/6/149 1546/6/149
f 1547/6/149 1548/6/149 1549/6/149
f 1550/6/219 1551/6/219 1552/6/219
f 1553/6/219 1554/6/219 1555/6/219
f 1556/6/220 1557/6/220 1558/6/220
f 1559/6/220 1560/6/220 1561/6/220
f 1562/6/220 1563/6/220 1564/6/220
f 1565/6/220 1566/6/220 1567/6/220
f 1568/6/221 1569/6/222 1570/6/222
f 1571/6/221 1572/6/222 1573/6/221
f 1574/6/222 1575/6/138 1576/6/222
f 1577/6/154 1578/6/221 1579/6/221
f 1580/6/222 1581/6/138 1582/6/138
f 1583/6/138 1584/6/138 1585/6/138
f 1586/6/138 1587/6/138 1588/6/138
f 1589/6/221 1590/6/154 1591/6/154
f 1592/6/154 1593/6/223 1594/6/154
f 1595/6/223 1596/6/154 1597/6/223
f 1598/6/224 1599/6/223 1600/6/223
f 1601/6/223 1602/6/224 1603/6/224
f 1604/6/225 1605/6/225 1606/6/225
f 1607/6/225 1608/6/225 1609/6/225
f 1610/6/226 1611/6/164 1612/6/164
f 1613/6/141 1614/6/164 1615/6/164
f 1616/6/227 1617/6/226 1618/6/226
f 1619/6/141 1620/6/141 1621/6/164
f 1622/6/228 1623/6/228 1624/6/228
f 1625/6/141 1626/6/229 1627/6/141
f 1628/6/228 1629/6/228 1630/6/228
f 1631/6/226 1632/6/174 1633/6/226
f 1634/6/226 1635/6/174 1636/6/174
f 1637/6/229 1638/6/230 1639/6/229
f 1640/6/229 1641/6/231 1642/6/231
f 1643/6/231 1644/6/231 1645/6/231
f 1646/6/140 1647/6/229 1648/6/229
f 1649/6/140 1650/6/229 1651/6/140
f 1652/6/232 1653/6/232 1654/6/232
f 1655/6/232 1656/6/232 1657/6/232
f 1658/6/177 1659/6/177 1660/6/177
f 1661/6/177 1662/6/177 1663/6/177
f 1664/6/177 1665/6/177 1666/6/177
f 1667/6/177 1668/6/177 1669/6/177
f 1670/6/233 1671/6/233 1672/6/233
f 1673/6/233 1674/6/233 1675/6/233
f 1676/6/234 1677/6/234 1678/6/234
f 1679/6/234 1680/6/234 1681/6/234
f 1682/6/235 1683/6/235 1684/6/174
f 1685/6/138 1686/6/236 1687/6/236
f 1688/6/174 1689/6/174 1690/6/235
f 1691/6/138 1692/6/138 1693/6/236
f 1694/6/174 1695/6/174 1696/6/237
f 1697/6/238 1698/6/138 1699/6/138
f 1700/6/237 1701/6/239 1702/6/174
f 1703/6/238 1704/6/238 1705/6/138
f 1706/6/177 1707/6/240 1708/6/240
f 1709/6/140 1710/6/241 1711/6/242
f 1712/6/240 1713/6/177 1714/6/177
f 1715/6/241 1716/6/140 1717/6/140
f 1718/6/243 1719/6/244 1720/6/244
f 1721/6/245 1722/6/140 1723/6/140
f 1724/6/244 1725/6/243 1726/6/243
f 1727/6/140 1728/6/245 1729/6/245
f 1730/6/154 1731/6/154 1732/6/154
f 1733/6/154 1734/6/154 1735/6/154
f 1736/6/246 1737/6/246 1738/6/246
f 1739/6/246 1740/6/246 1741/6/246
f 1742/6/177 1743/6/177 1744/6/177
f 1745/6/177 1746/6/177 1747/6/177
f 1748/6/177 1749/6/177 1750/6/177
f 1751/6/177 1752/6/177 1753/6/177
f 1754/6/177 1755/6/177 1756/6/177
f 1757/6/177 1758/6/177 1759/6/177
f 1760/6/177 1761/6/177 1762/6/177
f 1763/6/177 1764/6/177 1765/6/177
f 1766/6/177 1767/6/177 1768/6/177
f 1769/6/177 1770/6/177 1771/6/177
f 1772/6/177 1773/6/177 1774/6/177
f 1775/6/177 1776/6/177 1777/6/177
f 1778/6/177 1779/6/177 1780/6/177
f 1781/6/154 1782/6/154 1783/6/154
f 1784/6/154 1785/6/154 1786/6/154
f 1787/6/177 1788/6/177 1789/6/177
f 1790/6/177 1791/6/177 1792/6/177
f 1793/6/177 1794/6/177 1795/6/177
f 1796/6/138 1797/6/138 1798/6/138
f 1799/6/138 1800/6/138 1801/6/138
f 1802/6/138 1803/6/138 1804/6/138
f 1805/6/138 1806/6/138 1807/6/138
f 1808/6/138 1809/6/138 1810/6/138
f 1811/6/138 1812/6/138 1813/6/138
f 1814/6/138 1815/6/138 1816/6/138
f 1817/6/138 1818/6/138 1819/6/138
f 1820/6/138 1821/6/138 1822/6/138
f 1823/6/138 1824/6/138 1825/6/138
f 1826/6/138 1827/6/138 1828/6/138
f 1829/6/138 1830/6/138 1831/6/138
f 1832/6/138 1833/6/138 1834/6/138
f 1835/6/138 1836/6/138 1837/6/138
f 1838/6/138 1839/6/138 1840/6/138
f 1841/6/138 1842/6/138 1843/6/138
f 1844/6/138 1845/6/138 1846/6/138
f 1847/6/138 1848/6/138 1849/6/138
f 1850/6/138 1851/6/138 1852/6/138
f 1853/6/138 1854/6/138 1855/6/138
f 1856/6/138 1857/6/138 1858/6/138
f 1859/6/138 1860/6/138 1861/6/138
f 1862/6/138 1863/6/138 1864/6/138
f 1865/6/138 1866/6/138 1867/6/138
f 1868/6/138 1869/6/138 1870/6/138
f 1871/6/177 1872/6/177 1873/6/177
f 1874/6/177 1875/6/177 1876/6/177
f 1877/6/177 1878/6/177 1879/6/177
f 1880/6/177 1881/6/177 1882/6/177
f 1883/6/177 1884/6/177 1885/6/177
f 1886/6/177 1887/6/177 1888/6/177
